<svg transform="scale(1)" version="1.1" id="nVmyUqR2w0" xmlns="http://www.w3.org/2000/svg" xmlns:xlink="http://www.w3.org/1999/xlink" x="0px" y="0px" viewBox="0 0 500 500" xml:space="preserve" class="pbimage_pbimage__wrapper__image__0LEis false"><title>Winner</title><style type="text/css"> .st0{fill:#FFB3A6;} .st1{opacity:0.63;fill:url(#Shadow_00000127030970115787321490000009434829366141438363_-nVmyUqR2w0);enable-background:new;} .st2{fill:#0A6FC1;} .st3{opacity:0.1;fill:#181816;enable-background:new;} .st4{opacity:0.25;fill:#181816;enable-background:new;} .st5{fill:#68E1FD;} .st6{opacity:0.15;fill:#181816;enable-background:new;} .st7{fill:#FA6D90;} .st8{opacity:0.2;fill:#181816;enable-background:new;} .st9{opacity:0.4;fill:#181816;enable-background:new;} .st10{fill:#5ED18D;} .st11{opacity:0.5;fill:#181816;enable-background:new;} .st12{opacity:0.3;fill:#181816;enable-background:new;} .st13{fill:#181816;} .st14{fill:#FA6C00;} .st15{fill:#FEC617;} .st16{fill:#FFA407;}
 .st16{fill:#FFA407;}
 .st15{fill:#FEC617;}
 .st14{fill:#FA6C00;}
 .st13{fill:#181816;}
 .st12{fill:#181816;}
 .st11{fill:#181816;}
 .st10{fill:#5ED18D;}
 .st9{fill:#181816;}
 .st8{fill:#181816;}
 .st7{fill:#FA6D90;}
 .st6{fill:#181816;}
 .st5{fill:#68E1FD;}
 .st4{fill:#181816;}
 .st3{fill:#181816;}
 .st2{fill:#0A6FC1;}
 .st0{fill:#FFB3A6;}</style><g id="Base"><path class="st0" d="M28.5,267.8l176.1-102.4c2.6-1.5,5.7-1.5,8.3,0l263.3,150.7c4,2.3,5.4,7.4,3.1,11.4c-0.7,1.3-1.8,2.3-3.1,3.1
		l-168.3,97.2c-8.4,4.8-18.8,4.8-27.2,0L28.6,282.2c-4-2.3-5.3-7.4-3-11.4C26.2,269.6,27.3,268.6,28.5,267.8z" fill="#FFB3A6"></path></g><linearGradient id="Shadow_00000145024581834432322640000000259399920143218092_-nVmyUqR2w0" gradientUnits="userSpaceOnUse" x1="349.1133" y1="102.812" x2="329.0033" y2="136.502" gradientTransform="matrix(1 0 0 -1 0 502)"><stop offset="0" style="stop-color: rgb(255, 255, 255); stop-opacity: 0;"></stop><stop offset="0.99" style="stop-color: rgb(255, 164, 7);"></stop></linearGradient><path id="Shadow" d="
	M320.9,433.4c46.9-31,73.9-34,117.5-66c-27.6-14.4-74.5-42.4-91.6-53l-116.1,67.8l88,51.2L320.9,433.4z" style="opacity: 0.63; fill: url(&quot;#Shadow_00000145024581834432322640000000259399920143218092_-nVmyUqR2w0&quot;);"></path><g id="Step_1"><polygon class="st2" points="163.1,344.2 248.7,392.6 348.7,334.4 348.7,295.2 248.7,353.5 163.1,304.5 	"></polygon><polygon class="st2" points="163.1,304.5 265,246.1 348.7,295.2 248.7,353.5 	"></polygon><polygon class="st3" points="163.1,304.5 265,246.1 348.7,295.2 248.7,353.5 	"></polygon><polygon class="st4" points="248.7,353.5 248.7,392.6 348.7,334.4 348.7,295.2 	"></polygon></g><g id="Step_3"><polyline class="st5" points="225,189.7 225,256.3 310.7,295.2 348.7,255.7 348.7,216.1 	"></polyline><polygon class="st5" points="309.9,239.1 309.9,318.7 348.7,295.2 348.7,216.1 	"></polygon><polyline class="st6" points="225,189.7 225,256.3 309.9,294.8 309.9,294.8 309.9,239.1 	"></polyline><polygon class="st5" points="309.9,239.1 348.7,216.1 264,167.5 225,189.7 	"></polygon><polygon class="st4" points="309.9,239.1 309.9,318.7 348.7,295.2 348.7,216.1 	"></polygon></g><g id="Step_2"><polyline class="st7" points="186.2,252.3 186.2,291.4 272,340.2 309.9,318.3 309.9,278.7 	"></polyline><polyline class="st8" points="186.2,252.3 186.2,291.4 272,340.2 309.9,318.3 309.9,278.7 	"></polyline><polygon class="st7" points="271.1,301.6 309.9,278.7 225.2,230.1 186.2,252.3 	"></polygon><polygon class="st7" points="271.1,301.6 271.1,340.2 348.7,295.2 348.7,255.7 	"></polygon><polygon class="st9" points="271.1,301.6 271.1,340.2 348.7,295.2 348.7,255.7 	"></polygon></g><g id="Plant"><path class="st5" d="M130.3,243.9c-9-0.8-18.4-3.5-25.1-9.6v26.6c0,15.3,12.4,27.7,27.7,27.7l0,0l0,0c15.3,0,27.7-12.4,27.7-27.7
		l0,0v-27.1C151,237.6,140.3,244.7,130.3,243.9z"></path><ellipse class="st10" cx="132.8" cy="234.1" rx="27.7" ry="14.7"></ellipse><path class="st10" d="M132.8,236.5c0,0-18.8-2.8-23.8-33.2C109,203.4,125.1,212.2,132.8,236.5z"></path><path class="st10" d="M135.6,232.7c0,0-21.6-38.7,0-64.7C135.6,167.9,146.6,197.8,135.6,232.7z"></path><path class="st10" d="M132.8,208.3c0,0-18.8-2.8-23.8-33.2C109,175.1,125.1,184,132.8,208.3z"></path><path class="st10" d="M135.1,220.7c0,0-4.7-18.4,21.4-34.8C156.5,186,154.6,204.2,135.1,220.7z"></path><ellipse class="st11" cx="132.8" cy="234.1" rx="27.7" ry="14.7"></ellipse><path class="st10" d="M132.8,236.5c0,0-18.8-2.8-23.8-33.2C109,203.4,125.1,212.2,132.8,236.5z"></path><path class="st10" d="M135.6,232.7c0,0-21.6-38.7,0-64.7C135.6,167.9,146.6,197.8,135.6,232.7z"></path><path class="st10" d="M132.8,208.3c0,0-18.8-2.8-23.8-33.2C109,175.1,125.1,184,132.8,208.3z"></path><path class="st10" d="M135.1,220.7c0,0-4.7-18.4,21.4-34.8C156.5,186,154.6,204.2,135.1,220.7z"></path></g><g id="Character"><polyline class="st0" points="257.3,103.1 262.7,106.1 261.5,110.7 256.8,108.9 	"></polyline><polyline class="st12" points="257.3,103.1 262.7,106.1 261.5,110.7 256.8,108.9 	"></polyline><path class="st5" d="M259.2,110.8l0.5-7c0,0,11.5,1.9,14.1,2.2s4.2-16.1,11.2-15.2s-2.3,22.1-2.3,22.1l-16.2,2.4"></path><path class="st13" d="M283.4,122.8c0,0-4.2,22.3-3.8,34.6s0.6,27.2,1.5,33.9c0,0,4.1,2.1,6.9-0.4c0,0,4.8-43.8,4.8-43.6
		c1.2,5.6,8,31.5,8.6,33.4s5,20.6,5,20.6s1,3.3,7-0.4c0,0-1.6-32.3-3-40.7c-1.1-6.4-6.2-34.3-9.4-37.4"></path><path class="st5" d="M300.9,124.5c0,0,7.2-20.9,4.3-25.6s-14.5-8.5-20.1-8.1s-2,33.5-1.1,33.7S293.1,130.4,300.9,124.5z"></path><path class="st13" d="M282.8,121.4v4.9c0,0,8.4,5.8,18.8,0l-0.5-3.6C301.1,122.8,293.7,126.6,282.8,121.4z"></path><path class="st13" d="M312.3,180l-1.8,1.8c-1,0-1.3,12.4-2.2,12.9s-5.9-13.4-6.8-13l5.4,20.9c-0.9,2.2-2.2,12.2-1,14
		c1.5,2.3,4.9,2.6,7.1,1.3c1.7-1,1.8-2.9,1.6-4.7c-0.6-6.6-1.1-13.4-1.4-20.1C313.1,188.7,312.8,184.3,312.3,180z"></path><path class="st13" d="M289.8,174.3c0,0-3,0.7-3,0.7c-2.3,1-2.5,11-3.4,11.4s-2.5-12.1-3.3-11.7c0,0,1.2,17.8,0.1,19.7
		c-1.2,2.1-8.9,6.2-7.7,8c1.5,2.3,4.6,3.1,7.1,1.6c3.1-1.7,5.1-5.1,7.3-6c1.9-0.8,1.1-5.6,1.2-7.3
		C288.1,188,290.2,177.1,289.8,174.3z"></path><path class="st0" d="M285.7,82.5c0,0,0,12.2,4.5,13c4.9,0.9,7.7-4.7,7.7-4.7c1.7-2.8,0.9-11.2-4.2-11.7
		C288.7,78.6,285.9,80.9,285.7,82.5z"></path><path class="st13" d="M286.3,84c-1.5-0.4-3.3-0.9-4.2-2.3c-1.4-2.2,0.1-4.4,1.9-5.7c2.2-1.5,4.9-2,7.4-1.4c3.5,0.6,8.5,2.1,9.4,6
		c1.3,5.5-3.9,12.3-3.9,12.3v-3.4c0,0,1.8-2.3,0.8-3.1s-1.3,1.2-1.3,1.2s0.4-4-2.5-4.5c-1.2-0.2-1.6,0.5-2.6,1
		c-0.7,0.3-1.4,0.5-2.2,0.4C288.2,84.5,287.2,84.3,286.3,84z"></path><path class="st13" d="M284.7,102.1c0-0.4-0.3-0.6-0.7-0.6c-0.4,0-0.6,0.3-0.6,0.6c0.1,5.1,0.1,10.2,0.2,15.3c0,0.4,0.3,0.6,0.7,0.6
		c0.4,0,0.6-0.3,0.6-0.6C284.9,112.3,284.8,107.2,284.7,102.1z"></path><path class="st14" d="M278.2,136.9c0.6,0.7,1.1,1.5,1.4,2.3c0.1,0.8,0,4.9-7.1,4.8s-6.6-4.3-6.5-4.7s1.6-2.8,1.6-2.8"></path><ellipse class="st15" cx="272.8" cy="137.5" rx="5.5" ry="3.1"></ellipse><path class="st14" d="M279.8,128.8c2-1.4,5.1,0.9,7.2,1c1.3,0.2,2.6-0.6,3.1-1.9c0.3-0.7,0.5-1.4,0.5-2.1c0-0.8-0.7-1.3-1.3-1.8
		c-1.8-1.6-4.4-2.1-5.9-4c-0.7-0.9,0.5-2.1,1.2-1.2c1.3,1.7,3.8,2.2,5.4,3.6c0.9,0.6,1.6,1.4,2.1,2.3c0.3,1,0.2,2.1-0.2,3.1
		c-0.4,1.9-1.9,3.4-3.8,3.8c-1,0.1-2,0.1-3-0.2c-0.7-0.2-1.3-0.4-2-0.6l-0.9-0.3l-0.5-0.1c-0.4-0.2-0.6,0.1-0.6,0.7
		c1.1,0.2,0.6,1.9-0.5,1.7c-1.2-0.2-2-1.4-1.7-2.5C279.1,129.6,279.4,129.1,279.8,128.8z"></path><path class="st14" d="M257.3,103.1c1.2,0.5,2.3,1.1,3.3,1.9c1.1,0.7,2.1,1.5,3.1,2.3s-0.4,2-1.3,1.2c-1.5-1.2-3-2.3-4.7-3.2
		c-0.4-0.2-1-0.8-1.4-0.3c-0.3,0.3-0.2,0.9-0.2,1.3c0.1,0.9,0.2,1.8,0.6,2.6c1.2,3.4,3.9,5.9,6.5,8.3c0.8,0.8-0.4,2-1.2,1.2
		c-3.4-3.2-7.2-7-7.6-11.9C254.3,104.8,255.2,102.6,257.3,103.1z"></path><path class="st15" d="M274.2,131.7c-0.1,1.2,0,2.3,0.5,3.4c0.4,0.7,0.8,1.4,1.2,2c0,0,0.2,2.1-3.1,2.1s-2.8-2.1-2.8-2.1
		c1.2-1.6,1.6-3.6,1.2-5.5"></path><path class="st16" d="M270,137.1c1.2-1.6,1.6-3.6,1.2-5.5h1c-0.1,2.5,0.1,5.5,1.7,7.4c-0.4,0.1-0.8,0.1-1.1,0.1
		C269.4,139.2,270,137.1,270,137.1z"></path><path class="st15" d="M284.6,110.7v9c0,0-0.1,12.4-11.8,12.4s-11.3-12.5-11.3-12.5v-9"></path><path class="st16" d="M261.5,119.6v-9h6.7c-0.1,5.8,0.3,12.3,4,16.9c1.3,1.6,2.9,2.9,4.7,3.9c-1.3,0.4-2.7,0.6-4.1,0.6
		C261.1,132.1,261.5,119.6,261.5,119.6z"></path><ellipse class="st15" cx="273" cy="110.7" rx="11.6" ry="6.8"></ellipse><ellipse class="st14" cx="272.8" cy="110.5" rx="9.7" ry="5.4"></ellipse><path class="st0" d="M289.3,124c0,0-2.3,3.6-1.3,5.8c0.8,1.5,2.4,2.4,4.1,2.4c0.9,0,2.8-5.8,2.8-5.8s-2.4-5.3-4-4.9
		s-0.9,0.9-0.9,0.9s2.4,2,1.5,2.3S289.3,124,289.3,124z"></path><path class="st0" d="M293.4,123.5l4.2,1.2c0,0,2.5,5.9,1,6.4c-2.1,0.4-4.3,0.8-6.5,1"></path><path class="st0" d="M257.3,103.1c0,0,0.2-1.4-1.5-1.1s-3.4,3.7-2.8,6.3s3.1,1.7,3.9,1.1s0.8-4.2,0.8-4.2s2.3-1.9,1.4-2.7
		S257.3,103.1,257.3,103.1z"></path><path class="st5" d="M304.1,97.5c0,0,17.3,16,13.9,23.9s-20.1,11.4-20.1,11.4s-2-7.2-0.2-9.6s7.1-3.7,7.1-3.7l-4.8-6.3"></path><path class="st13" d="M305.9,118.2c-1.7-3.3-3.6-6.5-5.5-9.7c-0.2-0.3-0.6-0.4-0.9-0.2c-0.3,0.2-0.3,0.5-0.2,0.8
		c1.9,3.1,3.7,6.3,5.4,9.5c-2.8,0.9-5.6,2.1-8.3,3.3c-0.2,0.1-0.3,0.3-0.3,0.6c0.1,3.2,0.4,6.3,0.9,9.4c0.1,0.8,1.4,0.5,1.3-0.3
		c-0.2-1.5-0.5-3-0.6-4.4c-0.1-1.1-0.6-3.2,0-4.1s2.8-1.5,3.8-1.9c1.3-0.5,2.6-1,3.9-1.4c0.3-0.1,0.5-0.5,0.4-0.8c0,0,0,0,0-0.1
		C306,118.8,306.1,118.4,305.9,118.2z"></path></g></svg>