<svg transform="scale(1)" version="1.1" id="R12mXlcFtF" xmlns="http://www.w3.org/2000/svg" xmlns:xlink="http://www.w3.org/1999/xlink" x="0px" y="0px" viewBox="0 0 500 500" xml:space="preserve" class="pbimage_pbimage__wrapper__image__0LEis false"><title>Like</title><style type="text/css"> .st0{fill:#FFC745;} .st1{opacity:0.46;fill:url(#SVGID_1_-R12mXlcFtF);enable-background:new;} .st2{fill:#68E1FD;} .st3{opacity:0.37;fill:#1E2128;enable-background:new;} .st4{opacity:0.15;fill:#1E2128;enable-background:new;} .st5{fill:#FFFFFF;} .st6{fill:#E03636;} .st7{fill:#FF5454;} .st8{fill:#1E2128;} .st9{fill:#EA7554;} .st10{fill:#FFAC99;} .st11{fill:#CCCCCC;} .st12{opacity:0.46;fill:url(#SVGID_00000155861146302390572210000004536114697188025783_-R12mXlcFtF);enable-background:new;} .st13{opacity:0.46;fill:url(#SVGID_00000021116989874593824810000002340326792950976662_-R12mXlcFtF);enable-background:new;} .st14{opacity:0.33;fill:#1E2128;enable-background:new;} .st15{fill:#8CCC00;}
 .st15{fill:#8CCC00;}
 .st14{fill:#1E2128;}
 .st11{fill:#CCCCCC;}
 .st10{fill:#FFAC99;}
 .st9{fill:#EA7554;}
 .st8{fill:#1E2128;}
 .st7{fill:#FF5454;}
 .st6{fill:#E03636;}
 .st5{fill:#FFFFFF;}
 .st4{fill:#1E2128;}
 .st3{fill:#1E2128;}
 .st2{fill:#68E1FD;}
 .st0{fill:#FFC745;}</style><path class="st0" id="field" d="M257,415.6l218.4-129.1c7-3.9,12.9-10.3,6.1-14.5L262.3,145.6c-3.3-2-8.3-3.4-11.6-1.4L21.3,277.3
	c-7,4-8.2,15.3-1.2,19.4l208.1,118.8C237,420.6,248,420.7,257,415.6z"></path><g id="like3"><linearGradient id="SVGID_1_-R12mXlcFtF" gradientUnits="userSpaceOnUse" x1="177.207" y1="199.9771" x2="103.687" y2="160.1071" gradientTransform="matrix(1 0 0 -1 0 502)"><stop offset="0" style="stop-color: rgb(234, 117, 84);"></stop><stop offset="1" style="stop-color: rgb(255, 199, 69);"></stop></linearGradient><path class="st1" d="M318.9,248.1l-60.1-17.4l-184,97.1c0,0,37.2,11.4,62,26C152.4,342.6,286.4,266.7,318.9,248.1z"></path><polygon class="st2" points="324,245.2 324,141.8 296.8,126.2 246.3,154.1 246.3,255.6 274.8,273.4 	" fill="#68E1FD"></polygon><polygon class="st2" points="324,141.8 274.7,170.2 274.7,273.4 324,245.2 	" fill="#68E1FD"></polygon><polygon class="st2" points="274.7,170.2 246.3,154.1 296.8,126.2 324,141.8 	" fill="#68E1FD"></polygon><polygon class="st3" points="324,245.2 324,141.8 296.8,126.2 246.3,154.1 246.3,255.6 274.8,273.4 	" fill="#1E2128"></polygon><polygon class="st3" points="324,141.8 274.7,170.2 274.7,273.3 324,245.2 	" fill="#1E2128"></polygon><polygon class="st4" points="274.7,170.2 246.3,154 296.8,126.2 324,141.8 	" fill="#1E2128"></polygon><path class="st2" d="M261.9,175.3l-27.4-16.1l-5.6,1.9l-9-40.1l-27.6-15.1c0,0-16.9,8.7-21.6,26.4s-1.3,42.5,2.4,50L127,210.5
		c0,0-17.4,13.6-2,29.2c0,0-14.7,6.4-14.5,19.5s10.6,15.2,10.6,15.2s-7.3,4.9-5,16s5.8,12.9,5.8,12.9s-7.1,3.1-4,12.3
		s40.6,22.3,40.8,21.1" fill="#68E1FD"></path><path class="st5" d="M261.9,175.3c0,0-5.9,4.8-8.6,4.3s-22.7-13-26.6-32.5s-0.2-28.6-13.2-26.1s-25.5,54.3-10.9,77.5
		c0,0-48,28.4-48.7,28.7s-9.3,9.8-7,19.6s7,8.2,6.8,8.8s-17,6.6-15.2,22.7s13.8,8.8,13.8,8.8s-14.8,8-8.8,21.4s19.1,0.2,18.2,0.8
		s-10.2,7.7-7.9,19s12.2,6.1,12.2,6.1l84.8-50.4c0,0,11.9-29.3,11-32.1S261.9,175.3,261.9,175.3z" fill="#FFFFFF"></path></g><g id="like2"><polyline class="st6" points="133.6,178.5 130.8,177.6 127.2,171.2 130.9,170.8 	"></polyline><path class="st6" d="M111.5,140.5l0.6,34c0,1.2,1,2.1,2.2,2.1c0.3,0,0.6-0.1,0.9-0.2l28.9-14.4c1-0.5,1.6-1.5,1.6-2.6l-0.6-34
		c0-1.3-1.1-2.3-2.4-2.3c-0.3,0-0.7,0.1-1,0.3L113.1,138C112.1,138.5,111.5,139.5,111.5,140.5z"></path><polygon class="st6" points="146.7,124.8 143.4,123.2 143.3,125.8 	"></polygon><polygon class="st6" points="115.8,177.6 113.4,176.4 115.2,175.3 	"></polygon><path class="st7" d="M114.4,141.9l0.6,34c0,1.2,1,2.1,2.2,2.1c0.3,0,0.6-0.1,0.9-0.2l28.9-14.4c1-0.5,1.6-1.5,1.6-2.6l-0.6-34
		c0-1.3-1.1-2.3-2.4-2.3c-0.3,0-0.7,0.1-1,0.3L116,139.4C115,139.8,114.4,140.8,114.4,141.9z"></path><polyline class="st7" points="139.5,164.9 133.6,178.5 128.3,169 	"></polyline><path class="st5" d="M136.8,138.8c1.8-1,3.7-0.2,4.2,2.2c0.5,2.8-0.6,6.4-1.8,9.4c-1.2,3.2-2.6,6.3-4.1,9.3c-0.1,0.3-2,4.2-2.2,4.3
		s-0.6-0.3-0.8-0.4c-0.7-0.4-1.3-0.8-1.9-1.2c-2.5-1.5-4.6-3.8-5.9-6.5c-1.2-2.6-1.9-6.5,0.7-9.7c0.5-0.6,1.1-1.1,1.8-1.5
		c1.1-0.7,2.5-0.7,3.6-0.1c1.1,1,1.9,2.3,2.1,3.8c0.3-2.6,1.1-5,2.3-7.3C135.2,140,136,139.3,136.8,138.8z"></path></g><g id="person"><path class="st8" d="M306.1,236c-0.8-2-2.7-3.6-4.1-5.2c-1.6-1.5-2.7-3.5-3.2-5.6c-0.2-1.1,1.2-15.2,1.5-15.1
		c-3.5-0.8-8.9-2.3-10.7-5.5c-1.4,6.8-4.4,22.1-4,22.9c0.6,1.1,3.5,2.7,3.5,2.7l1-8.4l0.2,8.2c0.2,0.7,0.6,1.3,1.1,1.9
		c0.8,0.8,1.8,1.4,2.8,1.9c1.9,1.2,3.9,2.2,6,2.9c1.5,0.5,5,1.3,6-0.5C306.1,236.1,306.1,236.1,306.1,236z"></path><path class="st8" d="M319.7,227.4c-0.8-2-2.7-3.6-4.1-5.2c-1.6-1.5-2.7-3.5-3.2-5.6c-0.3-1.1,1.2-15.2,1.5-15.1
		c-3.5-0.8-8.9-2.3-10.7-5.5c-1.4,6.8-4.4,22.1-4,22.9c0.6,1.1,3.5,2.7,3.5,2.7l1-8.4l0.2,8.2c0.2,0.7,0.6,1.3,1.1,1.9
		c0.8,0.8,1.8,1.4,2.8,1.9c1.9,1.2,3.9,2.2,6,2.9c1.5,0.5,5,1.3,5.9-0.5L319.7,227.4z"></path><path class="st6" d="M298.6,111.1c0,0,11,17.2,13.8,19.3c0,0-8.7,2.7-9.1,9.3c0,0-10-6.1-12.2-9.5S298.6,111.1,298.6,111.1z"></path><path class="st9" d="M294.6,130c0,0,24.9,13.5,27.1,26.2s-2.8,47.4-6.4,49.2c0,0-12.4-0.8-15.2-11.3c0,0,2-15.6,4.6-26.1
		c0,0-13.7-2.6-21.1-11.3c-4.4-5.2-3-26.1,0.5-27.9S295.2,117.3,294.6,130z"></path><path class="st3" d="M294.6,130c0,0,24.9,13.5,27.1,26.2s-2.8,47.4-6.4,49.2c0,0-12.4-0.8-15.2-11.3c0,0,2-15.6,4.6-26.1
		c0,0-13.7-2.6-21.1-11.3c-4.4-5.2-3-26.1,0.5-27.9S295.2,117.3,294.6,130z"></path><path class="st9" d="M289.5,134.4c0,0,17.4,10.5,19.6,23.1s-5.1,55.6-8.6,57.3c0,0-11,2.2-13.8-8.3c0,0,1.7-28.2,4.2-38.7
		c0,0-10.4-5.9-17.8-14.6c-4.4-5.2-1.7-20.1,1.8-21.9S290,121.8,289.5,134.4z"></path><path class="st6" d="M271.3,137.5c0,0-1.2-22.2,4.8-29.9s18.1-10.7,21.2-8.9s3.3,37.8-1.9,38.8
		C281.5,140.2,271.3,137.5,271.3,137.5z"></path><path class="st6" d="M282.8,111.1c-0.1,0.5-2.5,11.4,4.5,17.4c3.4,3.1,7.1,5.9,11,8.3c0,0-8.7,9.7-8.4,12.5c0,0-27.1-8.9-19.4-38.6
		"></path><path class="st10" d="M294.9,88.9c0,0,1.4,13.8-4.8,16.1c-4.6,1.7-7.2-4.3-7.6-7.9c-0.3-4.3,1.6-8.5,5.2-10.9
		C290.7,84.1,294.5,84.7,294.9,88.9z"></path><path class="st8" d="M284.9,92.6c0,0,1.2-0.5,1.8,0s-0.6,2.6,1.1,2.8s6.3,0.3,9.2-2.8s-0.1-11-6-11.8s-14.7,4.2-16.2,12.5
		s-1.3,8.7-4,11.1s-6,2.4-4.3,6.9s7,2.8,6.9,6.8s5.1,8.4,11,5.4s5-9.3,1.4-12.2S281.5,95.7,284.9,92.6z"></path><polyline class="st8" points="300,155.9 286,147.7 310.8,131.5 324,136.7 	"></polyline><path class="st11" d="M300,154.4c-0.2-1,6.7-20.6,6.7-20.6l28.6-16.3l-8.8,22.3l-26.6,16V154.4z"></path></g><g id="like1"><linearGradient id="SVGID_00000145777834343838535500000010131759616229858708_-R12mXlcFtF" gradientUnits="userSpaceOnUse" x1="253.1892" y1="147.8914" x2="208.5592" y2="120.6114" gradientTransform="matrix(1 0 0 -1 0 502)"><stop offset="0" style="stop-color: rgb(234, 117, 84);"></stop><stop offset="1" style="stop-color: rgb(255, 199, 69);"></stop></linearGradient><path d="
		M309.5,338.5l-32.4-8.5l-83.6,41.8c0,0,8.7,13.6,21.4,21C222.9,387.1,293,348,309.5,338.5z" style="opacity: 0.46; fill: url(&quot;#SVGID_00000145777834343838535500000010131759616229858708_-R12mXlcFtF&quot;);"></path><polygon class="st2" points="314.9,335.4 314.9,289.4 302.8,282.4 280.3,294.8 280.3,340 293,348 	"></polygon><polygon class="st2" points="314.9,289.4 292.9,302 292.9,348 314.9,335.4 	"></polygon><polygon class="st2" points="292.9,302 280.3,294.8 302.8,282.4 314.9,289.4 	"></polygon><polygon class="st3" points="314.9,335.4 314.9,289.4 302.8,282.4 280.3,294.8 280.3,340.1 293,348 	"></polygon><polygon class="st3" points="314.9,289.4 292.9,302 292.9,348 314.9,335.4 	"></polygon><polygon class="st4" points="292.9,302 280.3,294.8 302.8,282.4 314.9,289.4 	"></polygon><path class="st2" d="M287.2,304.3l-12.2-7.2l-2.5,0.9l-4-17.9l-12.3-6.7c0,0-7.5,3.9-9.6,11.8s-0.6,18.9,1.1,22.3l-20.6,12.5
		c0,0-7.7,6.1-0.9,13c0,0-6.6,2.9-6.5,8.7s4.7,6.8,4.7,6.8s-3.2,2.2-2.2,7.1s2.6,5.7,2.6,5.7s-3.1,1.4-1.8,5.5s18.1,10,18.1,9.4"></path><path class="st5" d="M287.2,304.3c0,0-2.6,2.1-3.8,1.9s-10.1-5.8-11.9-14.5s-0.1-12.7-5.9-11.6s-11.4,24.2-4.9,34.5
		c0,0-21.4,12.6-21.7,12.8s-4.1,4.4-3.1,8.7s3.1,3.7,3,3.9s-7.6,2.9-6.8,10.1s6.1,3.9,6.1,3.9s-6.6,3.6-3.9,9.5s8.5,0.1,8.1,0.4
		s-4.5,3.4-3.5,8.5s5.4,2.7,5.4,2.7l37.8-22.4c0,0,5.3-13,4.9-14.3S287.2,304.3,287.2,304.3z"></path></g><g id="plant"><linearGradient id="SVGID_00000056425060116684542190000008032296818963842476_-R12mXlcFtF" gradientUnits="userSpaceOnUse" x1="414.1635" y1="244.9644" x2="383.7035" y2="217.0044" gradientTransform="matrix(1 0 0 -1 0 502)"><stop offset="0" style="stop-color: rgb(234, 117, 84);"></stop><stop offset="1" style="stop-color: rgb(255, 199, 69);"></stop></linearGradient><path d="
		M422.6,273.7L405,259.6l-48,25.3c0,0,13.2,8.1,25.9,15.5C390.8,294.6,412.2,285.3,422.6,273.7z" style="opacity: 0.46; fill: url(&quot;#SVGID_00000056425060116684542190000008032296818963842476_-R12mXlcFtF&quot;);"></path><path class="st2" d="M391.6,243.4c0,0-3.5,30,12.4,35.8s24.3-9.3,24.6-35.8"></path><path class="st14" d="M391.6,243.4c0,0-3.5,30,12.4,35.8s24.3-9.3,24.6-35.8"></path><ellipse class="st7" cx="410.1" cy="243.4" rx="18.5" ry="10.7"></ellipse><path class="st15" d="M414.9,219.6c0,0-7.3-10.5-4.1-17.7c0,0,2.6-4.6,6.3-5.4c0,0-0.4,9.9,3.3,8.7s0-10.4,0-10.4s3.9-5.2,8.1-5.1
		s0,9.3,3,7.8s0.2-9.3,3.5-10.2c3-0.7,6.1-1.2,9.2-1.5c0,0,3.1,9.1,0,10.4s-7.8,1.7-5.5,3.7s8.5-0.3,8.5-0.3s0.4,5.1-1.8,7.3
		s-14.7-2.7-12.5,1.7s10.5,2.2,10.5,2.2s-4.2,6.1-9.2,8.8S414.9,219.6,414.9,219.6z"></path><path class="st15" d="M416.5,245.8c0,0-5.2-5.2-4.2-9.6c0,0,1-2.9,3-3.7c0,0,0.9,5.7,2.8,4.6s-1.1-5.9-1.1-5.9s1.6-3.4,4.1-3.8
		s1,5.3,2.5,4.1s-0.9-5.3,0.9-6.2c1.7-0.7,3.3-1.3,5.1-1.8c0,0,2.8,4.8,1.1,5.9s-4.2,1.8-2.8,2.7s4.8-1.1,4.8-1.1s0.8,2.9-0.2,4.3
		s-8.6,0-6.9,2.3s6.2,0.1,6.2,0.1c-1,2.3-2.5,4.3-4.3,6C425,245.9,416.5,245.8,416.5,245.8z"></path><path class="st15" d="M397.3,234.6c0,0-12.7,0.5-17.1-6.1c0,0-2.5-4.7-1.2-8.2c0,0,8.2,5.6,9.1,1.8s-8.8-5.6-8.8-5.6
		s-2.4-6.1,0.1-9.6s7.8,5,8.1,1.7s-7.7-5.1-6.7-8.4c1-2.9,2.3-5.8,3.7-8.6c0,0,9.3,2.2,8.7,5.6s-2.7,7.5,0.2,6.7s4.3-7.3,4.3-7.3
		s4.5,2.4,5.2,5.4s-10.1,11-5.3,11.4s7.5-7.7,7.5-7.7s2.8,6.9,2.5,12.5S397.3,234.6,397.3,234.6z"></path><path class="st8" d="M441.5,189.8c-1.3,1.1-2.7,2.3-4.1,3.5c0.1-1.4,0.3-2.9,0.5-4.3c0.1-0.8-1-1.1-1.2-0.3
		c-0.3,1.9-0.5,3.8-0.7,5.8c-3.6,3.1-7.1,6.4-10.4,9.9c-0.3-2.4-0.4-4.9-0.2-7.4c0-0.8-1.2-0.8-1.2,0c-0.2,2.8,0,5.7,0.4,8.5
		c-2.1,2.3-4.1,4.7-5.9,7.1c-2.1-2.9-3.5-6.1-4.1-9.6c-0.1-0.8-1.3-0.4-1.2,0.3c0.7,3.7,2.2,7.2,4.5,10.2c0,0,0.1,0.1,0.1,0.1
		c-5.3,7.5-8.9,15.9-9.2,25.6c0,0.8,1.2,0.8,1.2,0c0.3-9.4,3.8-17.5,8.9-24.8c4.9,1.3,9.9,1.8,14.9,1.5c0.8,0,0.8-1.2,0-1.2
		c-4.8,0.3-9.5-0.1-14.2-1.3c2.5-3.4,5.3-6.7,8.4-9.7c0,0,0.1,0,0.1,0c2.8,0.2,5.6,0.5,8.4,0.6c1.8,0.1,3.6,0.2,5.2-0.6
		c0.7-0.3,0.1-1.4-0.6-1c-1.9,1-4.6,0.5-6.7,0.3c-1.8-0.1-3.6-0.3-5.3-0.4c4.3-4.2,8.9-8.2,13.3-12
		C442.9,190.2,442,189.3,441.5,189.8z"></path><path class="st8" d="M404.2,213.2c0.1-0.3-0.1-0.7-0.4-0.7c-0.3-0.1-0.7,0.1-0.7,0.4c-1.3,4.4-4,8.3-7.7,11.1
		c-1.3-3.8-2.6-7.6-3.7-11.5c2.9-2.9,5.3-6.3,7-9.9c0.3-0.7-0.7-1.3-1-0.6c-1.6,3.4-3.8,6.5-6.4,9.2c-1.3-4.4-2.4-8.9-3.3-13.4
		c-0.2-0.8-1.3-0.4-1.2,0.3c1.3,6.2,2.9,12.3,4.7,18.3c-2.3-0.4-4.5-1.2-6.6-2.1c-0.7-0.3-1.3,0.7-0.6,1c2.4,1.1,5,2,7.6,2.4l0,0
		c1.3,4,2.7,7.9,4.2,11.7c-3.6-0.1-7.1-0.9-10.5-2.3c-0.7-0.3-1.3,0.7-0.6,1c3.6,1.6,7.6,2.4,11.5,2.5c1.9,4.8,4,9.6,6.4,14.2
		c0.4,0.7,1.4,0.1,1-0.6c-3.1-6.2-5.8-12.6-8.2-19.1l0,0C399.8,222.2,402.8,218,404.2,213.2z"></path><path class="st8" d="M426,228.8c-1.1,1.9-2.2,3.7-3.3,5.6c-0.4-0.5-0.8-1.1-1-1.7c-0.3-0.7-1.4-0.1-1,0.6c0.4,0.8,0.8,1.5,1.4,2.2
		h0l-3.6,6c-0.4-0.4-0.7-0.9-0.7-1.4c-0.1-0.8-1.3-0.8-1.2,0c0.1,1,0.6,1.9,1.3,2.5c-1.5,2.5-3,5-4.5,7.5c-0.1,0.3,0.1,0.7,0.4,0.8
		c0.2,0.1,0.5,0,0.6-0.2c2-3.3,4-6.6,5.9-9.9c1,0,2-0.1,2.9-0.4c0.7-0.2,0.4-1.4-0.3-1.2c-0.6,0.2-1.2,0.3-1.9,0.4
		c2-3.3,4-6.7,6-10.1c0.1-0.3-0.1-0.7-0.4-0.7C426.4,228.5,426.2,228.6,426,228.8z"></path></g></svg>