<svg transform="scale(1)" version="1.1" id="i4du7c0y1d" xmlns="http://www.w3.org/2000/svg" xmlns:xlink="http://www.w3.org/1999/xlink" x="0px" y="0px" viewBox="0 0 500 500" xml:space="preserve" class="pbimage_pbimage__wrapper__image__0LEis false"><title>Quality Check</title><style type="text/css"> .st0{fill:#E29D64;} .st1{fill:url(#SVGID_1_-i4du7c0y1d);} .st2{fill:url(#SVGID_00000116207386378181216800000017994179021851292851_-i4du7c0y1d);} .st3{fill:#68E1FD;} .st4{fill:#FDF2D6;} .st5{fill:#7F252B;} .st6{opacity:0.7;enable-background:new;} .st7{fill:#BA5038;} .st8{fill:#FE6162;} .st9{fill:#FAB965;} .st10{fill:#FFFFFF;}
 .st10{fill:#FFFFFF;}
 .st9{fill:#FAB965;}
 .st8{fill:#FE6162;}
 .st7{fill:#BA5038;}
 .st5{fill:#7F252B;}
 .st4{fill:#FDF2D6;}
 .st3{fill:#68E1FD;}
 .st0{fill:#E29D64;}</style><ellipse class="st0" id="Base" cx="248.2" cy="348.4" rx="205.1" ry="79.2"></ellipse><g id="Shadow"><linearGradient id="SVGID_1_-i4du7c0y1d" gradientUnits="userSpaceOnUse" x1="168.9031" y1="146.1172" x2="126.1431" y2="98.8972" gradientTransform="matrix(1 0 0 -1 0 502)"><stop offset="0" style="stop-color: rgb(140, 98, 57);"></stop><stop offset="1" style="stop-color: rgb(226, 157, 100);"></stop></linearGradient><path class="st1" d="M144.9,413l37.5-24.8L146,359.6l-52.5,32.3C96.6,394,141.8,410.8,144.9,413z"></path><linearGradient id="SVGID_00000109742170674335671000000001860010720118357146_-i4du7c0y1d" gradientUnits="userSpaceOnUse" x1="337.3613" y1="234.1579" x2="241.8413" y2="128.6779" gradientTransform="matrix(1 0 0 -1 0 502)"><stop offset="0" style="stop-color: rgb(140, 98, 57);"></stop><stop offset="1" style="stop-color: rgb(226, 157, 100);"></stop></linearGradient><path d="M273.2,416.6l106-65.9l-123-70.6
		l-99.1,57.6C166,343.8,264.5,410.3,273.2,416.6z" style="fill: url(&quot;#SVGID_00000109742170674335671000000001860010720118357146_-i4du7c0y1d&quot;);"></path></g><g id="Pencil"><path class="st3" d="M233.1,374.8c-0.6-0.8-2.6-4.2-3.2-5l-34-205c0,0,14.8,2,16.8-3.2l36.1,203.8c-0.4,3.1-0.7,6.2-0.9,9.3
		l-11.4,4.3C235.6,377.4,234.4,376,233.1,374.8z"></path><path class="st4" d="M229.9,369.8c0,0,12.7,4.9,19-5.4l-0.9,35.8L229.9,369.8z"></path><path class="st5" d="M247.9,400.1l0.5-19.4c0,0-3.2,5-10.6,2.4L247.9,400.1z"></path><ellipse class="st3" transform="matrix(0.9824 -0.1867 0.1867 0.9824 -26.8707 41.0183)" cx="204.3" cy="163.2" rx="8.6" ry="4.8"></ellipse><ellipse class="st6" transform="matrix(0.9824 -0.1867 0.1867 0.9824 -26.8707 41.0183)" cx="204.3" cy="163.2" rx="8.6" ry="4.8"></ellipse></g><g id="Character"><path d="M151.5,378.9l-7.2-2l1.1-8.9C145.4,368,153.2,369.3,151.5,378.9z"></path><path class="st4" d="M141.6,353.2c0,0-2.6,29.9-1.9,30.2s7.7,1,7.7,0.4s0.4-13.6,0.4-13.6s3.5,5.8,3.7,8.7c0,0,8.3-4.8,9.9-8.6
		s-3.6-19.7-5.5-20.6"></path><path d="M169.5,394.5l-8.2-8.7l5.4-6.8C166.6,379,171.6,390,169.5,394.5z"></path><path class="st4" d="M157.3,360l-3.8,35.8c0,0,6.2,2.1,7.3,1.9c1.6-0.5,3-1.2,4.4-2.1l1.4-12c0,0,3.6,3.5,2.9,10.8
		c0-0.5,5.7-2.4,6.4-2.7c2.3-1,4.5-2.2,6.6-3.6c2.2-1.5,10.3-8.2,5.9-10.9c-3.7-2.3-15.7-1.2-15.7-1.2l-0.2-14.8"></path><path class="st7" d="M142.9,231.6c0.1-0.5-0.2-0.9-0.7-1c-0.1,0-0.1,0-0.2,0c1.3-4.1,2.6-7.2,4-8.8l34.7-4.1c0,0,7,24.8,9.6,67.5
		c2.1,33.1-14.2,82.4-14.2,82.4s-16.8,4.3-24.9-4l0.3-7.1c-4.2,0-8.4-0.4-12.5-1C135,314.2,138.2,272.5,142.9,231.6z"></path><path d="M150.4,361.6l4.4-30.7c1.4-9.8,3.5-19.8,3.6-29.8c0-9.7-3.4-18.8-5-28.2c-1.6-9.1-2-18.5-1.2-27.7c0.2-2.2,3.3-2.2,3.1,0
		c-0.9,10.3-0.2,20.8,1.9,30.9c1.9,9.1,4.6,17.7,4.2,27.2s-2.3,19.1-3.6,28.5c-1.5,10.2-2.9,20.4-4.4,30.7
		C153.1,364.6,150.1,363.7,150.4,361.6z"></path><path class="st8" d="M186.9,204.2c1.1-1.2,2.2-2.3,3.3-3.4l0.1-0.1c2.9-3.6,6.1-6.9,9.5-10l4.4-9.5l0,0c0.3-0.7,1.1-1.1,1.8-0.9
		c0.2,0.1,0.4,0.2,0.6,0.4c1.2,1,0.1,5.2-0.3,6.4c-0.5,1.5,0.4-1-0.2,0.5c-0.1,0.2-0.3,1.4-0.6,1.5c2.6-1.3,5.5-2.1,8.5-2.2
		c0.9,0,1.5,0.7,1.5,1.6c0,0.3-0.1,0.5-0.2,0.7c-0.3,0.5-0.8,0.9-1.3,1.2l0.3-0.1c2.1-0.3,3.6,0.6,3,2.9c0,0.2-0.1,0.4-0.3,0.6
		c-0.1,0.5-0.5,0.8-0.9,0.9c0,0.1,0.1,0.2,0.1,0.3c0.5,0.4,0.8,1,0.8,1.7c-0.1,1.3-1.2,2.2-2.5,2.1l-0.8,0.1
		c0.3,2.1-1.6,3.2-3.5,3.5c-2.2,0.4-4.4,0.6-6.6,1l-4.1,5.2c-1.1,1.4-2.7,4.6-4.6,4.9s-2.8-2.6-0.8-3c-0.4,0.1,0.2-0.4,0.4-0.6
		c0.4-0.5,0.8-0.9,1.1-1.4c-1,1.3-2.3,2.4-3.7,3.3c-0.8,0.4-1.7,0.1-2.1-0.6c-0.2-0.3-0.2-0.7-0.1-1.1c0.3-1.2,0.8-2.3,1.3-3.4
		c-0.3-0.2-0.5-0.5-0.6-0.9c-0.1,0-0.1,0.1-0.2,0.1c-0.3,0.2-0.6,0.4-1,0.4l-0.2,0.2C187.7,207.9,185.5,205.7,186.9,204.2z"></path><path class="st9" d="M157.2,167.2c0,0,20-1.8,24.7,8.8s2.4,25.6,2.4,25.6l12.2-9.3c0,0,6,7.3,6.7,11.7s-11.4,17.9-23.6,20.9
		s-34.2,3.9-37.6-3.5s-3.7-29.5,0.3-38S157.2,167.2,157.2,167.2z"></path><path class="st8" d="M174.9,148.6c0,0,1,14.7-3.5,18.1s-11.9-2.2-11.9-2.2"></path><path d="M171.2,141.2c2,1.5,3.5,3.6,4.4,5.9c3.7,9.2-6.2,20.7-15.1,22.5l-4.6-1.5c0,0-6.1-9-6.1-14c0-4.6,1.8-9.9,5.2-13.1
		C159.8,136.7,166.6,137.5,171.2,141.2z"></path><path d="M160.6,169.6c0,0,16.6,47.9,4.1,55.8s-37,0.7-32.2-11.2s23.5-46.1,23.5-46.1"></path></g><g id="Notepad"><polyline class="st7" points="251.3,58.8 261.9,56.4 378.7,123.2 376.8,351.8 372.4,354.3 	"></polyline><polygon class="st9" points="251.3,58.8 250,284.4 372.4,354.3 372.4,126.8 	"></polygon><polygon class="st4" points="255.6,71 255.6,281.2 366.9,342.4 366.9,133.5 	"></polygon><polyline class="st9" points="354,171.5 354,308 270.7,264.7 270.7,149.5 	"></polyline><path class="st3" d="M264.5,116.5l90.6,48.2c0,0,3.5,97.7-20.4,123.5l-81.4-43.5C253.3,244.7,281.4,177.3,264.5,116.5z"></path><rect class="st10" x="310.8" y="128.5" transform="matrix(0.4341 -0.9008 0.9008 0.4341 27.7645 373.618)" width="1" height="72.5"></rect><rect class="st10" x="310.8" y="142.4" transform="matrix(0.4341 -0.9008 0.9008 0.4341 15.2397 381.4877)" width="1" height="72.5"></rect><rect class="st10" x="310.8" y="157.5" transform="matrix(0.4341 -0.9008 0.9008 0.4341 1.6247 390.041)" width="1" height="72.5"></rect><rect class="st10" x="310.8" y="171.4" transform="matrix(0.4341 -0.9008 0.9008 0.4341 -10.9001 397.9108)" width="1" height="72.5"></rect><rect class="st10" x="310.8" y="182.4" transform="matrix(0.4341 -0.9008 0.9008 0.4341 -20.7934 404.1144)" width="1" height="72.5"></rect><rect class="st10" x="310.8" y="195.5" transform="matrix(0.4341 -0.9008 0.9008 0.4341 -32.6036 411.5444)" width="1" height="72.5"></rect><path class="st5" d="M274.4,141c-2.4,3.6-4.7,7.1-7.1,10.7c-1-1.1-2-2.1-2.9-3.3c-1.8-2.2-5.3,0.5-3.5,2.7c1.6,1.9,3.3,3.8,5.1,5.5
		c0.6,0.5,1.3,0.6,2,0.3c0.7,0,1.3-0.3,1.6-0.9c2.7-4.1,5.5-8.2,8.2-12.4C279.5,141.3,275.9,138.6,274.4,141z"></path><path class="st5" d="M273.2,161.5c-2.4,3.6-4.7,7.1-7.1,10.7c-1-1-2-2.1-2.9-3.3c-1.8-2.2-5.2,0.5-3.5,2.7c1.6,1.9,3.3,3.8,5.1,5.5
		c0.6,0.5,1.3,0.6,2,0.3c0.7,0,1.3-0.3,1.6-0.9l8.2-12.4C278.3,161.8,274.8,159.1,273.2,161.5z"></path><path class="st5" d="M273.2,182l-7.1,10.7c-1-1-2-2.1-2.9-3.3c-1.8-2.2-5.2,0.5-3.5,2.7c1.6,1.9,3.3,3.8,5.1,5.5
		c0.6,0.5,1.3,0.6,2,0.3c0.7,0,1.3-0.3,1.6-0.9c2.7-4.1,5.5-8.2,8.2-12.4C278.3,182.3,274.8,179.6,273.2,182z"></path></g></svg>