<svg transform="scale(1)" version="1.1" id="ngcrADAlLE" xmlns="http://www.w3.org/2000/svg" xmlns:xlink="http://www.w3.org/1999/xlink" x="0px" y="0px" viewBox="0 0 500 500" xml:space="preserve" class="pbimage_pbimage__wrapper__image__0LEis false"><title>Reminder Note</title><style type="text/css"> .st0{fill:#FFB3A6;} .st1{fill:#3E2928;} .st2{fill:#FF9676;} .st3{fill:#C9236D;} .st4{fill:#FF5AA1;} .st5{fill:#FFFFFF;} .st6{opacity:0.46;fill:url(#SVGID_1_-ngcrADAlLE);enable-background:new;} .st7{fill:#003B94;} .st8{fill:#68E1FD;} .st9{fill:#007F68;} .st10{opacity:0.46;fill:url(#SVGID_00000048495502520805332840000016855873544931355799_-ngcrADAlLE);enable-background:new;} .st11{opacity:0.3;fill:#606060;enable-background:new;}
 .st11{fill:#606060;}
 .st9{fill:#007F68;}
 .st8{fill:#68E1FD;}
 .st7{fill:#003B94;}
 .st5{fill:#FFFFFF;}
 .st4{fill:#FF5AA1;}
 .st3{fill:#C9236D;}
 .st2{fill:#FF9676;}
 .st1{fill:#3E2928;}
 .st0{fill:#FFB3A6;}</style><path class="st0" id="field" d="M256.9,412l215.7-127.5c6.9-3.9,12.8-10.2,6.1-14.3L262.1,145.4c-3.2-2-8.2-3.3-11.5-1.4L24.2,275.4
	c-6.9,4-8.1,15.1-1.2,19.1l205.4,117.3C237.2,416.9,248,417,256.9,412z"></path><g id="calendar"><path class="st1" d="M145.3,245.5l-74.8,42c-1.2,0.7-2.8,0.3-3.5-1c-0.4-0.7-0.4-1.4-0.2-2.1l37.3-101.9L145.3,245.5z" fill="#3E2928"></path><path class="st2" d="M104,185l29.2,142.5c0.6,2.7,3.3,4.4,6,3.8c0.5-0.1,0.9-0.3,1.3-0.5l166.6-96.1c1.9-1.1,2.8-3.2,2.4-5.4
		L278,88.2c-0.7-2.7-3.4-4.3-6-3.7c-0.4,0.1-0.8,0.3-1.2,0.5l-164.4,94.8C104.5,180.8,103.6,182.9,104,185z" fill="#FF9676"></path><path class="st3" d="M153.3,154.6c-3.4-4.3-7.7-5.6-12.9-3.4s-8.1,7.2-6.8,12.8l0,0c2-1.1,4.1-2.3,6.1-3.5c0.7-2.7,3.4-4.3,6.1-3.7
		c2.9,0.7,4.6,3.9,5.3,6.8c1.4,4.9-1.4,10.1-6.3,11.6c-0.4,0.1-0.9,0.2-1.3,0.3c-4,0.6-2.3,6.7,1.7,6.1
		C158.1,179.5,160.6,163.8,153.3,154.6z" fill="#C9236D"></path><path class="st3" d="M199.6,128.2c-3.4-4.3-7.7-5.6-12.9-3.4s-8.1,7.2-6.8,12.8l0,0c2-1.1,4.1-2.3,6.1-3.4c0.7-2.7,3.4-4.3,6.1-3.7
		c2.9,0.7,4.6,3.9,5.3,6.8c1.4,4.9-1.4,10.1-6.3,11.6c-0.4,0.1-0.9,0.2-1.3,0.3c-4,0.6-2.3,6.7,1.7,6.1
		C204.4,153.2,206.8,137.5,199.6,128.2z" fill="#C9236D"></path><path class="st3" d="M245.6,102.2c-3.4-4.3-7.7-5.6-12.9-3.4s-8.1,7.2-6.8,12.8l0,0c2-1.1,4.1-2.3,6-3.5c0.7-2.7,3.4-4.3,6.1-3.7
		c2.9,0.7,4.6,3.9,5.3,6.8c1.4,4.9-1.4,10.1-6.4,11.6c-0.4,0.1-0.9,0.2-1.3,0.3c-4,0.6-2.3,6.7,1.7,6.1
		C250.4,127.2,252.9,111.5,245.6,102.2z" fill="#C9236D"></path><path class="st3" d="M249.5,168.4h3c-0.6-0.3-1.3-0.6-1.9-0.6C249.6,167.8,249.5,168.4,249.5,168.4z" fill="#C9236D"></path><ellipse class="st3" cx="249.6" cy="157.3" rx="9.1" ry="11.1" fill="#C9236D"></ellipse><path class="st3" d="M249.4,146.2h2.7l-2.3,0.4L249.4,146.2z" fill="#C9236D"></path><ellipse class="st4" cx="252.3" cy="157.3" rx="9.1" ry="11.1" fill="#FF5AA1"></ellipse><path class="st5" d="M246.6,160.2l0.9-3.7c0,0,4.7,2.3,4.7,2.2s2.4-9.4,2.4-9.4l3.4,1.8l-3.8,12.6L246.6,160.2z" fill="#FFFFFF"></path><path class="st3" d="M259.7,201.1h3c-0.6-0.3-1.3-0.6-2-0.6C259.8,200.5,259.7,201.1,259.7,201.1z" fill="#C9236D"></path><ellipse class="st3" cx="259.8" cy="190" rx="9.1" ry="11.1" fill="#C9236D"></ellipse><path class="st3" d="M259.6,179h2.7l-2.3,0.4L259.6,179z" fill="#C9236D"></path><ellipse class="st4" cx="262.5" cy="190" rx="9.1" ry="11.1" fill="#FF5AA1"></ellipse><path class="st5" d="M256.9,193l0.9-3.6c0,0,4.7,2.3,4.7,2.2s2.4-9.4,2.4-9.4l3.4,1.8l-3.8,12.6L256.9,193z" fill="#FFFFFF"></path><path class="st3" d="M272.1,232.1h3c-0.6-0.3-1.3-0.6-2-0.6C272.2,231.5,272.1,232.1,272.1,232.1z" fill="#C9236D"></path><ellipse class="st3" cx="272.2" cy="221" rx="9.1" ry="11.1" fill="#C9236D"></ellipse><path class="st3" d="M272.1,209.9h2.7l-2.3,0.4L272.1,209.9z" fill="#C9236D"></path><ellipse class="st4" cx="275" cy="221" rx="9.1" ry="11.1" fill="#FF5AA1"></ellipse><path class="st5" d="M269.3,224l0.9-3.6c0,0,4.7,2.3,4.7,2.2s2.4-9.4,2.4-9.4l3.4,1.8l-3.8,12.6L269.3,224z" fill="#FFFFFF"></path><path class="st5" d="M153.4,207.9l67.1-39.1c1.6-1,3.7-0.4,4.7,1.2c0.3,0.5,0.5,1.1,0.5,1.8l0,0c0,1.2-0.6,2.4-1.7,3l-67.1,39.1
		c-1.6,1-3.7,0.4-4.7-1.2c-0.3-0.5-0.5-1.1-0.5-1.8l0,0C151.7,209.7,152.3,208.6,153.4,207.9z" fill="#FFFFFF"></path><path class="st5" d="M160.9,240.1L228,201c1.6-0.9,3.7-0.4,4.7,1.2c0.3,0.5,0.5,1.1,0.5,1.7l0,0c0,1.2-0.6,2.4-1.7,3L164.3,246
		c-1.6,0.9-3.7,0.4-4.7-1.2c-0.3-0.5-0.5-1.1-0.5-1.7l0,0C159.2,241.8,159.8,240.7,160.9,240.1z" fill="#FFFFFF"></path><path class="st5" d="M171.4,271.7l67.1-39.1c1.6-1,3.7-0.4,4.7,1.2c0.3,0.5,0.5,1.1,0.5,1.8l0,0c0,1.2-0.6,2.3-1.7,2.9l-67.1,39.1
		c-1.6,1-3.7,0.4-4.7-1.2c-0.3-0.5-0.5-1.1-0.5-1.8l0,0C169.7,273.4,170.4,272.3,171.4,271.7z" fill="#FFFFFF"></path></g><g id="person"><linearGradient id="SVGID_1_-ngcrADAlLE" gradientUnits="userSpaceOnUse" x1="1491.2863" y1="170.1143" x2="1446.7362" y2="121.2443" gradientTransform="matrix(-1 0 0 -1 1706.21 502)"><stop offset="0" style="stop-color: rgb(62, 41, 40);"></stop><stop offset="3.000000e-02" style="stop-color: rgb(62, 41, 40);"></stop><stop offset="1" style="stop-color: rgb(255, 255, 255); stop-opacity: 0;"></stop></linearGradient><path class="st6" d="M199.8,361.9l42.6-24.2l42.6,24.3c0,0-22.2,13.5-43.4,26C228.1,378.4,214.6,368.8,199.8,361.9z"></path><path class="st4" d="M235.6,192.8c5.9,5.1,10.4,11.6,13,19c4.6,12.6-6.8,33.1-6.8,33.1l-17.8-14"></path><path class="st7" d="M237.5,359.1l4.8-2.6l-1.2-6.9c0,0-7.2,0.7-7.8,3.2"></path><path class="st8" d="M235.7,359c-1.1-0.7-2.2-1.2-3.3-1.9c-2.8-1.5-6.8-3.1-8.5-6c-0.7-1.2-0.6-2.7,0.2-3.7c2.5-3,8,2,10.8-1.4
		c0.6-0.7,0.8-11.2,0.8-11.2l10.7,2.9c0,0,1.8,21.3,1.6,22.6s-3.9,2.6-3.9,2.6c-1.1-0.2-2.1-0.6-3.1-1.2c-1.1-0.8-0.1-10.8-1.5-9.4
		s-2.1,6.9-2.1,6.9C236.9,359.1,236.3,359.1,235.7,359z"></path><path class="st7" d="M217,369.3l4.8-2.7l-1.2-6.9c0,0-7.2,0.7-7.8,3.2"></path><path class="st8" d="M215.2,369.2c-1.1-0.7-2.2-1.2-3.3-1.9c-2.8-1.5-6.8-3.1-8.5-5.9c-0.7-1.2-0.6-2.7,0.2-3.7c2.5-3,8,2,10.9-1.4
		c0.6-0.7,0.8-11.2,0.8-11.2l10.7,2.9c0,0,1.8,21.2,1.6,22.6s-3.9,2.6-3.9,2.6c-1.1-0.2-2.1-0.6-3.1-1.2c-1.1-0.8-0.1-10.8-1.5-9.4
		s-2.1,6.9-2.1,6.9C216.4,369.4,215.8,369.3,215.2,369.2z"></path><path class="st1" d="M251.9,300.2l3.1,42.2c0,0-5,6.9-21.9,3.1l0,0l-0.2-28.5"></path><path class="st1" d="M232.4,308.6c0.4,3.6,0,43.7,0,43.7s-4.7,8.7-25,0l0.3-34.1"></path><path class="st1" d="M253.5,314.2c-1.4,1-1.9-4-3.3-3.1c-5.3,3.1-10.9,5.5-16.7,7.4l-0.1-0.1c-0.6-0.3-1.2,0-1.5,0.5c0,0,0,0,0,0
		c-3.6,1.1-7.2,1.9-10.9,2.5c-4.8,0.8-8.7-2.8-13.5-3c0.1-18.6-0.1-71.8,7.9-83l23.5-7.9c0.1,1.9,11.4,15,11.1,31
		c-0.3,18,2,34.9,2.4,40.5C252.4,300.1,253.5,313.1,253.5,314.2z"></path><path class="st4" d="M213.1,214l2.2,21.4c0,0,17.5,0.7,25.1-4.5v-18.1"></path><path class="st0" d="M190.8,200c0.6,0.8,1.2,1.6,1.8,2.4c-1-2-1.8-4-2.5-6.1c-0.5-1.4,1.8-2,2.3-0.6c0.1,0.2,0.2,0.5,0.3,0.7
		c-0.2-0.8-0.4-1.5-0.6-2.3c-0.2-0.6,0.2-1.3,0.8-1.4c0.6-0.2,1.3,0.2,1.4,0.9c0.5,2,1.1,3.9,1.8,5.8c-0.4-1.7-0.7-3.4-0.8-5.2
		c-0.1-1.5,2.2-1.4,2.3,0.1c0.2,2,0.6,3.9,1.1,5.9c0-0.7,0.1-1.3,0.2-2c0-0.3,0.2-0.6,0.5-0.8c0.1-0.3,0.2-0.5,0.2-0.8
		c0.2-0.6,0.8-1,1.5-0.8c0.5,0.2,0.8,0.6,0.8,1.1l0.1,8.9c0.4,0.9,1,1.8,1.6,2.5c-1.1,0.8-2.2,1.6-3.3,2.6c-0.9,0.8-1.8,1.7-2.7,2.6
		c-0.8-0.9-1.5-1.9-2.2-2.9c-0.1-0.1-0.2-0.2-0.2-0.2c-2.1-3.1-4.3-6.1-6.5-9.1C187.9,199.9,189.9,198.8,190.8,200z"></path><path class="st4" d="M224.2,194.5c0,0-8.3,2.2-11.6,7.6c-2.1,3.7-4,7.5-5.5,11.4l-6.1-9.5c0,0-7.4,2.3-10.4,5.9
		c0,0,8.8,19.2,16.5,20.9s15.8-11.4,15.8-11.4s6.2,4.2,5.9-1.6"></path><path class="st9" d="M219,215.1c2.4-2,4.2-4.5,5.2-7.5c1-3.4-0.3-6.4-1.4-9.5c-1.3-3.1-2-6.4-2.2-9.8c-0.1-3.3,0.3-6.6,0.5-9.9
		c0-0.1,0-0.3-0.1-0.4c1.1-3.7,3.4-6.9,7.8-7.2c11.6-1,12.2,11.8,12.1,17s-0.6,8.7,3.2,10.9s6.6,7.9,2.9,12.5s-0.4,2.9,2.1,7
		s1.8,9.2-3.2,11.1s-28.3-1.6-30.4-3.8c-0.8-0.9-1.2-2-1.1-3.1C214.9,219.4,216.7,217.2,219,215.1z"></path></g><g id="notif"><linearGradient id="SVGID_00000072977817090333525490000000159907580985619358_-ngcrADAlLE" gradientUnits="userSpaceOnUse" x1="338.5911" y1="244.9327" x2="398.0911" y2="220.4228" gradientTransform="matrix(1 0 0 -1 0 502)"><stop offset="0" style="stop-color: rgb(62, 41, 40);"></stop><stop offset="3.000000e-02" style="stop-color: rgb(62, 41, 40);"></stop><stop offset="1" style="stop-color: rgb(255, 255, 255); stop-opacity: 0;"></stop></linearGradient><ellipse cx="375.2" cy="272.2" rx="41.8" ry="13.4" style="opacity: 0.46; fill: url(&quot;#SVGID_00000072977817090333525490000000159907580985619358_-ngcrADAlLE&quot;);"></ellipse><path class="st3" d="M365.1,138.4l-4.9-0.2c-1.4,0.1-2.4,1.3-2.3,2.7c0.1,1.4,1.3,2.4,2.7,2.3l4.9,0.2c1.4-0.1,2.4-1.3,2.3-2.7
		C367.7,139.4,366.5,138.4,365.1,138.4z"></path><path class="st3" d="M367.7,129.4l-4.2-5.1c-1-1-2.6-1-3.5,0c-1,1-1,2.6,0,3.6l4.2,5c1,1,2.6,1,3.6,0
		C368.6,131.9,368.6,130.3,367.7,129.4z"></path><path class="st3" d="M376.9,123.6c-1.4-0.1-2.6,0.8-2.8,2.2c-0.2,1.7-0.5,3.4-0.7,5.1c-0.1,1.4,1,2.6,2.4,2.6
		c1.3,0.1,2.4-0.8,2.6-2.1c0.2-1.7,0.5-3.4,0.7-5C379.3,125,378.3,123.8,376.9,123.6C376.9,123.6,376.9,123.6,376.9,123.6z"></path><circle class="st3" cx="375.2" cy="229.9" r="13.8"></circle><path class="st8" d="M398.1,142.2c0,0-20.2-7.5-32.4,13.7s-9.5,23.1-23.5,33.8s-6.6,37.2,32.3,46.8s49.9-9,48.8-20.8
		s-7.9-12.6-4.4-39.9S398.1,142.2,398.1,142.2z"></path><path class="st11" d="M347.6,222.6c-1.9-3.6-3.1-7.9-1.8-11.9c1.2-3.8,4.3-6.6,7.4-8.8c4.2-3,9-5.1,12.9-8.5
		c4.7-4.3,6.5-10.1,7.4-16.3c0.8-5.4,1.1-10.8,2.9-16c1.3-3.5,3.3-6.8,5.8-9.6c2.8-3.4,7.7-8.9,12.8-10.2c-6.1-1.1-20-1.6-29.2,14.5
		c-12.1,21.2-9.5,23.1-23.5,33.8c-10.1,7.7-9.1,23.7,6.9,35.6C348.6,224.3,348.1,223.5,347.6,222.6z"></path><path class="st1" d="M359.1,168.1c0,0,3.3,15.2,25.6,19.5s32.1-3.2,33.8-8.4l-0.3,16.8c0,0-8,17.4-36.6,11.1s-29.4-20.2-30-26.1
		L359.1,168.1z"></path><circle class="st8" cx="397.6" cy="137.8" r="10"></circle></g></svg>