<svg transform="scale(1)" version="1.1" id="RdoWv9yuEx" xmlns="http://www.w3.org/2000/svg" xmlns:xlink="http://www.w3.org/1999/xlink" x="0px" y="0px" viewBox="0 0 500 500" xml:space="preserve" class="pbimage_pbimage__wrapper__image__0LEis false"><title>Diversity 1</title><style type="text/css"> .st0{fill:#383097;} .st1{fill:#68E1FD;} .st2{opacity:0.36;} .st3{fill:#312725;} .st4{fill:#FF8386;} .st5{fill:#FFFFFF;} .st6{fill:#C27A62;} .st7{opacity:0.5;fill:#312725;enable-background:new;} .st8{fill:#8EA7D9;} .st9{fill:#E5894A;} .st10{fill:#FCDED2;} .st11{fill:#FFAC73;}
 .st11{fill:#FFAC73;}
 .st10{fill:#FCDED2;}
 .st9{fill:#E5894A;}
 .st8{fill:#8EA7D9;}
 .st7{fill:#312725;}
 .st6{fill:#C27A62;}
 .st5{fill:#FFFFFF;}
 .st4{fill:#FF8386;}
 .st3{fill:#312725;}
 .st1{fill:#68E1FD;}
 .st0{fill:#383097;}</style><path class="st0" id="field" d="M258.2,411.2l222.1-124.6c5.1-2.9,6.9-9.5,4-14.6c-0.9-1.5-2.1-2.8-3.6-3.7L265.4,135
	c-3.3-2-7.5-2.1-10.9-0.2L19.6,271.1c-5.1,3-6.7,9.5-3.7,14.6c0.9,1.5,2.2,2.8,3.7,3.7L229,411C238,416.2,249.1,416.3,258.2,411.2z"></path><g id="race3"><path class="st1" d="M244.6,154l-31.7,19.2c0,0-6.3,1.1-7.7-4.6s-14.2-12.7-23.4-7.5s-0.8,12.5,9,13.6s9,3.5,6.9,6
		s-28.4,17.5-28.4,17.5l31.5,18.8c0,0,5.8,2.3,3.4,5.3s-8.8-4.4-16,2.9s7.3,13.8,16,12.7s9.2-4.6,9.2-7.3s2.5-3.8,5-2.7
		s38,20.6,38,20.6l29.5-17.8c0,0-13.5,0.8-18.8-6.1s-3.8-14.6,6.5-15.7s24.8,3.6,24.4,13.8l32.5-17.5l-37.3-21.7
		c0,0-5.3,16-25.1,11.7S256.6,176.8,282,176L244.6,154z" fill="#68E1FD"></path><path class="st1" d="M177.9,146.1v20c0,0,3.7,4.6,12.1,3.7s12-12.9,12-12.9" fill="#68E1FD"></path><path class="st1" d="M169.3,178.3v19.9l18.6,9l-1.3,3.3l-0.1,19.3c0,0,9.7,2.2,14.5,0s6.9-9.5,11.8-10s54.5,14.5,54.5,14.5
		l18.8-3.5v-19.9c0,0-25.1,11.9-33.9,0.2" fill="#68E1FD"></path><path class="st1" d="M330.7,205.1v-19.9L282,176v-20c0,0-15.9-0.4-16.1-0.3s-21.7,5.4-11.8,18.2s-6,24.2,8.3,26.5" fill="#68E1FD"></path><g class="st2"><path class="st0" d="M244.6,154l-31.7,19.2c0,0-6.3,1.1-7.7-4.6s-14.2-12.7-23.4-7.5s-0.8,12.5,9,13.6s9,3.5,6.9,6
			s-28.4,17.5-28.4,17.5l31.5,18.8c0,0,5.8,2.3,3.4,5.3s-8.8-4.4-16,2.9s7.3,13.8,16,12.7s9.2-4.6,9.2-7.3s2.5-3.8,5-2.7
			s38,20.6,38,20.6l29.5-17.8c0,0-13.5,0.8-18.8-6.1s-3.8-14.6,6.5-15.7s24.8,3.6,24.4,13.8l32.5-17.5l-37.3-21.7
			c0,0-5.3,16-25.1,11.7S256.6,176.8,282,176L244.6,154z"></path><path class="st0" d="M177.9,146.1v20c0,0,3.7,4.6,12.1,3.7s12-12.9,12-12.9"></path><path class="st0" d="M169.3,178.3v19.9l18.6,9l-1.3,3.3l-0.1,19.3c0,0,9.7,2.2,14.5,0s6.9-9.5,11.8-10s54.5,14.5,54.5,14.5
			l18.8-3.5v-19.9c0,0-25.1,11.9-33.9,0.2"></path><path class="st0" d="M330.7,205.1v-19.9L282,176v-20c0,0-15.9-0.4-16.1-0.3s-21.7,5.4-11.8,18.2s-6,24.2,8.3,26.5"></path></g><path class="st1" d="M244.6,134.1l-31.7,19.2c0,0-6.3,1.1-7.7-4.6s-14.2-12.7-23.4-7.5s-0.8,12.5,9,13.6s9,3.4,6.9,6
		s-28.4,17.5-28.4,17.5l31.5,18.8c0,0,5.8,2.3,3.4,5.3s-8.8-4.4-16,2.9s7.3,13.8,16,12.7s9.2-4.6,9.2-7.3s2.5-3.8,5-2.7
		s38,20.6,38,20.6l29.6-17.9c0,0-13.5,0.8-18.8-6.1s-3.8-14.6,6.5-15.7s24.8,3.6,24.4,13.8l32.5-17.5l-37.3-21.7
		c0,0-5.3,16-25.1,11.7s-11.5-18.4,13.8-19.2L244.6,134.1z" fill="#68E1FD"></path><path class="st3" d="M220.7,106.1c0.1-0.4,0.4-0.8,0.7-1c-1.1-2-0.8-4.4,0.6-6.2c0.5-0.5,1-0.8,1.7-1c0.3-1.4,1.1-2.7,2.3-3.5
		c0.1-2.3,1.5-4.3,3.6-5.2l0,0c0.3-0.2,0.7-0.3,1-0.5c0.3-0.1,0.7-0.1,1.1,0c0.4,0,0.7,0,1.1,0c1.7-3.3,5.8-4.6,9.1-2.9
		c0,0,0,0,0.1,0c0.3,0.1,0.5,0.3,0.8,0.5c0.2-0.2,0.4-0.4,0.6-0.6c1.6-0.9,3.5-1.1,5.2-0.6c1.6,0.1,3.1,1,4,2.4
		c0.1,0.2,0.2,0.4,0.3,0.7c1.6-0.8,3.6-0.3,4.7,1.2c0.4,0.5,0.7,1.1,0.8,1.7c1.1-0.1,2.1,0.2,3,0.7c1.3,0.9,2,2.4,1.8,4
		c0.2,0.2,0.4,0.5,0.6,0.8c1.6,0.4,2.9,1.4,3.8,2.8c0.5,0.9,0.7,1.9,0.6,2.9c1.9,0.3,3.4,1.8,3.6,3.8c0.2,1.3-0.3,2.5-1.3,3.3
		c0.9,1.4,0.9,3.1,0.1,4.5c-0.4,0.7-0.9,1.3-1.6,1.8c1.5,1.3,1.9,3.6,0.8,5.3c-0.7,1.2-1.9,1.9-3.2,2.1c0,0.1-0.1,0.2-0.1,0.3
		c-0.1,0.2-0.3,0.5-0.4,0.7c0.5,1.9,0.8,4.3-1.6,4.9c-0.8,0.2-1.6,0.2-2.4,0c-1,1.3-2.9,1.7-4.3,0.8l-0.6,0.2c-1,0.3-2-0.3-2.3-1.3
		c-0.4-1.6-0.4-3.3,0.2-4.9c-0.2-0.5-0.4-1-0.6-1.5c-0.3-0.3-0.4-0.6-0.5-1c-0.2-0.4-0.4-0.8-0.7-1.2c-0.3-0.4-0.6-0.8-1-1.2
		c-0.8,0.1-1.6-0.5-1.8-1.3c-0.3-1.1-0.2-2.2,0.2-3.2c-1.2-0.6-1.9-1.8-2.1-3.1c0-0.3,0-0.7,0-1c-0.8,0.3-1.6,0.2-2.4-0.1
		c-0.9-0.3-1.7-1-2.1-1.9c-1.5,1.7-3.9,2.2-5.9,1.3c-0.9-0.4-1.6-1.2-1.9-2.1c-0.7,0.4-1.6,0.6-2.4,0.6c-1,0-1.9-0.5-2.3-1.3
		c-0.4,0.4-0.8,0.6-1.3,0.8l-0.6,6.8c0,0.1,0,0.3-0.1,0.4c0.5,0.9,0.2,2.1-0.7,2.6c-0.4,0.2-0.9,0.3-1.3,0.2c-4.9-1.1-8-6.1-6.9-11
		L220.7,106.1z" fill="#312725"></path><path class="st4" d="M283.3,193.4c0,0-1.1-18.1-1.5-22.6c-0.4-4-1.7-21.8-12.8-27.4c-14-7.1-30.2-16.3-45.2-12
		c-12.1,3.5-16.3,45.4-16.1,48.2C207.8,184.7,245.4,211.3,283.3,193.4z" fill="#FF8386"></path><path class="st5" d="M259,140.9c0,0.8-14.4,16.8-16.8,15.4s-3.5-11.6-5-10.7s-6.9,7.4-7.7,6.9s1.2-17.8,2.8-20.7
		S259,134.5,259,140.9z" fill="#FFFFFF"></path><path class="st6" d="M229.6,103.6v16.1c0,4.6,1.9,17,9.4,16.6s15.3-9.2,15.3-11.2c0,0,7.6-4.8,3.3-8.4s-4.7,2.5-4.7,2.5
		s-2.3-3.4-2.5-12.6C243.4,107.5,236.2,106.5,229.6,103.6z" fill="#C27A62"></path><path class="st6" d="M254,137.3c-3.9,3.6-10.1,4.2-16,3.4c-0.9-0.1-1.6-0.7-1.7-1.6c-0.1-1.8-0.2-3.6-0.4-5.3l20-9.8l-1.6,12.7
		C254.3,136.9,254.2,137.1,254,137.3z" fill="#C27A62"></path><path class="st7" d="M240.3,140.9c-0.8,0-1.6-0.1-2.3-0.2c-0.9-0.1-1.6-0.7-1.7-1.6c0-0.9-0.1-1.9-0.1-2.8c4.2,0,11.7-1,15.7-8.8
		C250.9,133.8,246.4,138.9,240.3,140.9z" fill="#312725"></path><path class="st3" d="M260.7,199.4h-1.1c0.1-7.5,0.1-15.1,0-22.7c0-0.7,0.6-1.2,1.2-1.2c0.7,0,1.2,0.6,1.2,1.2
		c0.1,7.5,0.1,15,0,22.5L260.7,199.4z" fill="#312725"></path><path class="st3" d="M219.7,189.9L219.7,189.9l-0.2-0.1l-0.7-0.4L218,189l-0.6-0.4c0-9,0.3-17.9,0.8-26.9c0.1-1.6,2.6-1.6,2.5,0
		c-0.5,9.2-0.8,18.5-0.8,27.7C219.8,189.6,219.8,189.8,219.7,189.9z" fill="#312725"></path><path class="st3" d="M226,104.6c0.2-0.7,0.8-1.3,1.5-1.3c0-0.3,0-0.5,0-0.8c0.1-2.4,3.8-2.4,3.7,0c0,0.2,0,0.3,0.2,0.5
		c0.1-1,0.9-1.8,1.9-1.8c0.3-0.2,0.6-0.2,0.9-0.2c1,0,1.8,0.8,1.9,1.9c0,0.3-0.1,0.6-0.2,0.9c0.4,0.5,0.7,1,1.1,1.5s2.1,2,2.6,1.3
		l0,0c-0.7-0.7-0.7-1.9,0-2.6c0,0,0,0,0,0c0.3-0.3,0.8-0.5,1.2-0.5c0.3-0.4,0.8-0.6,1.3-0.6c1,0,1.9,0.8,1.9,1.9v0.2
		c1.2,0.4,2.5,0.3,3.7-0.2c0.2-0.1,0.3-0.1,0.5-0.1c0.1-0.2,0.2-0.4,0.3-0.5c0.5-0.9,1.7-1.1,2.6-0.7c0.9,0.5,1.2,1.7,0.7,2.5
		c-0.1,0.1-0.1,0.2-0.2,0.3l0,0c0.3-0.1,0.6-0.1,0.8,0c0.3-1,1.4-1.5,2.3-1.2c0.9,0.3,1.5,1.3,1.2,2.2c-0.3,1.3-1.3,2.4-2.5,2.9v0.4
		c0.9,0.1,1.6,0.9,1.5,1.9c0,0.3-0.1,0.6-0.3,0.8c-0.3,0.4-0.6,0.7-0.9,1l0.2,0.7c0,0.1,0.1,0.1,0.1,0.2c0.9,2.6,0.6,5.5-0.7,8
		c-0.5,0.9-1.7,1.2-2.6,0.6c-0.3-0.2-0.5-0.4-0.6-0.6c-1.2-2.4-1.7-5-1.6-7.6c-0.2-0.1-0.5-0.1-0.7-0.2c-1.4-0.5-2.5-1.6-3.1-3
		c-1.5-0.3-2.8-1.2-3.5-2.5c-0.9,0.6-2.1,0.8-3.2,0.6c-1.4-0.3-2.6-1.1-3.4-2.2c-0.9,1.5-2.5,2.3-4.2,2.3c-2.6-0.2-4.6-2.5-4.4-5.1
		C226,105,226,104.8,226,104.6z" fill="#312725"></path></g><g id="race2"><path class="st1" d="M139.3,238l-31.7,19.2c0,0-6.3,1.1-7.7-4.6s-14.2-12.7-23.4-7.5s-0.8,12.5,9,13.6s9,3.5,6.9,6
		S64,282.2,64,282.2L95.5,301c0,0,5.8,2.3,3.4,5.3s-8.8-4.4-16,2.9s7.3,13.8,16,12.7s9.2-4.6,9.2-7.2s2.5-3.8,5-2.7s38,20.6,38,20.6
		l29.6-17.9c0,0-13.4,0.8-18.8-6.1s-3.8-14.6,6.5-15.7s24.8,3.6,24.4,13.8l32.5-17.5L188,267.4c0,0-5.3,16-25.1,11.7
		s-11.5-18.4,13.8-19.1L139.3,238z"></path><path class="st1" d="M72.5,230.1v20c0,0,3.7,4.6,12.1,3.7s12-12.9,12-12.9"></path><path class="st1" d="M64,262.3v19.9l18.6,9l-1.3,3.3l-0.1,19.3c0,0,9.7,2.2,14.5,0s6.9-9.5,11.8-10s54.5,14.5,54.5,14.5l18.8-3.5
		v-19.9c0,0-25.1,11.9-33.9,0.2"></path><path class="st1" d="M225.4,289.1v-19.9l-48.7-9.2v-19.9c0,0-15.9-0.4-16.1-0.3s-21.7,5.4-11.8,18.2s-6,24.2,8.3,26.5"></path><g class="st2"><path class="st0" d="M139.3,238l-31.7,19.2c0,0-6.3,1.1-7.7-4.6s-14.2-12.7-23.4-7.5s-0.8,12.5,9,13.6s9,3.5,6.9,6
			S64,282.2,64,282.2L95.5,301c0,0,5.8,2.3,3.4,5.3s-8.8-4.4-16,2.9s7.3,13.8,16,12.7s9.2-4.6,9.2-7.2s2.5-3.8,5-2.7
			s38,20.6,38,20.6l29.6-17.9c0,0-13.4,0.8-18.8-6.1s-3.8-14.6,6.5-15.7s24.8,3.6,24.4,13.8l32.5-17.5L188,267.4
			c0,0-5.3,16-25.1,11.7s-11.5-18.4,13.8-19.1L139.3,238z"></path><path class="st0" d="M72.5,230.1v20c0,0,3.7,4.6,12.1,3.7s12-12.9,12-12.9"></path><path class="st0" d="M64,262.3v19.9l18.6,9l-1.3,3.3l-0.1,19.3c0,0,9.7,2.2,14.5,0s6.9-9.5,11.8-10s54.5,14.5,54.5,14.5l18.8-3.5
			v-19.9c0,0-25.1,11.9-33.9,0.2"></path><path class="st0" d="M225.4,289.1v-19.9l-48.7-9.2v-19.9c0,0-15.9-0.4-16.1-0.3s-21.7,5.4-11.8,18.2s-6,24.2,8.3,26.5"></path></g><path class="st1" d="M139.3,218.1l-31.7,19.2c0,0-6.3,1.1-7.7-4.6s-14.2-12.8-23.4-7.5s-0.8,12.5,9,13.6s9,3.4,6.9,6
		S64,262.3,64,262.3l31.5,18.8c0,0,5.8,2.3,3.4,5.3s-8.8-4.4-16,2.9S90.3,303.2,99,302s9.2-4.6,9.2-7.3s2.5-3.8,5-2.7
		s38,20.5,38,20.5l29.6-17.9c0,0-13.4,0.8-18.8-6.1s-3.8-14.6,6.5-15.7s24.8,3.6,24.4,13.8l32.5-17.5L188,247.5
		c0,0-5.3,16-25.1,11.7s-11.7-18.4,13.7-19.1L139.3,218.1z"></path><path class="st8" d="M101.5,273.8c0,0,1.1-17.3,1.5-21.6c0.4-3.9,1.7-20.9,12.3-26.3c13.5-6.8,29-15.6,43.3-11.5
		c11.6,3.3,15.6,43.6,15.5,46.3C173.9,265.4,137.8,290.9,101.5,273.8z"></path><path class="st5" d="M124.7,221.1c0,0-2.5,15.1,11.7,16.3c10,0.8,7.8-7.2,7.8-7.2s4.9,4,10,0.9s-3.3-15.1-7.1-15.9
		S133.9,214.6,124.7,221.1z"></path><circle class="st9" cx="121.5" cy="183.2" r="11.2"></circle><path class="st9" d="M153.5,192.5c1.8-2.2,2.8-5,2.9-7.9c0.2-1.4,0.1-2.8-0.2-4.1c-0.4-1.4-1.4-2.6-2.7-3.3c-1-0.6-1.9-1.4-2.7-2.2
		c0,0-29.3-5.7-32.7,11.4l0,0c-0.6,4.8-0.3,19.2,12.9,25.3s7.2-15.7,7.2-15.7"></path><path class="st10" d="M146.4,216.9l-17.5-8.6l1.5,12.2c0,0,0.1,0.2,0.4,0.6c3.2,2.9,8.1,3.8,12.9,3.5c1.1-0.1,1.9-0.9,2-2
		C145.9,220.7,146.1,218.8,146.4,216.9z"></path><path class="st10" d="M154.1,189.3c0,0,1-5.7-5.4-6.7c-1.7-0.3-3.4-0.3-4.4,1.3c-1.3,2-1.5,4.3-3.3,6c-1.9,1.6-4.5,2.1-6.9,1.1
		c0,1.9,0.2,3.3,2.6,4S152.3,193,154.1,189.3z"></path><path class="st9" d="M130.9,183.9c7-2.5,13.7-4,21.1-3c0.7,0.1,1.2,0.6,1.2,1.2c0.6-3,1.3-10.5-4.8-12.7
		c-7.6-2.9-20.3,0.7-23.8,7.6c-1.8,3.4-2.6,7.2-2.4,11C124.8,186.2,127.8,184.8,130.9,183.9z"></path><path class="st9" d="M146,220l-0.3,2.6c0,0-11.7-0.3-13.3-9.8L146,220z"></path><path class="st10" d="M154.1,188.8v15.4c0,4.4-4.4,16-9.1,16c-7.3,0-14.7-8.8-14.7-10.8c0,0-7.3-4.6-3.2-8.1s4.5,2.4,4.5,2.4
		s2.2-3.3,2.4-12C140.9,192.6,147.8,191.6,154.1,188.8z"></path><path class="st0" d="M164.5,269.4c0.7-0.4,1.4-0.9,2-1.3c-0.3-8.8-1.5-17.5-3.5-26c-0.4-1.5-2.7-0.9-2.3,0.6
		c2.1,8.8,3.3,17.9,3.5,27L164.5,269.4z"></path><path class="st0" d="M119.8,279.2c0.3,0,0.7,0,1,0.1l0.9-30.1c-0.1-0.7-0.6-1.1-1.3-1.1c-0.6,0.1-1,0.5-1.1,1.1l0,0l-0.9,29.9
		C118.9,279.1,119.4,279.1,119.8,279.2z"></path></g><g id="race1"><path class="st1" d="M361.4,239l-31.7,19.2c0,0-6.3,1.1-7.7-4.6s-14.2-12.7-23.4-7.5s-0.8,12.5,9,13.6s9,3.5,6.9,6
		s-28.4,17.5-28.4,17.5l31.5,18.8c0,0,5.8,2.3,3.5,5.3s-8.8-4.4-16,2.9s7.3,13.8,16,12.7s9.2-4.6,9.2-7.3s2.5-3.8,5-2.7
		s38,20.6,38,20.6l29.6-17.9c0,0-13.5,0.8-18.8-6.1s-3.8-14.6,6.5-15.7s24.8,3.6,24.4,13.8l32.5-17.6l-37.3-21.7
		c0,0-5.3,16-25.1,11.7s-11.7-18.4,13.7-19.1L361.4,239z"></path><path class="st1" d="M294.6,231.1v20c0,0,3.7,4.6,12.2,3.7s12-12.9,12-12.9"></path><path class="st1" d="M286.1,263.2v19.9l18.5,9l-1.3,3.3v19.2c0,0,9.7,2.2,14.5,0s6.9-9.5,11.8-10s54.5,14.5,54.5,14.5l18.8-3.6
		v-19.9c0,0-25.2,11.9-33.9,0.2"></path><path class="st1" d="M447.4,290v-19.9l-48.7-9.2V241c0,0-15.9-0.4-16.1-0.3s-21.7,5.4-11.8,18.2c9.9,12.7-6,24.2,8.3,26.5"></path><g class="st2"><path class="st0" d="M361.4,239l-31.7,19.2c0,0-6.3,1.1-7.7-4.6s-14.2-12.7-23.4-7.5s-0.8,12.5,9,13.6s9,3.5,6.9,6
			s-28.4,17.5-28.4,17.5l31.5,18.8c0,0,5.8,2.3,3.5,5.3s-8.8-4.4-16,2.9s7.3,13.8,16,12.7s9.2-4.6,9.2-7.3s2.5-3.8,5-2.7
			s38,20.6,38,20.6l29.6-17.9c0,0-13.5,0.8-18.8-6.1s-3.8-14.6,6.5-15.7s24.8,3.6,24.4,13.8l32.5-17.6l-37.3-21.7
			c0,0-5.3,16-25.1,11.7s-11.7-18.4,13.7-19.1L361.4,239z"></path><path class="st0" d="M294.6,231.1v20c0,0,3.7,4.6,12.2,3.7s12-12.9,12-12.9"></path><path class="st0" d="M286.1,263.2v19.9l18.5,9l-1.3,3.3v19.2c0,0,9.7,2.2,14.5,0s6.9-9.5,11.8-10s54.5,14.5,54.5,14.5l18.8-3.6
			v-19.9c0,0-25.2,11.9-33.9,0.2"></path><path class="st0" d="M447.4,290v-19.9l-48.7-9.2V241c0,0-15.9-0.4-16.1-0.3s-21.7,5.4-11.8,18.2c9.9,12.7-6,24.2,8.3,26.5"></path></g><path class="st1" d="M361.4,219.1l-31.7,19.2c0,0-6.3,1.1-7.7-4.6s-14.2-12.7-23.4-7.5s-0.8,12.5,9,13.6s9,3.5,6.9,6
		s-28.4,17.5-28.4,17.5l31.5,18.8c0,0,5.8,2.3,3.5,5.3s-8.8-4.4-16,2.9s7.3,13.8,16,12.7s9.2-4.6,9.2-7.3s2.5-3.8,5-2.7
		s38,20.5,38,20.5l29.6-17.9c0,0-13.5,0.8-18.8-6.1s-3.8-14.6,6.5-15.7s24.8,3.7,24.4,13.8l32.5-17.5l-37.3-21.7
		c0,0-5.3,16-25.2,11.7s-11.7-18.4,13.7-19.2L361.4,219.1z"></path><path class="st3" d="M401.2,279.3c0,0-1.1-18.4-1.6-23c-0.4-4.1-1.8-22.2-13.1-27.9c-14.3-7.2-30.8-16.6-46-12.2
		c-12.3,3.6-16.5,46.3-16.4,49.1C324.4,270.5,362.7,297.5,401.2,279.3z"></path><path class="st1" d="M378.7,224.6c-0.3-0.1-8.4,5.9-8.7,14.9s-1.7,45.8-1.7,45.8s-19.6-1.2-31.8-9.6c0,0,2.8-42.7,6.7-51.1
		s14.7-8.4,14.7-8.4L378.7,224.6z"></path><path class="st5" d="M378.7,224.6c-0.3-0.1-8.4,5.9-8.7,14.9s-1.7,45.8-1.7,45.8s-19.6-1.2-31.8-9.6c0,0,2.8-42.7,6.7-51.1
		s14.7-8.4,14.7-8.4L378.7,224.6z"></path><path class="st3" d="M347.3,191.9c-2.3-2.2-4-5.1-4.8-8.2c-1.8-5.7,1.2-14,7.4-14.8s8.1,2.5,8.1,2.5s23.2-4.1,26.8,14.1l0,0
		c0.6,5.1,3.4,23.5-11.6,27.6s-9.6-17.3-9.6-17.3"></path><path class="st11" d="M346.6,187.9v16.4c0,4.7,1.9,17.3,9.6,16.9s15.6-9.3,15.6-11.4c0,0,7.8-4.8,3.4-8.6s-4.7,2.6-4.7,2.6
		s-2.4-3.5-2.5-12.8C360.7,191.9,353.3,190.8,346.6,187.9z"></path><path class="st11" d="M371.5,222.2c-3.9,3.6-10.3,4.3-16.2,3.4c-0.9-0.1-1.6-0.8-1.8-1.7c-0.1-1.8-0.2-3.6-0.4-5.4l20.3-9.9
		l-1.6,12.9L371.5,222.2z"></path><path class="st9" d="M357.5,225.9c-0.8,0-1.6-0.1-2.4-0.2c-0.9-0.1-1.6-0.7-1.7-1.6c0-0.9-0.1-1.9-0.2-2.8c4.3,0,12-1,16-9
		C368.3,218.6,363.7,223.9,357.5,225.9z"></path></g></svg>