<svg transform="scale(1)" version="1.1" id="rAUwo4570C" xmlns="http://www.w3.org/2000/svg" xmlns:xlink="http://www.w3.org/1999/xlink" x="0px" y="0px" viewBox="0 0 500 500" xml:space="preserve" class="pbimage_pbimage__wrapper__image__0LEis false"><title>World Map</title><style type="text/css"> .st0{fill:#CBE8A6;} .st1{fill:url(#SVGID_1_-rAUwo4570C);} .st2{fill:url(#SVGID_00000160896028431366377100000010048327609875375512_-rAUwo4570C);} .st3{fill:url(#SVGID_00000031895031076435815680000006388535928518276790_-rAUwo4570C);} .st4{fill:#68E1FD;} .st5{opacity:0.72;} .st6{fill:#146666;} .st7{fill:#F2F2F2;} .st8{opacity:0.25;} .st9{fill:#FF7D09;} .st10{fill:#F8997C;} .st11{fill:#9E005D;} .st12{fill:#5ED18D;}
 .st12{fill:#5ED18D;}
 .st11{fill:#9E005D;}
 .st10{fill:#F8997C;}
 .st9{fill:#FF7D09;}
 .st7{fill:#F2F2F2;}
 .st6{fill:#146666;}
 .st4{fill:#68E1FD;}
 .st0{fill:#CBE8A6;}</style><polygon class="st0" id="Base" points="224.7,407.6 487.1,257.5 272.9,133.8 12.5,285.6 "></polygon><g id="Shadow_00000007428584764494752950000014787681747706764215_"><linearGradient id="SVGID_1_-rAUwo4570C" gradientUnits="userSpaceOnUse" x1="423.0119" y1="268.5502" x2="383.8986" y2="221.0555" gradientTransform="matrix(1 0 0 -1 0 502)"><stop offset="1.442308e-03" style="stop-color: rgb(0, 169, 157);"></stop><stop offset="1" style="stop-color: rgb(203, 232, 166);"></stop></linearGradient><polyline class="st1" points="432.1,263.5 382.9,291.7 354.3,275.8 397.1,250.2 406,250.6 	"></polyline><linearGradient id="SVGID_00000070100975792580506460000012427946245296662660_-rAUwo4570C" gradientUnits="userSpaceOnUse" x1="337.5978" y1="210.608" x2="298.9586" y2="163.6891" gradientTransform="matrix(1 0 0 -1 0 502)"><stop offset="1.442308e-03" style="stop-color: rgb(0, 169, 157);"></stop><stop offset="1" style="stop-color: rgb(203, 232, 166);"></stop></linearGradient><polyline points="341.5,316.9 291.9,347 
		274.8,337.4 304.5,319.7 326.5,312.3 	" style="fill: url(&quot;#SVGID_00000070100975792580506460000012427946245296662660_-rAUwo4570C&quot;);"></polyline><linearGradient id="SVGID_00000008137629690708713880000005426729471045550524_-rAUwo4570C" gradientUnits="userSpaceOnUse" x1="160.4982" y1="191.7999" x2="117.7015" y2="156.8867" gradientTransform="matrix(1 0 0 -1 0 502)"><stop offset="1.442308e-03" style="stop-color: rgb(0, 169, 157);"></stop><stop offset="1" style="stop-color: rgb(203, 232, 166);"></stop></linearGradient><polyline points="177.1,363.5 40.1,284.8 
		302.8,131.9 415,226.2 	" style="fill: url(&quot;#SVGID_00000008137629690708713880000005426729471045550524_-rAUwo4570C&quot;);"></polyline></g><g id="Map"><polygon class="st4" points="47.1,232.3 177,362.6 414.8,225.2 284,95.6 	"></polygon><g class="st5"><polygon class="st6" points="47.1,232.3 177,362.6 414.8,225.2 284,95.6 		"></polygon></g><path class="st7" d="M178,355.7L57.2,233.5l0.4-0.2l225-131.4l0.2,0.2l126,122.4l-0.4,0.2L178,355.7z M58.4,233.6l119.7,121.2
		l229.5-130.6L282.5,102.8L58.4,233.6z"></path><path class="st7" d="M236.1,171.5c0.1,0.3,0.4,1,0.3,1.2l-0.3,0.8l-5.2-6.7l0.8-0.3l0.6,1.6c0.1,0.3,0.9,0.6,1.1,0.7
		c0.5,0.3,1.2,2.3,1.6,2.3S236,170.9,236.1,171.5z"></path><path class="st7" d="M293,132.1l-0.5,0.6c-0.1-0.1-0.8-0.6-0.8-0.7c0.1-0.2,0.3-0.7,0.5-0.9l0,0l1.1-0.6c0.3-0.1,0.6,0,0.9,0
		c0,0.6-0.4,0.8-0.8,1.2h-0.1c0,0-0.1,0-0.2,0.1l-0.2,0.1C293.1,131.9,293.1,132.1,293,132.1z"></path><path class="st7" d="M291.8,192.3c0.2,0.5,0.4,1,0.5,1.5c-0.5-0.2-1-0.3-1.3-0.9c-0.3-0.4-0.3-1-0.1-1.4c0-0.1,0.1-0.1,0.1-0.2
		C291.4,191.2,291.6,192,291.8,192.3z"></path><path class="st7" d="M263.7,242.4c1.1,0.4,1.8,1.7,2.5,2.6c0.5,0.7,0.6,1.6,0.3,2.4c-0.2,0.3-0.6,0.8-0.7,1.2s0,1.1,0,1.6
		s-0.2,0.8,0.3,1.1c0.3,0.2,1.2,0.6,1.4,0.9s0.9,1.1,1,1.5s-0.5,1-0.7,1.2c-0.2,0.4,0,0.6,0.3,1.1c0.3,0.4,0.6,0.8,0.9,1.3
		c0.1,1,0.2,2,0.2,3.1c-0.1,0.5-0.2,1-0.3,1.5c0,0.3,0,1-0.2,1.2c-0.7,0.7-1.4,1.4-2.1,2.1c-0.3,0.3-0.6,0.6-1,1
		c-0.2,0.1-0.9-0.1-1.2-0.2c-0.8-0.1-0.8-0.1-1.2-0.9c-0.2-0.3-0.8-0.6-1.1-0.8l-1.8-1.2c-0.4-0.2-0.8-0.3-1.3-0.4
		c-0.3,0-0.8-0.8-1-1l-1.6-1.6c-0.7-0.6-1.6-1.2-2.5-1.6l-1.7-1c-0.2-0.1-0.4-0.6-0.6-0.8c-0.7-1-1.2-2.1-1.6-3.2
		c-0.2-1.1-1-1.6-1.9-2.4l-2.8-2.4c-0.3-0.2-0.6-0.3-1-0.4l16.2-9.9c0.1,0.9,0.3,2,0.5,2.1c0.6,0.2,1,0.6,1.3,1.1
		C262.7,242,263.2,242.3,263.7,242.4z"></path><path class="st7" d="M325.7,200.3c0.2,0,0.4,0,0.6,0.1s0.2,0.2,0.1,0.3c-0.2,0.1-0.3,0.1-0.5,0.1c-0.1,0-0.2-0.2-0.4-0.3
		c-0.2-0.1-0.4-0.2-0.5-0.4C325.3,200.1,325.4,200.4,325.7,200.3z"></path><path class="st7" d="M323.1,199.9l0.2-0.1c0.4,0.2,0.3,0.2,0.5,0.6l-0.4-0.2C323.4,200.1,323.2,200,323.1,199.9L323.1,199.9
		L323.1,199.9z"></path><path class="st7" d="M323,202.4c-0.4,0.3-0.9,0.3-1.4,0.1c0.1-0.1,0.1-0.1,0.2-0.2l0.2-0.1l0.2-0.1l0.1-0.1
		c0.2-0.1,0.1-0.5,0.2-0.5l0,0c0.1,0.2,0.2,0.3,0.2,0.2s0.4-0.8,0.4-0.8s-0.5-0.5-0.3-0.6h0.1c0.4,0,0.8,0.2,0.5,0.6
		c0.6,0.1,0,0.4,0.1,0.5c0,0.3-0.1,0.6-0.3,0.9C323.1,202.3,323.1,202.4,323,202.4z"></path><path class="st7" d="M323,199.9c-0.6-0.2-1.5,0.1-1.6-0.2c0.5,0,0.9,0,1.4,0.1L323,199.9L323,199.9z"></path><path class="st7" d="M118.2,259.5c0.2-0.1,0.5-0.2,0.6,0l0.2-0.1c0,0.1,0,0.2-0.1,0.3h-0.1c0.1,0.1,0.2,0.3,0.1,0.5
		c0,0,0,0-0.1,0.1c-0.2,0.1-0.1,0.5-0.2,0.6l0,0c-0.2,0.1-0.5,0-0.7-0.2s-0.2-0.5-0.1-0.6c0.1,0,0.1-0.1,0.2,0
		C117.9,259.9,118,259.7,118.2,259.5z"></path><path class="st7" d="M123.1,222.4c-0.2,0.1-0.3,0.3-0.4,0.4h-0.2c0-0.5,0.5-0.9,0.8-1.2c0.1-0.1,0.2-0.2,0.3-0.3
		c0.3-0.2,0.7-0.3,0.9-0.1s0.1,0.4-0.1,0.5c-0.1,0.1-0.3,0.2-0.5,0.2c-0.1,0-0.2,0.1-0.4,0.1c-0.1,0.1-0.1,0.3-0.2,0.3s-0.1,0-0.2,0
		C123.2,222.3,123.1,222.3,123.1,222.4z"></path><path class="st7" d="M131,227.1c-0.2-0.6,0.4-0.7,0.7-1c0.3,0,0.5-0.1,0.7,0.2c0.2,0.2,0.2,0.5,0.1,0.8l-0.1,0.1
		c-0.1,0.1-0.4,0-0.6-0.1C131.5,227,131.3,227,131,227.1z"></path><path class="st7" d="M130.4,222.6c-0.2,0.1-0.5,0.2-0.7,0.1c0-0.2,0.3-0.5,0.6-0.6c0.1-0.1,0.2-0.1,0.3-0.1
		C130.8,222.1,130.7,222.4,130.4,222.6z"></path><path class="st7" d="M304.2,215.6c0-0.1,0.1-0.1,0.2-0.1c0.2-0.1,0.5-0.2,0.5,0.2c0,0.1,0,0.2-0.1,0.3S304.4,215.9,304.2,215.6z"></path><path class="st7" d="M315.2,212.4c0,0.1-0.1,0.1-0.2,0.2c-0.1,0.1-0.3,0.1-0.5,0.2c-0.2-0.3-0.1-0.4,0-0.4l0.1-0.1l0.1-0.1
		c0.1,0,0.1-0.1,0.2-0.2c0,0,0,0,0-0.1C315.2,211.9,315.3,212.2,315.2,212.4z"></path><path class="st7" d="M205.8,186.4c-0.1,0.1-0.3,0.1-0.5-0.1l0.2-0.1c0.1-0.1,0.2-0.1,0.3-0.1l0.1-0.1c0.1-0.1,0-0.2,0.1-0.3
		c0.1,0.2,0,0.3,0,0.6S205.9,186.3,205.8,186.4z"></path><path class="st7" d="M206.3,185.6c0,0.6-0.2,1.1-0.7,1.5c0.1-0.1,0.1-0.3-0.1-0.4c0.2-0.1,0.5-0.3,0.6-0.5S206.1,185.8,206.3,185.6
		z"></path><path class="st7" d="M221.9,179.4c-0.7-0.2-0.7-0.5-0.5-0.9c0.3-0.1,0.7-0.1,1-0.1c0,0.2-0.2,0.8-0.4,0.9
		C222,179.4,221.9,179.4,221.9,179.4z"></path><path class="st7" d="M213.5,162.5c-0.1,0.2-0.1,0.4-0.1,0.6l-0.8,0.4c0.1-0.5,0.1-0.7,0.4-0.8C213.1,162.6,213.3,162.5,213.5,162.5
		z"></path><path class="st7" d="M209.7,164.2c-0.3,0.3-0.5,0.6-0.8,0.9c-0.3,0.1-0.6,0.2-0.9,0.2c0.3-0.5,0.7-0.9,1.1-1.2
		c0.2-0.1,0.4-0.2,0.6-0.2l0.2-0.1c0.2-0.2,0.5-0.4,0.6-0.7c0-0.1,0.1-0.1,0.2-0.1c0.3-0.1,0.6-0.1,0.9-0.1l-1.3,1.4l0.5,0.4
		c-0.5,0.3-1,0.5-1.5,0.6L209.7,164.2z"></path><path class="st7" d="M215.6,160.9h0.6c-0.2,0.1-0.3,0.3-0.4,0.4l0.3,0.1c-0.3,0.3-0.6,0.6-0.9,0.8c-0.2,0.1-0.4,0.2-0.6,0.1
		C214.1,161.9,215.5,160.9,215.6,160.9z"></path><g><path class="st7" d="M287.4,164.8c0-0.5-0.7-0.3-0.9-0.6c-0.2-0.4-0.4-0.8-0.7-1.1c-0.2-0.2-0.3-0.2-0.2-0.4c0,0,0-0.1,0.1-0.1
			h0.1h0.1c0,0,0,0,0-0.1c0.1-0.3-0.3-0.6-0.7-0.7c0-0.1,0.1-0.2,0.1-0.3c0.2-0.1,0.6,0.5,0.9,0.7c0.7,0.4,0.5,0.9,1.1,1.5
			c0.2,0.2,0.5,0.2,0.6,0.3s0.5,0.4,0.8,0.7l0.1,0.1l-1,0.6C287.7,165.2,287.5,165,287.4,164.8z"></path><path class="st7" d="M289.3,167.6c0-0.3-0.1-0.5-0.3-0.6c-0.5-0.4-0.6-0.3-0.8-0.9c-0.1-0.3-0.2-0.5-0.4-0.7l1-0.6
			c0.5,0.4,1,0.8,1.6,1.1c-0.3,0.2-0.7-0.4-1-0.2l0,0c-0.4,0.4-0.3,0.5,0,1.2c0.2,0.5,0.4,0.5,0.9,0.7s1.1,0.4,1,0.9
			c-0.2-0.2-0.5-0.5-0.8-0.4l0,0c-0.2,0.2,0.1,0.6,0.2,0.9c-0.5-0.3-0.5-0.5-0.9-1C289.6,168,289.3,167.8,289.3,167.6z"></path><path class="st7" d="M291.1,171.5l0.6-0.2c0-0.2-0.2-0.4-0.3-0.5c-0.2-0.2,0-0.5-0.2-0.7s-0.8-0.8-0.6-0.9s0.1,0,0.2,0
			c0.5,0.3,1,0.4,1.5,0.4c0.2,0,0.5,0,0.7-0.1c0.1-0.1,0.2-0.2,0.2-0.6c0.3,0.2,0.3,1,0.8,0.7l0,0c0,0.3-0.2,0.6-0.5,0.8l-0.1,0.1
			c-0.1,0.1-0.2,0.3-0.2,0.5l0.2,0.6c0,0,0,0,0,0.1c-0.4,0.1-0.7,0.1-1.1,0h-0.1c-0.1,0.1-0.2,0.2-0.2,0.4l0,0c-0.1,0-0.1,0-0.2,0
			s-0.2,0-0.2,0.1h-0.1c0.2,0.4,0.5,0.1,0.8,0.2s0.1,0.1,0,0.2l-0.1,0.1l0,0c0,0-0.1,0.1,0,0.2s0,0.2,0,0.2l0,0l-0.9-0.6
			c-0.1-0.3-0.1-0.3,0-0.5S291.2,171.6,291.1,171.5z"></path><path class="st7" d="M292.8,180.9c0.1-0.1,0.2-0.2,0.3-0.3c0.2-0.1,0.4-0.1,0.5,0.2v0.6h-0.4c-0.1,0.2,0.1,0.7-0.1,0.9
			c-0.1,0-0.1,0-0.2,0c-0.6-0.5-0.4-0.4-0.5-1.1c0,0,0,0,0.1,0C292.6,181,292.7,181,292.8,180.9z"></path><path class="st7" d="M291.1,182.9c0.1-0.4,0.6-0.9,0-1.3l0,0c0.4-0.3,0.6-0.8,0.5-1.3c0-0.5,0.7-0.8,1-1.1c0.1,0,0.1,0,0.2,0
			c0,0,0.1,0,0.2,0l0.1-0.1c0.1-0.2-0.2-0.3-0.2-0.5s0.1-0.6-0.1-0.8c-0.3-0.4-0.1-0.4,0.1-0.7c0,0.1,0,0.6,0.2,0.5
			c0.2-0.2,0.3-0.4,0.4-0.6c0.2-0.4,0.1-0.9,0-1.4c-0.1-0.4-0.3-0.7-0.4-1c-0.1-0.1-0.4-0.1-0.5-0.3s-0.3-0.9-0.1-1s0.2,0,0.4,0.1
			c-0.3-0.2-0.3-0.5-0.1-0.6c0.1,0,0.1-0.1,0.2-0.1c0.1,0.2,0.2,0.4,0.4,0.6s0.6,0.3,0.8,0.5s0.5,0.5,0.4,0.8s0.1,0.4,0.3,0.6
			c-0.1,0-0.1,0-0.2,0c-0.2,0.1,0.1,0.4,0.3,0.6c0.3,0.4,0.2,0.5,0.4,0.9c0.1,0.2,0.6,0.7,0.6,0.8c-0.1,0.3,0,0.6-0.2,0.8
			c-0.1-0.1-0.1-0.3-0.2-0.5c0,0.3,0,0.6,0,0.9l-0.5-0.3c0,0.3-0.1,0.6-0.3,0.8c-0.2,0.1-0.4,0.1-0.6,0c-0.1,0.3,0.1,0.5,0.4,0.5
			h-0.1c-0.3,0.2-0.1,0.7-0.1,1c-0.5-0.1-1-0.2-0.9-0.8c-0.2,0.1-0.4,0.2-0.6,0.3c-0.1,0.1-0.2,0.2-0.2,0.3l-0.3,0.4
			c0,0.1-0.1,0.2-0.2,0.3s-0.1,0-0.3,0c0.1,0.3,0.1,0.4-0.1,0.5l-0.1,0.1l0,0c-0.1,0.1-0.2,0.2-0.2,0.3c0.1,0.1,0.2,0.1,0.3,0l0,0
			c0.1,0,0.1,0,0.2,0s0.5,0.2,0.6,0.4c0.3,0.5,0.4,1,0.4,1.6c0,0.1-0.1,0.1-0.1,0.2c-0.2,0.2-0.7-0.5-0.8-0.9s-0.2-0.7-0.5-0.5
			c-0.1,0.1-0.1,0.2,0,0.3s0.1,0.2,0,0.3l0,0L291.1,182.9z"></path><path class="st7" d="M324.6,204.6c-0.1,0.3,0.6,0.4,0.9,0.4h-0.1c-0.2,0.1-0.7,0.1-0.9,0.2s-0.7,0.4-1.1,0.2l-1.8-0.5
			c-0.3-0.1-0.9,0.4-1.2,0.5s0.2,0.8,0.1,1.1c-0.1,0.2-0.2,0.4-0.4,0.5c-0.2,0.1-0.4,0.2-0.7,0.3s-0.9-0.4-1.1-0.3l-1.1,0.9
			c-0.4-0.7-0.3-0.6,0.1-1.1L316,206c-0.2-0.2-0.8,0-1,0.1l-1.8,0.2c-0.2,0-0.3,0-0.5,0l5.8-3.5h0.8c0.4,0,0.5,0.4,0.9,0.5
			c0.5,0.1,1.3-0.7,1.8,0.1l-0.5,0.4c0.1,0.1,0.4,0.4,0.6,0.4s0.5,0,0.6,0.1c0.6,0.4,0.7,0.5,1.3,0.2
			C324,204.9,324.3,204.6,324.6,204.6z"></path><path class="st7" d="M311.6,205.7c0.1-0.1,0.3-0.1,0.5-0.2l-0.2-0.3c-0.2,0.1-0.4,0.3-0.5,0.4c-0.2,0.1-0.3,0.2-0.5,0.2
			s-0.3-0.4-0.4-0.3s-0.4,0.2-0.6,0.2c-0.1-0.5,0.1-1,0.5-1.2c0.1-0.1,0.3-0.1,0.4-0.2c0.4-0.1,0.4-0.2,0.8,0.1
			c0.3,0.3,0.6,0.6,1,0.8s0.5,0.2,0.9,0.1c0.1-0.1,0-0.8,0-1c0-0.4,0.2-0.8,0.5-1c0.1,0,0.1-0.1,0.2-0.1c0.8-0.1,1.7-0.3,2.5-0.4
			c0.5-0.1,1.1-0.2,1.6-0.3h0.3l-5.8,3.5c-0.2-0.1-0.3-0.2-0.4-0.4v0.6c0,0.1,0,0.2,0,0.3l-0.2-0.1l-1-0.5
			C311.2,205.9,311.4,205.8,311.6,205.7z"></path><path class="st7" d="M299.4,198.7c0.2-0.1,0.4-0.1,0.6,0.1c0.2,0.2,0.6,0.6,0.5,0.7s-0.2,0-0.4-0.1s-0.1-0.2-0.4-0.3
			s-0.5,0-0.7-0.2C299.2,198.9,299.3,198.8,299.4,198.7z"></path><path class="st7" d="M300.1,199.4c0.2,0.3,0.8,0.5,0.8,0.8l-0.3-0.2l0.2,0.3c-0.3,0-0.6-0.5-0.7-0.5v0.1c-0.2-0.1-0.3-0.2-0.4-0.4
			c0.1,0.1,0.2,0.1,0.4,0C300.1,199.6,300.1,199.5,300.1,199.4z"></path><path class="st7" d="M298.9,199.4l-0.1,0.3c0-0.2-0.1-0.4-0.3-0.5l0,0c0.1-0.1,0.2-0.1,0.3,0c0.1,0,0.2,0.1,0.3,0l0,0l0.3,0.4
			C299.2,199.6,299,199.5,298.9,199.4z"></path><path class="st7" d="M308.2,206.3c-0.2,0-0.6,0-0.7-0.2c-0.2-0.2-0.4-0.5-0.6-0.7s-0.4-0.2-0.5-0.6c0-0.3,0-0.6,0.1-0.9
			c0.1,0.1,0.2,0.2,0.3,0.3l0.1,0.4c0.4-0.1,0.6,0.3,0.4,0.5s0.5,0.2,0.7,0.3c-0.1,0-0.1,0-0.2,0C307.5,205.6,308,206.1,308.2,206.3
			z"></path><path class="st7" d="M300.5,201c-0.4,0.1-0.2-0.3-0.2-0.5c0.1-0.1,0.3,0,0.3,0.1C300.7,200.8,300.7,200.9,300.5,201L300.5,201z"></path><path class="st7" d="M300.2,201.3c-0.4-0.4-0.4-1-0.6-1.4v-0.1c0.1,0.2,0.4,0.5,0.4,0.7S300,201.1,300.2,201.3z"></path><path class="st7" d="M309.6,208.1c-0.2,0.1-0.5,0.2-0.5-0.2s0.3-0.5,0.6-0.8c0.4-0.1,1.1-0.4,1.4,0.2v0.1H311
			c-0.2-0.1-0.4,0-0.6,0.1c-0.1,0-0.1,0.1-0.2,0.2l0,0c-0.1,0.1-0.3,0.1-0.4,0.1l0,0C309.6,207.7,309.8,207.9,309.6,208.1
			L309.6,208.1z"></path><path class="st7" d="M294.7,197.9l0.5,0.1c-0.1-0.2-0.4-0.2-0.5-0.4c-0.2-0.4-0.4-0.8-0.7-1.2c-0.1-0.2,0-0.3,0.2-0.4h0.1
			c0.3-0.1,0.4,0,0.5,0c0.1-0.1,0.1-0.2,0.2-0.2c0.4,0.2,0.2,0.5,0.4,0.7c0.4,0.4,0.4,0.1,0.6,0.6c0.1,0.1,0.1,0.3,0.2,0.4
			c0,0,0,0,0,0.1h-0.1H296v0.1c0.3,0.4,0,0.4,0.5,0.7c0.3,0.1,0.4,0.5,0.7,0.4c0.1-0.1,0-0.3,0.1-0.4l0,0c0.1-0.1,0.3-0.1,0.4-0.1
			c0.2,0,0.3,0,0.5,0l0,0v-0.1v-0.1h0.1c0.3,0.1,0.4,0.3,0.2,0.4c-0.1,0-0.2,0.1-0.2,0.1c0.3,0.4,0.6,0,0.7,0.6
			c-0.2,0-0.6,0.1-0.7-0.1c-0.3-0.4-0.3-0.3-0.7-0.2l0.3,0.5c-0.2-0.1-0.3-0.2-0.5-0.2c-0.1,0-0.2,0-0.2,0.1l-0.1,0.1l-0.1,0.1h-0.1
			c-0.3,0.1-0.8-0.1-0.6-0.5c-0.2,0-0.5,0.2-0.7,0S294.8,198.2,294.7,197.9z"></path><path class="st7" d="M296.8,199.4c0.6,0,0.8,0.2,0.8,0.8l-1.2-0.6L296.8,199.4z"></path><path class="st7" d="M308.1,208.3c0.3-0.2,0.6-0.1,0.8,0.1c-0.1,0.2-0.2,0.3-0.4,0.4c-0.2,0.1-0.4,0.2-0.5-0.2
			C307.9,208.5,308,208.4,308.1,208.3z"></path><path class="st7" d="M307.2,210.5c-0.1,0.1-0.1,0.2,0.1,0.3s0.2,0.3,0.2,0.5l-0.5-0.1c-0.1-0.1-0.2-0.5-0.1-0.6s0.1,0,0.2,0.1
			c-0.1-0.1-0.2-0.3-0.1-0.4S307.1,210.4,307.2,210.5L307.2,210.5z"></path><path class="st7" d="M310.7,213.5c0,0.3-0.3,0.4-0.5,0.6c0.1-0.4-0.3-0.3-0.3-0.6c0.1-0.3,0.2-0.5,0.4-0.8v-0.3
			c0.1-0.1,0.2-0.2,0.3-0.3c0.2-0.2,0.4-0.4,0.7-0.6c0.2,0.4-0.4,1.1-0.5,1.4C310.7,213.1,310.6,213.3,310.7,213.5z"></path><path class="st7" d="M303.3,209.6c-0.1-0.4,0.1-0.8-0.4-1c-0.1-0.4-0.1-0.8,0-1.2c0-0.1,0.1-0.1,0.2-0.2c0.3-0.1,0.7-0.2,1-0.2
			h0.1l0.1-0.1l0.1-0.1c0.1-0.1,0.4-0.1,0.5-0.1c0,0,0.1,0,0.1-0.1c0.1-0.3,0-0.9,0.2-1c0.2,0.6,0.4,1.3,0,1.5
			c-0.1,0.1-0.3,0.1-0.4,0.1s-0.3,0-0.4,0.1c-0.2,0.1-0.4,0.3-0.5,0.4l0,0c-0.1,0-0.2,0.1-0.3,0.1c-0.1,0-0.2,0-0.2,0.1
			c-0.1,0-0.1,0.1-0.1,0.2c0,0.6,0.8,1.1,1.1,0.9c0.1-0.1,0.2-0.2,0.2-0.4c0-0.1,0-0.1,0-0.2s0,0,0.1,0h0.1c0,0,0,0,0-0.1
			c0.1-0.1,0.1-0.2,0.3-0.4s0.2-0.2,0.3-0.3s0.2,0,0.3,0.2c-0.1,0-0.1,0-0.2,0c-0.1,0.1-0.1,0.3-0.2,0.6s0,0.5-0.2,0.6H305
			c0.3,0.1,0.4,0,0.7,0.1l0.5,0.3l0.1,0.4c0.1,0,0.1,0.1,0.2,0.1c0.2,0,0.4-0.2,0.5,0.2l0,0c0,0-0.1,0.2-0.1,0.3s0,0.3,0,0.3
			l-0.1,0.1c-0.1,0.1-0.3,0.1-0.4-0.2s-0.3-0.2-0.5-0.2c-0.1,0-0.2,0-0.2-0.1c-0.1-0.1-0.3-0.7-0.5-0.5l0,0c-0.4,0.3,0,0.3,0.2,0.6
			l0.2,0.3c0.1,0.2,0.3,0.3,0.4,0.5c0.1,0.1,0,0.3,0.1,0.4l0.4,0.4c0,0.1,0,0.2-0.2,0.2c-0.1,0.1-0.3,0.1-0.5,0.1
			c-0.2-0.1-0.5-0.9-0.6-1.1c0-0.1-0.1-0.1-0.1-0.1c-0.2-0.2-0.3,0.1-0.5,0c-0.5-0.2-0.4-0.3-0.5-0.8
			C303.7,210.1,303.5,209.8,303.3,209.6z"></path><path class="st7" d="M308.2,213.9c0,0-0.1,0.1-0.1,0.2c-0.2-0.1-0.9,0.5-0.9,0c0-0.1,0.1-0.2,0.1-0.2c0.1-0.1,0.3-0.1,0.4-0.1
			s0.3-0.1,0.4-0.1l0.1-0.1c0,0,0,0,0-0.1c0.1,0,0.1,0,0.2,0h0.1c0,0,0,0,0-0.1c0-0.2,0-0.3,0.2-0.4l0.1-0.1l0.1-0.1l0.3-0.2
			l0.2-0.2c0.1-0.1,0.3-0.1,0.5-0.2c-0.1,0.2-0.2,0.4-0.4,0.5l-0.4,0.2c-0.1,0.1-0.3,0.1-0.4,0.2c-0.1,0.1-0.1,0.4-0.3,0.5l0,0l0,0
			c-0.1,0.1,0,0.2-0.1,0.2l0,0h-0.1C308.3,213.9,308.2,213.9,308.2,213.9z"></path><path class="st7" d="M308.4,214.8c0.2,0.1,0.2,0.2,0.1,0.3c-0.4,0.1-0.8,0.1-1.2,0.1c-0.1-0.1-0.1-0.2,0-0.3l0.1-0.1
			C307.7,214.7,308.1,214.6,308.4,214.8z"></path><path class="st7" d="M306.7,214.9c-0.2,0.2-0.4,0.4-0.7,0.5c-0.3,0.2-0.5,0.3-0.8,0.3c-0.1-0.3-0.2-0.4,0-0.6l0,0
			c0.2-0.1,0.5-0.1,0.7-0.1c0.2-0.1,0.2-0.2,0-0.4c0-0.1,0.1-0.1,0.1-0.1C306.4,214.3,307.3,214.3,306.7,214.9z"></path><path class="st7" d="M302.7,212.4c0-0.1-0.1-0.1-0.1-0.2c-0.1,0.1-0.1,0.3-0.2,0.4l-0.3,0.5l-0.2-0.2c-0.1-0.1-0.2-0.2-0.3-0.2
			h-0.1l-0.1,0.1h-0.1h-0.1c-0.2,0-0.4,0-0.6,0.1s-0.2,0.3-0.4,0.6l-0.4-0.4c-0.1,0.2-0.3,0.4-0.5,0.6c-0.1,0.1-0.3,0.1-0.4,0
			c-0.4-0.4-0.7-1-1.2-1.1c0.1,0.2,0,0.1,0,0.3c-0.1-0.3-0.1-0.1-0.3-0.2l-0.3-0.3l-0.1-0.3c-0.1-0.1-0.4-0.1-0.5-0.3
			s-0.3-0.5-0.5-0.8c0.1-0.1,0.1-0.3,0.2-0.4c0.4,0.4,0.9,0,1.3-0.1c-0.5-0.1-0.5-0.2-0.5-0.7s0.2-0.6,0.4-0.9s0.1-0.6,0-1
			c-0.1-0.3,0-0.7,0.3-0.9c0.3-0.3-0.1-0.4-0.1-0.8c0-0.2-0.1-1.1,0-1.2c0.4,0,0.8,0,1.1,0.1c0.2,0.1,0.5,0.2,0.6,0.2s0.3-0.1,0.5,0
			l-0.5,0.5c0.2,0.1,0.4,0.1,0.5,0.2c-0.1,0.1-0.6,0.4-0.4,0.7c0.4,0.6,0.5,0.4,1.1,0.8l0.2,0.4c0.2,0.1,0.4,0.1,0.6,0.1
			c0.5,0.1,0.5,0.2,0.3,0.3l-0.3,0.1l0,0c-0.2,0.1,0,0.6,0.2,0.8c0.4,0.5,0.4,0.5,0.3,1s-0.1,0.5,0.1,0.8l0.8,1l0.1,0.1l0,0
			c0,0.1-0.1,0.2-0.2,0.2C302.8,212.5,302.8,212.4,302.7,212.4z"></path><path class="st7" d="M297.5,214.3h0.1c0.4,0.1,0.6,0.4,0.4,0.5l-0.2,0.1C297.7,214.9,297.3,214.4,297.5,214.3z"></path><path class="st7" d="M229.8,166.3c0.3-0.2,0.6-0.1,0.9,0.1l-0.8,0.8C229.6,166.7,229.4,166.6,229.8,166.3
			C229.7,166.3,229.7,166.3,229.8,166.3z"></path><path class="st7" d="M297,214.8c-0.1,0.1,0,0.3,0.1,0.3c0,0,0,0,0.1,0l0,0c-0.1,0-0.3,0-0.4,0c-0.2,0-0.2-0.1-0.3-0.2l-0.3-0.1
			l-0.1,0.1c-0.1,0-0.1,0-0.2,0c0-0.2-0.1-0.4,0-0.4s0.1,0,0.2,0l-0.1-0.1l0,0c0.1-0.1,0.3,0.1,0.5,0.2S296.8,214.8,297,214.8
			L297,214.8z"></path><path class="st7" d="M332.4,213.6c0.6,0.1,1.2,0.2,1.8,0.4c0.8,0.7,1.6,1.5,2.3,2.3c0.6,1,1,2,1.4,3c0.4,0.8,0,1.7,0.5,2.5
			s1.5,2.1,0.7,2.7c-0.5,0.4-0.5,0.4-0.6,1.1c0,0.2-0.2,0.5-0.4,0.6c-0.1,0.1-0.2,0.1-0.3,0.1c-0.5-0.1-0.7-0.3-0.8-0.2
			s-0.1,0.2-0.2,0.4s-0.1,0.5-0.3,0.6c-0.2,0.1-0.3,0.2-0.5,0.2c-0.9,0.5-1.9,0.3-2.6-0.4c-0.3-0.2-1-0.8-1.3-0.6s-0.9-0.7-1.2-1
			c0.1,0.6,0.4,0.9,0,1.1c-0.1,0-0.1,0.1-0.2,0.1c-0.1-0.7-0.1-1.5-0.8-2.1c0.1,0.8,0.2,1.6,0.1,2.3c-0.5-0.2-0.9-0.4-1.4-0.6
			c-0.7-0.4-0.8-0.4-1.5-0.3c-1,0.2-1.9,0.5-2.8,0.9c-0.3,0.2-0.4,0.8-0.5,1c-0.1,0.1-0.1,0.2-0.2,0.2s-0.1,0.1-0.2,0.1l-0.3,0.1
			c-0.1,0-0.2,0.1-0.2,0.2c-0.2,0.3-0.6,0.8-0.5,1.1l0.1,0.6l-0.8,0.5c-0.4,0.2-0.6,0.5-1,0.7s-0.5,0.6-0.5,1.2
			c0,0.2-0.2,0.4-0.4,0.5c-0.2,0.1-0.4,0.2-0.5,0.3c-0.3,0.2-1,0-1.4-0.1s-0.2-0.9-0.2-1c-0.1-0.4-1-1-1.3-1.3
			c-0.8-0.8-1.6-1.4-2.5-2c-0.4-0.2-0.8-0.4-1-0.8c-0.1-0.4-0.4-0.8-0.8-1c-0.8-0.6-1.3-1.4-1.5-2.3l0.7,0.4c-0.2-0.5-0.2-1-0.1-1.5
			c0.1-0.4,0.3-0.8,0.6-1.2l1.5-1.5c0.4-0.4,0-0.8-0.2-1.4c-0.4-1.2,0.1-2.3,0.3-3.4c0-0.2,0.1-1,0.3-1.1c0.7,0,1.3-0.1,1.9-0.1
			c-0.3-0.6-0.6-1.2-0.7-1.9c0-0.2,0.1-0.5,0.3-0.6c0.3-0.1,0.6-0.2,0.9-0.3c-0.2-0.2-0.4-0.4-0.6-0.6l0.1-0.1
			c0.4-0.2,0.9-0.4,1.3-0.6c0.5-0.3,1-0.4,1.5-0.2c-0.1,0.5,0,1,0.2,1.4c0.3,0.6,0.2,0.9,0.9,0.9h2.1c0.4,0,1,0.3,1.3,0.3l0.2-0.1
			c0.6-0.4-0.3-2-0.7-2.5c-0.4-0.4-0.8-0.9-1.1-1.4c-0.2-0.5-0.8-1.3-0.5-1.6c1,0.6,1.9,1.3,2.7,2.1c0-0.1,0.1-0.2,0.2-0.2
			c0.3-0.1,0.7-0.1,0.9,0.2c0.5,0.6,0.6,0.8,1.4,1.1c0.5,0.2,0.8,0.7,1.1,1.2c0.1,0.2,1.5,0,1.7,0c0.5,0,0.7,0.3,1.2,0.6l0.8,0.6
			h0.1c0-0.1,0.1-0.1,0.1-0.2c0-0.1,0-0.2,0.1-0.2C331.9,212.8,331.8,213.5,332.4,213.6z"></path><path class="st7" d="M301.9,135.3c0.3,0.4,0.5,0.5,0.3,0.8s0.3,0.5,0.6,0.7c-0.4,0.2-0.8,0.3-1.2,0.2c-0.1,0-0.2,0-0.2,0.1
			l-0.1,0.1l-0.2,0.1c-0.1,0.1-0.2,0.1-0.3,0c-0.4-0.3-0.6-0.7-1-0.5l-1.2,0.6c-0.2,0.1-0.4-0.8-0.8-0.5s0.3,0.9,0.5,1.2
			s-0.9,1.4-1.2,1.7c0.5,0.1,0.9-0.1,1.3,0.4c0.4,0.4,0.9,0.7,1.4,0.9v0.5c-0.2,0.1-0.4,0.2-0.6,0.2c-0.3,0.1-0.5,0.1-0.8,0.2
			c-0.5,1-0.9,1.9-1.2,2.9c-0.3,0.7-0.8,1.3-0.5,2.1c-0.7-0.2-0.9-0.2-1.2,0c-0.1,0.1-0.2,0.2-0.4,0.3c-0.6,0.5-0.6,0.5-0.5,1.4
			l-0.5-0.6c-0.1,0.2-0.2,0.7-0.5,0.8c-0.2,0.1-0.3,0.1-0.5,0.2c-0.1,0.1-0.2,0.2-0.1,0.3c0.1,0.8,0.2,1.7,0.3,2.5
			c0.2-0.1,1-0.4,1.1-0.1c0.3,0.7,0.3,0.7,1,1c-0.4,0.6-0.7,1.2,0.2,1.8c0.2,0.1-0.2,0.6-0.3,0.7s-0.5,0.4-0.2,0.7s0.6,0.7,0.4,1
			s-0.4,0.4-0.1,0.9c0.2,0.7,0.3,1.4,0.1,2.1c-1.8-1.6-5.8-4.3-4.5-6.7c0.4-0.5,0.6-1.2,0.5-1.8c-0.1-0.7,0-1.4,0.2-2
			c0.1-0.5,0.5-0.9,0.2-1.5l-0.6-1.2l0.5-0.5c-0.2,0.1-0.5,0.2-0.7,0.3l-0.2,0.2c-0.2,0.2,0,0.7,0,1c0,0.7-0.1,1.4-0.4,2
			c-0.5-0.3-0.9-0.8-1.1-1.3c-0.1,0.4-0.3,0.7-0.7,0.9l-0.3,0.2c-0.2,0.1-0.4,0.4-0.4,0.7c-0.2,0.8-0.2,1.7-0.2,2.5
			c0.2,0,0.8,0,0.8,0.3c0,0.1-0.5,0.4-0.5,0.5l-1.4,1.1c0.1-0.2,0.2-0.5,0.2-0.7l-1.7,0.6c-0.2,0.1-0.2,0.6-0.3,0.7
			c0,0.1-0.1,0.1-0.1,0.1c-0.1,0.1-0.3,0.1-0.4,0.1c-0.3,0.1-0.7,0.3-1,0.5l-0.4,0.2c-0.1,0.1-0.2,0.2-0.4,0.2l-0.4,0.2
			c-0.2,0.1-0.4,0.3-0.5,0.5c-0.2,1.2-0.3,2.4-0.5,3.6c-0.1,1.1-0.4,2.1-0.8,3.2c0.3,0.2,0.5,0.1,0.7,0s0.3-0.2,0.6,0l0.6,0.4
			c0.2-0.1,0.4-0.2,0.5-0.2s0.2-0.3,0.1-0.8c0-0.1,0-0.2,0.1-0.2c0.8-0.2,1.6-0.1,2.3,0.4c0.5,0.9,0.9,1.7,1.3,2.6l-38.4,23.6
			l-11.7-15.2c0.1-0.1,0.2-0.1,0.2-0.2c0.3-0.7,0.4-1.5,0.4-2.2c0.1-0.7-1.5-0.7-0.9-1.6c0.1-0.2,0.3-0.4,0.5-0.6
			c0.5,0.1,1,0.2,1.5,0.4c-0.3-0.3-0.6-0.7-1-0.7s-0.5,0-0.7,0.1c-0.1,0.1-0.2,0.2-0.3,0.2c-0.1,0.1-0.6,0.6-0.8,0.7
			c-0.3-0.2-0.9-0.5-1-0.8s-0.1-1-0.5-1.2s-1.2-0.3-1.2-0.7s0.2-0.7,0.4-1.1s-0.5-0.8-0.7-0.9c0.2-0.1,0.9,0.2,1,0.4
			c0.2,0.7,0.2,0.6,0.9,1c0.4,0.2,1.8-0.6,2.2-0.8c-0.6,0.1-1.3,0.2-1.9,0.3c-0.8,0.1-0.1-1,0-1.2s0.3-0.3,0.5-0.4
			c0.4-0.2,0.9-0.3,1.3-0.3c0.3,0,0.6,0,0.9,0c0.1,0,0.2,0,0.2-0.1c0.1-0.1,0.3-0.2,0.4-0.4c-0.2-0.1-0.6-0.6-0.9-0.6
			s-0.7,0.3-0.9,0.3s-1.1-0.9-1.4-1.1c0.7-0.5,1.4-1.1,2.1-1.6c0.4-0.3,0.8-0.6,1.2-0.9s-0.1-0.4-0.3-0.8c-0.4-0.6-0.5-0.6-0.3-1.1
			c0.1-0.4,0.3-0.8,0.5-1.2c0.6-0.7,1.2-1.3,1.9-1.8c1.2-1,2.3-2.2,3.2-3.4c0.2-0.3-0.3-0.7-0.2-1c0.2-0.4,0.4-0.9,0.7-1.3
			c0.1-0.2,0.3-0.4,0.6-0.6c0.4-0.3,0.9-0.3,1.3-0.1c-0.3,0.3-0.6,0.7-0.8,1l1.9-0.8c-0.1,0.4-0.1,0.7-0.2,1.1l1-0.5
			c-0.1-0.1-0.5-0.6-0.4-0.7c0.3-0.1,0.5-0.3,0.8-0.4l0.3-0.2l0.2-0.1c0.2-0.2,0.5-0.3,0.8-0.3c0.6,0,1.2,0,1.7,0.1l0.8,0.3
			c0,0.2,0.2,0.6,0.2,0.7c-0.8,1.9-1.5,3.9-2.3,5.9l2.5-2.9l-0.9,0.4c0-0.4,0.2-0.7,0.5-0.9c0.1-0.1,0.3-0.1,0.5-0.1
			c0.4,0.1,0.8,0,1.2-0.2c0.1-0.1,0.3-0.2,0.5-0.4c0.1-0.1,0.3-0.2,0.5-0.3c0.8-0.4,1.6-0.8,2.5-1.2c-0.1,0.2-0.2,0.4-0.3,0.6
			c0.4,0,0.8,0,1.2-0.1l1.1-0.7l0.2-0.1l0.2-0.1c0.2-0.1,0.4-0.3,0.3-0.5c-0.4-0.6-0.4-0.6,0.1-0.9l0.6-0.4c0.2-0.1,0.3-0.2,0.4-0.3
			c0.2-0.3,0.5-0.5,0.7-0.8c0.5-0.1,1.2,0.3,1.6,0.4s0.5,0.9,0.7,1.1s0.8,1,1,1h1.5c0.2-0.1,0-1.1,0-1.3s0-0.5,0-0.6
			c0.1,0,0.3,0,0.4,0c0.5,0,0.7,0.1,0.9,0c0.1-0.1,0.2-0.2,0.3-0.2c0.1-0.2,0.3-0.5,0.5-0.6c0.1,0,0.2-0.1,0.2-0.1
			c0.4,0,0.7,0,1.1-0.1c0.3-0.4,0.5-0.8,0.8-1.1c-0.2-0.1-0.9-0.3-0.9-0.6s-0.2-1,0-1.1l2.2-0.9c0.6-0.2,1.2-0.4,1.8-0.5
			c0.7-0.3,1.4-0.5,2.1-0.6c0.4,0,1.9,0.7,2.2,0.5l1.7-1.6c0.1-0.1,0.2-0.1,0.2-0.2c0.5-0.2,1.1-0.4,1.6-0.5
			c0.4-0.1,0.5-0.2,0.9,0.1c0.3,0.2,0.5,0.5,0.6,0.9c0.5-0.1,1-0.2,1.5-0.4c0.1-0.1,0.2-0.1,0.3-0.2c0.3-0.3,0.6-0.5,0.9-0.7
			s0.5-0.3,0.8-0.4c0.2-0.1,0.4-0.1,0.6-0.2c0.1-0.1,0.1-0.1,0.2-0.2c0.1-0.2,0.1-0.3,0.1-0.4s0.2,0,0.5,0.1
			c0.4,0.2,0.9,0.3,1.4,0.3c0.3-0.2,0.5-0.3,0.7-0.6l-1.3-1.3l3-1.5c0.9-0.3,1.9-0.4,2.9-0.4c1.1-0.1,2.2-0.1,3.3-0.1
			c0.5-0.1,1,0.1,1.4,0.4c0.7,0.5,0.8,0.7,1.4,0.4c-0.3-0.2-0.5-0.4-0.8-0.6c0.5-0.3,1-0.5,1.6-0.6c0.6,0,1.2,0.1,1.8,0.2
			c-0.1,0.3-0.1,0.8-0.2,1C302.4,135.2,302.2,135.3,301.9,135.3z"></path><path class="st7" d="M226,174.3c0.1-0.1,0.1-0.3,0.2-0.4c0.2,0,1.4,0,1.4,0.4c0,0.1,0,0.1-0.1,0.1
			C227,174.6,226.4,174.5,226,174.3z"></path><path class="st7" d="M221.6,175.2c-0.6-0.2-0.6-0.1-1-0.6c-0.3-0.4,0.2-0.5,0.1-0.8s-0.4-0.3-0.3-0.8c0.1-0.1,0.4-0.8,0.2-0.9
			c-0.3-0.3-0.6-0.4-0.5-0.7s0-0.9,0.1-1.4c0-0.6,0.1-1.3,0.3-1.9c0.1-0.6,0.7-1.1,1-1.6s0.8-1,1.3-1.2c0.6-0.5,1-1.2,1.2-1.9
			c0.2-0.3,0.4-0.6,0.8-0.8c0.3-0.2,0.7-0.3,1,0.1c0.4,0.6-0.7,1.7-0.9,2c-0.5,0.6-1,1.2-1.5,1.9c-0.3,0.5-0.5,1.1-0.6,1.8
			c-0.2,0.4-0.4,0.7-0.4,1.1c0,0.4,0.1,0.9,0.1,1.3c-0.2,0.8,0,1.6,0.4,2.3c0.6,0.7,1.5,1.1,2.4,1c-0.1,0.2-0.2,0.4-0.4,0.5
			c-0.4,0.2-1,0.4-1.2,0.6C222.9,175.4,222.2,175.4,221.6,175.2z"></path><path class="st7" d="M281.4,206.1c0,0.3,0,0.4-0.1,0.5c-0.1,0-0.2,0.1-0.3,0.1c-0.5,0.1-0.4,0.2-0.7-0.3c-0.1-0.2-0.4-0.8-0.6-0.9
			c-0.6-0.5-1.4-0.9-2.1-1.1c-0.7-0.2-1.4-0.5-2-1c-0.1,0.3-0.1,0.8-0.4,1c-0.4,0.4-0.8,0.7-1.2,1l-0.3,0.3l0.4,0.5
			c0,0.4-0.1,0.8-0.1,1.1c-0.1,1.1-0.2,2.1-0.3,3.2c-0.1,0.4-0.3,0.7-0.5,1c-0.2,0.4,0.1,0.6,0.5,1s0.7,0.8,1,1.2
			c0.1,0.5,0.4,0.9,0.7,1.3c0.4,0.4,0.9,0.7,1.4,0.8c0.5,0.2,1,0.5,1.5,0.8c0.4,0.2,0.5,0.7,0.3,1.1c0,0.1-0.1,0.2-0.2,0.2
			c-0.2,0.1-0.5,0.1-0.8-0.3c-0.4-0.4-0.7-0.8-1.1-1.3c-0.3-0.4-0.5-0.4-1.1-0.6c0.2,0.3,0.5,0.6,0.4,0.9s-0.2,0.7-0.4,1
			c-1.8-1-3.6-2.1-5.3-3.2c-0.5-0.3-1-0.6-1.5-0.9c-0.3-0.3-0.6-0.6-0.8-1l-2.3-2.8c0,0.4,0,0.8,0.1,1.2l-16.8-21.7l38.4-23.5
			l0.3,0.6c0.4,0.9,0.7,1.8,0.7,2.7c0.2,0.9,0.3,1.9,0.2,2.8c-0.1,0.6-0.1,1.3-0.2,1.9c0,0.4-0.5,0.6-0.7,0.9s-0.6-0.2-0.7-0.2
			s-0.2,0.5-0.3,0.6c-0.2,0.5-0.1,0.6,0.1,1.3c0.2,0.9,0.2,1.9,0,2.8c1.1,0.1,2.1,0.6,2.8,1.6c0.4,0.7,0.6,0.8,0.3,1.4
			c-0.1,0.3-0.4,0.6-0.7,0.7l-0.3,0.2l-0.7-1.2c-0.3-0.5-0.6-0.2-0.6-0.8c0-0.4-0.3-0.6-0.6-0.5s-0.3,0.3-0.4,0.4
			c-0.2,0.1-0.4,0.1-0.6-0.1c-0.2-0.4-0.4-0.8-0.5-1.2h-1c-0.2,0.1-0.3,0.8-0.4,1s-0.3,0.7-0.4,1c-0.7-0.4-0.5-1.2-0.4-1.7
			c-0.3,0-0.5-0.1-0.6,0s-0.2,0.2-0.2,0.3c-0.1,0.3-0.2,0.6-0.3,0.9c0,0.4-0.2,0.7-0.4,1c0,0.1-0.5,0.6-0.1,0.7
			c0.4,0.1,0.8,0.2,1.2,0.4c0.3,0.1,0.4,0.2,0.5,0.1s0.1-0.2,0.2-0.4s0.2-0.4,0.4-0.5c0.4-0.2,0.8-0.3,1.3-0.4c-0.2,1-0.4,2-0.6,2.9
			c0.5,0,1,0.1,1.4,0.4l1.7,1l-1.2,0.4l1.7,0.2c-0.1,0.4-0.2,0.7-0.3,1.1l1.2-0.3c0.3,1.1,0.5,2.2,0.7,3.2c0,1.1,0.2,2.2-0.3,3
			s-1.1,1.8-1.7,2.7l-0.6,0.8c-0.1,0.2-0.1,0.2,0.2,0.4s0.4,0.4,0.2,0.5c-0.1,0-0.1,0-0.2,0s-0.5-0.4-0.6-0.4l0.2-0.3
			c-0.3,0-0.7,0-1,0.2c-0.2,0.1-0.3,0.2-0.3,0.4c-0.1,0.4-0.5,1.2-0.3,1.7c0.1,0.1,0.2,0.8,0.4,0.9l1.2,0.5c0.6,0.3,1.1,0.4,1.7,0.7
			c0.6,0.1,1.1,0.4,1.5,0.9c0.3,0.4,1.2,1.1,1.1,1.5c-0.2,1.2-0.4,2.3-0.7,3.4c-0.5-0.1-0.5-0.8-0.8-0.9l-1.5-0.4
			c-0.7-0.3-1.4-0.3-2.1,0.1l-0.3-0.5c-0.6,0.4-0.4,0.4,0.1,1.1c0.2,0.4,0.4,0.9,0.6,1.4c0.1,0.2,0.2,0.4,0.4,0.5
			c0.2,0.2,0.2,0.3,0.3,0.2c0.1,0,0.1-0.1,0.2-0.1c0.1-0.1,1.1,0.8,1.3,1s1.1,0.2,1.5,0.2c0.4,0.1,0.9,0.2,1.3,0.4
			c0.4,0.3,0.7,0.9,1,1.2c0.4,0.3,0.8,0.6,1.3,0.9c-0.6,0.2-1.2,0.2-1.9,0c-0.5-0.1-1-0.3-1.4-0.7c-0.5-0.5-1-0.9-1.6-1.2l-2-0.6
			c-0.3-0.1-0.9-1.2-1-1.5c-0.4-0.6-0.9-1.1-1.4-1.6c-0.9-0.9-1.9-1.8-2.9-2.5C281.4,205.4,281.4,205.8,281.4,206.1z"></path><path class="st7" d="M204.6,188.2L204.6,188.2h-0.3c-0.1-0.1,0-0.3,0.1-0.3l0,0c0.1,0,0.2-0.1,0.3-0.1
			C204.7,188,204.7,188.2,204.6,188.2z"></path><path class="st7" d="M204.6,188.6c0-0.3,0.1-0.6,0.4-0.8c0.1,0,0.1,0,0.2-0.1c-0.1,0.2-0.2,0.4-0.3,0.5
			C204.8,188.4,204.7,188.5,204.6,188.6z"></path><path class="st7" d="M204.3,188.3c0.4-0.1,0.3,0.1,0.3,0.4l-0.4,0.2C204.2,188.7,204.3,188.6,204.3,188.3z"></path><path class="st7" d="M204.1,189.9c-0.1,0-0.1,0-0.2-0.1c-0.2-0.3-0.2-0.3,0-0.5c0.1-0.1,0.1-0.2,0.2-0.2s0.1-0.1,0.3,0
			C204.3,189.2,204.2,189.8,204.1,189.9z"></path><path class="st7" d="M204.3,189.3c0,0.4-0.1,0.7-0.1,1.1c-0.2-0.2-0.3-0.3-0.1-0.4C204.2,189.8,204.3,189.5,204.3,189.3z"></path><path class="st7" d="M203.5,190.1c0,0.2-0.1,0.3-0.1,0.5c-0.3-0.2-0.1-0.4,0.1-0.6V190.1z"></path><path class="st7" d="M216,198.6c-0.1,0.4-0.4,0.6-0.3,1c-0.1-0.3-0.3-0.4-0.6-0.5c0.1-0.2,0.3-0.3,0.4-0.4
			C215.7,198.7,215.8,198.6,216,198.6z"></path><path class="st7" d="M204.1,191.2c-0.1-0.2-0.1-0.4,0.1-0.5l0,0c0,0.3-0.1,0.6-0.1,0.9l-0.3-0.3L204.1,191.2z"></path><path class="st7" d="M203.8,190.8c0.1-0.2-0.1-0.4,0-0.5c0,0,0-0.1,0.1-0.1c0.1-0.1,0.3,0.2,0.4,0.3c0,0-0.1,0-0.1,0.1
			c-0.1,0.1-0.1,0.2-0.1,0.3s0,0.2-0.1,0.2s-0.2,0.1-0.3,0.1c0-0.2,0-0.1-0.1-0.4l0.1-0.1c-0.2-0.2-0.2-0.4-0.1-0.5
			C203.6,190.5,203.7,190.7,203.8,190.8z"></path><path class="st7" d="M212.8,198c0.1,0,0.2,0,0.3,0.1l-0.1,0.1l0.2,0.2C212.7,198.3,212.6,198,212.8,198z"></path><path class="st7" d="M203.9,191.5c0.3,0.4,0.3,0.5,0.2,0.9v-0.3c-0.1,0-0.1,0-0.2,0c0.2-0.1,0.2-0.3,0.1-0.5
			C204,191.5,204,191.5,203.9,191.5z"></path><path class="st7" d="M203.5,191.2L203.5,191.2c-0.1,0.2-0.1,0.4-0.2,0.6c-0.2-0.3-0.1-0.4,0.1-0.5L203.5,191.2z"></path><path class="st7" d="M203.1,191.8c0,0.1,0,0.3-0.1,0.4h-0.1l-0.1-0.2c0-0.1,0-0.2,0.1-0.2C203,191.7,203.1,191.7,203.1,191.8z"></path><path class="st7" d="M213.9,200.7c0.1,0,0.1-0.1,0.2-0.1c0,0.2-0.1,0.5,0.3,0.6c-0.1,0.2-0.2,0.4-0.2,0.7
			C213.9,201.5,213.5,201,213.9,200.7z"></path><path class="st7" d="M211.3,205.5c0.1-0.1,0-0.3-0.1-0.4l0.2-0.1c0,0.2,0.2,0.3,0.3,0.2c-0.3-0.2-0.3-0.3-0.2-0.4s0.9,0,0.4,0.4
			l0.3,0.1c-0.3,0.2,0,0.5,0.1,0.8c-0.2-0.2-0.4-0.4-0.6-0.3l0,0l0,0C211.6,205.9,211.4,205.7,211.3,205.5z"></path><path class="st7" d="M270.7,241L270.7,241c0.7,0.6,1.3,1,1.5,1.8l-0.5-0.1c0.6,0.6,1.1,1.3,1.3,2.1c0.6,1.4,1.1,2.7,1.7,4.1
			c0.1,0.4,0.3,0.8,0.5,1.1l-0.6,0.8c0,0,0,0-0.1,0.1c-0.3,0.2-0.7,0.2-1.1,0.1c-0.4-0.4-0.8-0.8-1.2-1.1c-0.4-0.3-0.8-0.7-1-1.2
			c-0.2-0.4-0.1-1.1-0.3-1.5c-0.4-0.4-0.8-0.8-1.3-1.1c-0.2-0.2-0.6-1-0.5-1.2c0.3-0.3,0.6-0.7,0.8-1.1c0.1-0.4,0.2-0.9,0.1-1.3
			c0-0.6,0.2-0.7-0.2-1.3c-0.2-0.2-0.2-0.3-0.1-0.4S270.5,241,270.7,241z"></path><path class="st7" d="M236.7,174.4l0.1-0.1l11.8,15.2l-39,23.9c-0.1-0.1-0.4-0.2-0.4-0.5s0.4-0.6,0.5-0.8s0.2-0.3,0.4-0.4l0.3-0.2
			c-0.1,0-0.4,0.2-0.5,0l0.2-0.3l-0.1-0.3c0-0.3-0.1-0.6-0.3-0.9c-0.1-0.2,0.2-0.3,0.2-0.5c0-0.3,0.2-0.5,0.4-0.6l0.1-0.1
			c0.1-0.1,0.2-0.1,0.2-0.2l-0.1-0.3l0.3-0.2c0.2-0.1,0.3-0.2,0.5-0.2c-0.3-0.3,0-0.3,0.2-0.5c-0.1,0-0.6-0.1-0.6-0.3
			s-0.1-0.2-0.4-0.4s-0.2-0.5-0.6-0.5s-0.3-0.2-0.6-0.4c-0.4-0.4-0.6-1-0.2-1.2s0.3-0.7,0.5-1.1c0,0.5,0.5,1.3,1.1,1.1
			c0.1,0.6-0.3,1.1,0.3,1.7c0.3,0.3,0.8,0.5,1.2,0.3c0.1-0.1,0.1-0.1,0.2-0.2c0.1,0.2,0.1,0.3,0.1,0.5c0.1,0,0.2,0,0.2-0.1
			c0.3-0.2,0.3-0.8,0.5-1c0.2-0.1,0.5-0.1,0.8,0c0.2,0.2,0.5,0.1,0.8,0.1l-0.1-0.3c-0.1,0.1-0.2,0.1-0.4,0.2c0.1-0.3,1-0.9,0.9-1.2
			c0-0.4,0.3-0.8,0.6-1c0.2-0.1,0.4-0.2,0.6-0.1h-0.3c0.2,0.2,0.4,0.2,0.6,0.1c0.1-0.1,0.2-0.2,0.2-0.4l-0.1-0.5l0.2-0.2
			c0-0.2,0.2-0.4,0.1-0.6c0,0.2,0,0.3,0,0.5c0.1,0,0.2,0,0.2-0.1c0.4-0.2-0.7-1-0.9-1.3c-0.2-0.2-0.3-0.5-0.3-0.7s-0.3-0.4-0.2-0.8
			c0-0.1,0.1-0.2,0.2-0.3c0.4-0.2,1,0.3,1.4,0.2s0.1-0.6-0.1-0.8s-0.4-0.7-0.5-0.7l-0.2,0.2l-0.5-0.1l-0.6-0.5
			c0.2-0.4,0.5-0.8,0.9-1.1l0.1-0.1l1-0.5c0.1,0,0.1,0,0.1-0.1c0.2-0.1-0.1-0.1-0.1-0.4s0.4-0.3,0.5-0.5l0.1-0.1
			c0.2-0.1,0.4-0.1,0.5-0.2c-0.3-0.3-1,0-1.3,0l-0.1-0.3c-0.7,0.7-1.5,1.5-2.2,2.3l-0.5,0.4c-0.3-0.2-0.6-0.2-0.9-0.2
			c-0.5,0.1-0.4,0.1-0.7-0.4c-0.1-0.3-0.3-0.5-0.6-0.7c-0.2-0.2-0.8-0.5-0.9-0.7s0-0.7,0-0.9c0-0.5,0.2-1,0.2-1.5
			c-0.1-0.4-0.1-0.7,0-1.1l0.1-0.1c0.2-0.1,0.3-0.2,0-0.4c-0.4-0.4-1-0.4-1.4-0.2l-0.4,0.2c-0.3,0.2-0.4,0.3-0.4,0.9
			c-0.1,0.5,0.1,0.9,0.6,1.1c0.5,0.3-0.5,2.2-0.5,2.5c0,0.8,0,2.1,1.1,2.7c0.5,0.2,1-0.1,1.5,0.2s0.1,0.8,0,1.1
			c-0.1,0.5-0.3,0.8,0,1.4c0.3,0.5,0.6,1,0.9,1.5c0.2,0.6-0.2,0.9-0.5,1.2c-0.1,0.1,0,0.3,0.1,0.6s0,0.2-0.1,0.3l-0.1,0.1l-0.2,0.1
			c-0.1,0.1-0.1,0-0.4-0.2s-0.5-0.4-0.5-0.6c-0.2-0.4-1-0.6-1.4-0.7c-0.2-0.1-0.3-0.3-0.5-0.4c-0.2-0.1-0.5-0.3-0.7-0.4
			c-0.2-0.2-0.3-0.6-0.5-0.5s-0.4-0.2-0.7-0.4c0.2,0.4,0.2,0.8,0.1,1.2c-0.1,0.3-0.1,0.8-0.2,1.1c-0.1,0.2-0.2,0.3-0.4,0.4
			c-0.4,0.3-1.1,0.3-1.4-0.1c-0.6-0.8-1.6-1.4-2.1-2.2s-0.5-0.8-0.3-1.5c0.1-0.4,0.3-0.7,0.5-1.1c0.3-0.4,0.4-0.8,0.4-1.2
			c0-0.5,0.1-0.9,0.1-1.4c0-1-0.1-1.9-0.3-2.9c-0.1-0.9-0.1-1.9,0-2.8c-0.1-0.9,0.1-1.8,0.4-2.6c0.5-0.8,1-1.6,1.6-2.3
			c0.2-0.3,0-0.9,0.1-1.2s0.3-0.5,0.6-0.6l0.2-0.1c-0.1,0.6,0,1.1,0.3,1.6c0.3-0.3,0.1-1.1,0.1-1.5c0.2,0.2,0.4,0.3,0.5,0.5
			c0-0.3,0-0.6,0-1l0.1-0.1c0.2-0.1,0.3-0.1,0.5-0.2c0,0.2,0.1,0.4,0.1,0.7c0.1,0,0.2,0,0.2,0c0.1-0.1,0-0.2-0.1-0.3s-0.1-0.2,0-0.3
			c0.5-0.1,1-0.2,1.5-0.2s0.1,0.6,0,0.7l-0.1,0.1c-0.3,0.1-0.5,0.2-0.8,0.3c0.3,0.2,0.5-0.1,0.9,0.1c0.1,0,0.2-0.1,0.3-0.2
			c0.1-0.1,0.1-0.1,0.2-0.2s0.4-0.1,0.5-0.2c0.1-0.1,0.2-0.2,0.2-0.4c0.2-0.2,0.6-0.1,0.8-0.1s0,0.2,0,0.3c-0.1,0.1-0.3,0.1-0.5,0.1
			c0.2,0.4,0.6,0.3,0.9,0.1c0.1-0.1,0.2-0.1,0.3-0.2l0.3-0.2c0.5-0.3,1.1-0.4,1.7-0.4c0.7,0,1.3,0,2-0.2c0.6-0.2,1.2-0.1,1.7,0.2
			c0.5,0.4,0.5,0.4,0.5,0.9c0,0.4,0.1,0.5-0.1,0.8c-0.2,0.3-0.4,0.5-0.6,0.6c-0.2,0.1-0.4,0.2-0.6,0.2c-1.2,0.4-2.4,0.6-3.6,0.7
			c0.5,0.1,1.8,0.2,2.1,0.6s1,1.4,1.5,1.4c0.6,0,1.1,0,1.7-0.2c0.1,0,0.1-0.1,0.2-0.2c0.2-0.3-0.3-0.6-0.6-0.5s-0.6,0-0.9-0.1
			c0.1-0.3,0.1-0.5,0.2-0.5c0.2-0.1,0.4-0.1,0.6-0.1c0.5-0.1,1-0.2,1.6-0.3c-0.4-0.2-0.7-0.5-1.1-0.8c0.1-0.4,0.3-0.8,0.4-1.2
			c0.1-0.2,0.1-0.6,0.3-0.8c0.4-0.1,0.9-0.2,1.2-0.3c-0.1-0.2-0.2-0.7-0.4-0.8l-0.8-0.3l-0.5-1.1c-0.1-0.1-0.6-0.2-0.8-0.3l1.3-0.6
			c0.3-0.1,0.9,0.2,1.2,0.4c-0.2,0.1-0.8,0.4-0.7,0.7s0.5,0.4,0.9,0.6c0.1,0.1,0.3,0.1,0.4,0c0.2-0.1,0.3-0.3,0.4-0.4
			c0.3-0.3-0.2-0.4-0.2-0.8c0-0.2,0.3-0.4,0.4-0.6l0.7-1.1l1-1.7c0.6,0.4,0.6,0.4,1.1,0.3c0.2-0.1,0.2-0.3,0.2-0.5s0-0.4,0.1-0.4
			c0.2-0.1,0.4-0.2,0.6-0.3c0.2-0.1,0.3-0.3,0.4-0.4c0.1-0.2,0.2-0.4,0.4-0.5s0.3-0.2,0.5-0.2l0.1,0.5c0.2,0,0.3-0.1,0.5-0.1
			c0.1-0.1,0.1-0.2,0.1-0.6c0-0.6-0.2-0.5-0.9-0.8c0.2-0.3,0.5-0.6,0.8-0.8c0.5-0.3,1-0.5,1.6-0.6l2-0.1c0.5,0,1.1,0.1,1.6,0.2
			c-0.1-0.2-0.4-0.9-0.7-1l-1.7-0.2c-0.4-0.1-0.4-0.8-0.5-1.1s-0.8-0.1-1-0.2c0.1-0.5,0.2-1,0.4-1.5c0.1-0.3-0.4-1.1-0.5-1.5
			c-0.1-0.1,0.1-0.3,0.4-0.5c0.3-0.2,0.7-0.4,1.1-0.5l5.2,6.7l-0.3,0.7l-0.1,0.1c-0.3,0.1-0.5,0.2-0.8,0.3
			C235.6,174.7,236.2,174.6,236.7,174.4z"></path><path class="st7" d="M201,207.4v0.1l-0.2-0.1c0-0.1-0.1-0.2,0-0.3c0.1,0,0.1,0,0.2,0V207.4c0-0.1,0-0.1,0-0.1c0.1,0,0.1,0,0.2-0.1
			C201.2,207.3,201.1,207.4,201,207.4L201,207.4z"></path><path class="st7" d="M202.1,211c0.1,0,0.2,0,0.3,0.1v0.1L202.1,211z"></path><path class="st7" d="M203.5,211.9c0.1,0.1,0.2,0.2,0.1,0.4l-0.1,0.1C203.4,212.2,203.4,212,203.5,211.9z"></path><polygon class="st7" points="200.6,210.1 200.6,210.2 200.5,210.2 		"></polygon><path class="st7" d="M200.1,209.6h0.2c0,0.1,0.2,0.2,0.3,0.2h0.1l0,0c0,0.1,0,0.2-0.1,0.2s-0.5,0-0.7-0.1v-0.2L200.1,209.6
			L200.1,209.6z"></path><path class="st7" d="M201.5,210.8L201.5,210.8l0.1,0.4C201.4,211.1,201.4,210.9,201.5,210.8z"></path><path class="st7" d="M199.6,209.5c-0.6-0.1-0.2-0.5-0.1-0.7l0,0c0,0,0.3,0.2,0.1,0.4l0.2,0.1c-0.1,0.1-0.1,0.3-0.2,0.5l-0.1-0.1
			L199.6,209.5z"></path><path class="st7" d="M201.6,211.5c-0.1,0-0.1-0.2-0.2-0.1l0.1-0.2C201.6,211.2,201.7,211.4,201.6,211.5z"></path><path class="st7" d="M206.7,215.2L206.7,215.2l-0.2,0.1L206.7,215.2z"></path><path class="st7" d="M208.2,212.8c0.2-0.1,1-0.4,0.7,0.1c-0.2,0.3-0.5,0.6-0.8,0.9H208c-0.1,0.1-0.4,0-0.5,0.1s-0.2,0.5-0.3,0.6
			c0,0.1-0.1,0.2-0.2,0.2c-0.1,0-0.1,0.1-0.2,0.1c-0.1,0-0.1,0-0.1,0.1c-0.1,0-0.1,0.1,0,0.4l-0.2,0.1h-0.1l-0.1,0.1l-0.5,0.3
			c0.1-0.2,0.1-0.5,0.1-0.7c-0.1-0.3-0.1-0.5,0.1-0.6c0.2-0.1,0.3-0.1,0.5-0.2c-0.1-0.2-0.1-0.4-0.1-0.6c-0.1,0.2-0.3,0.4-0.4,0.5
			s-0.4,0-0.5,0.1v-0.1h-0.1c-0.1,0-0.1,0.1-0.1,0.2c0,0.1-0.1,0.1-0.1,0.1c-0.1,0-0.1,0-0.2,0l-0.1-0.1c0.1-0.1,0.4-0.4,0.4-0.6
			c0-0.4-0.2-0.4-0.4-0.6l-0.3,0.3c0.1-0.3,0.1-0.5-0.3-0.6l0.1-0.1c0.1-0.1,0.2,0,0.3,0.1c0-0.1,0.1-0.2,0.1-0.2
			c0.1-0.1,0.2-0.1,0.4-0.1l-0.1-0.1c0.1,0,0.1-0.1,0.2,0v-0.1c-0.3-0.1-0.6-0.4-0.6-0.7c0,0,0,0.1-0.1,0.1
			c-0.2,0.2-0.9-0.4-0.6-0.8l0,0c-0.1,0.1-0.2,0.2-0.3,0.3s-0.1,0.2-0.2,0.2c-0.1,0-0.1,0-0.2,0c0.1,0.1,0.1,0.1,0.1,0.1
			c-0.1,0-0.2,0-0.4,0l0.2,0.2c-0.5-0.1-0.2-0.3-0.4-0.6s-0.1-0.2-0.3-0.4s-0.2-0.2-0.1-0.3l-0.2-0.2c0.1,0.2,0,0.3,0,0.4
			s-0.2-0.1-0.1-0.3c-0.2,0.2,0,0.4,0.1,0.7s0.3,0.4,0.2,0.5h-0.1c-0.1,0-0.1-0.1-0.2-0.3s-0.2-0.2-0.3-0.4s-0.3-0.6-0.2-0.9h-0.1
			c0,0.2,0,0.4-0.1,0.5h-0.1c0.4,0,0.3,0.2,0.2,0.3c-0.1,0-0.1,0-0.2,0c0.2-0.2,0.1-0.3-0.2-0.2c0-0.2,0.1-0.3,0.1-0.4
			c-0.1-0.2-0.1-0.3-0.1-0.5h-0.2l0.1-0.1c-0.1,0-0.2,0.1-0.3-0.1l0.2-0.1l-0.4-0.2c0-0.1,0.1-0.1,0.1-0.1c0.1-0.1,0.2-0.1,0.3-0.1
			l-0.4-0.1l-0.1-0.2l0.1-0.1c-0.2-0.1-0.2-0.3-0.1-0.4s0.1,0,0.2,0.1c0,0,0-0.1,0.1-0.1c0,0,0,0,0.1,0c0.1-0.2,0.3-0.4,0.5-0.6
			c0.1,0,0.1-0.1,0.2-0.1c0.2,0.4-0.2,0.8,0,1.1l-0.2,0.1l0.3-0.1v0.7h0.1c0-0.2,0.3-0.6,0.6-0.8c0.2-0.1,0.4-0.2,0.6-0.1
			c0.5,0.2,0,1.3,0.5,1.6h-0.1c-0.1,0.1-0.2,0.2-0.2,0.4c0.6-0.4,1.3-0.3,1.8,0.2c0.6,0.5,1.2,0.2,1.8,0.8c-0.1-0.1-0.3-0.1-0.4,0
			l-0.1,0.1c0.2-0.1,1.1,0,1,0.4h0.1c0.1,0,0.1-0.1,0.2-0.1c0.1-0.1,0.2-0.1,0.2-0.2c0.2-0.1,0.4-0.2,0.6,0.1
			C208.5,211.8,208.5,212.4,208.2,212.8z"></path><path class="st7" d="M206.1,215.7c0,0.1-0.1,0.2-0.2,0.3c-0.1,0-0.1,0-0.2,0c0-0.1,0-0.2,0.1-0.3l0.5-0.3
			C206.2,215.5,206.2,215.6,206.1,215.7z"></path><path class="st7" d="M201.9,211.8c0.2,0.1,0.5,0.4,0.7,0.3l0,0c0.3,0.5,0.2,0.6,0.1,1c0.3,0.1,0.6,0.3,0.8,0.6
			c0.1,0.2,0.2,0.5,0.3,0.7s0,0.2,0,0.2h-0.1h-0.1c0,0-0.1,0-0.1,0.1c-0.3,0.3-0.4,1.2-0.9,1.5c-0.1,0.1-0.3,0.1-0.4,0.1V216
			l-0.4,0.1l0.1-0.3l-0.3,0.1c0.1-0.1,0.2-0.3,0.2-0.5s0.3-0.4,0.4-0.5c-0.1,0-0.1,0-0.2,0.1c-0.2,0.1-0.3,0.3-0.4,0.4
			c0-0.3,0-0.6,0.1-0.9c-0.3,0.1-0.5,0.2-0.8,0.2c0-0.1,0.1-0.4,0-0.5s-0.4-0.2-0.2-0.5c0,0,0-0.1,0.1-0.1s0.3-0.1,0.4-0.1h0.1
			c0.1-0.1,0.1-0.2,0.2-0.4l-0.5,0.1c-0.1-0.4,0-0.9,0.3-1.1c0.1,0,0.2-0.1,0.3-0.1v0.2C201.7,212.1,201.8,211.9,201.9,211.8
			C201.8,211.7,201.9,211.7,201.9,211.8z"></path><path class="st7" d="M189.9,204.2c0.1,0,0.2,0.4,0.6,0.4c0,0.2,0,0.5-0.1,0.6c-0.1,0-0.1,0-0.2,0c0.2,0.3,0.3,0.6,0,0.8l-0.1,0.1
			l0,0c-0.2,0.1-0.3,0.7-0.4,1l-0.4,0.4c-0.1,0.1,0,0.2-0.1,0.4s-0.2,0.3-0.3,0.4c-0.1,0.1-0.3,0.1-0.4,0.2
			c-0.2,0.1-0.4,0.2-0.6,0.2l-0.5-0.1l-0.9,0.8c-0.4-0.3,0.2-0.5,0-0.9l-0.1,0.1l-0.1-0.1h-0.1c-0.1,0.1-0.3,0-0.3-0.2
			c-0.1,0.1-0.3,0.2-0.5,0.4s-0.5,0.2-0.6,0.1c0.4-0.2,0.7-0.6,1.1-0.9h0.1l-0.1-0.1c0,0.1-0.1,0.1-0.1,0.1
			c-0.1,0.1-0.2,0.1-0.3,0.1c0.1-0.2,0.2-0.3,0.3-0.5c-0.3,0-0.5,0.1-0.8,0.2l-0.1,0.1c-0.1,0.2-0.2,0.3-0.4,0.5
			c-0.1,0.1-0.3,0.1-0.4,0.1c0.1-0.1,0-0.2,0.1-0.2h0.1l-0.1-0.2c0.1,0,0.2,0,0.3-0.1l0.1-0.1c-0.1-0.2-0.4,0.1-0.4-0.3
			c0,0,0-0.1,0.1-0.1s0.2-0.1,0.3-0.1s0.2,0,0.3-0.1c0.1,0,0.1-0.1-0.1-0.3c-0.2,0.1-0.3,0.2-0.5,0h0.1c0.3-0.2,0.4-0.1,0.9-0.1
			c0.1,0,0.4-0.1,0.5,0s0.1,0.2,0,0.3l0,0l0,0c0.2,0.1,0.5,0.3,0.8,0.4c-0.1-0.2-0.2-0.4-0.2-0.7s0.4-0.2-0.2-0.6c0,0,0,0,0.1,0
			c0.2-0.1,0.5,0.1,0.8,0.1c-0.2-0.2-0.4-0.5-0.1-0.6s0.5,0,0.9,0.2l-0.5-0.5c0.1,0,0.3,0,0.4-0.1c0.1-0.1,0.1-0.1,0.2-0.2
			c0.1-0.1,0.2-0.2,0.3-0.2l0.1-0.1c-0.3-0.2-0.2-0.3-0.1-0.4c0.3-0.2,1.3-0.2,1.4,0.3c0-0.1,0.1-0.1,0.1-0.1
			C189.5,204.3,189.7,204.2,189.9,204.2z"></path><path class="st7" d="M209.6,213.7c0.1-0.1,0.1-0.2,0-0.3l39-23.9l16.8,21.7c0,0.2,0,0.3-0.1,0.4l-0.2,0.1
			c-0.4,0.2-1.3-0.3-1.8-0.4c0.2-0.2,0.8-0.5,0.5-0.9c-0.1,0.1-0.2,0.2-0.3,0.3c-0.6,0.1-1.2,0.1-1.7,0.1c-0.3,0-1-0.5-1.3-0.7
			c-0.1-0.1-0.2,0-0.4,0.1c-0.6,0.5-1.2,1-1.8,1.5l-0.2,0.2c-0.7,0.3-1.4,0.6-2.1,0.8c-0.4,0.1-0.7,0.4-1.1,0.1s-0.7-0.5-0.9-0.4
			c-0.1,0.1-0.2,0.2-0.3,0.3c-0.1,0.2-0.3,0.4-0.5,0.5s-0.5,0.2-0.7,0.3c-0.3,0.1-0.8-0.1-1.2-0.1c-0.5,0.1-1.1,0-1.5-0.4
			c-0.4-0.3-0.9-0.7-1.3-0.5c-0.1,0.1-0.3,0.1-0.4,0.2c-0.3,0.2-0.2,0.3-0.3,0.9c0,0.3,1,0.6,1.3,0.8c0.9,0.4,1.9,1,2.8,1.5
			c-0.2-0.4-0.4-0.7-0.6-1.1c0.6,0.4,1.1,0.8,1.4,1.4l0.3-0.2c0.5-0.2,0.9-0.6,1.1-1c0.1-0.7,0.1-1.3,0.1-2c0.4,0.4,0.8,1.1,1.3,1.1
			c0.3,0,0.6,0.1,0.9,0.1c0.2,0,0.4-0.2,0.7-0.1s0.6,0.4,0.8,0.4s0.4,0.2,0.6,0.5s0,1.2,0,1.5l-0.3-0.2c0.1,0.4,0.2,0.8,0.5,1.1
			c0.3,0.4,0.1,0.4,0,0.7s-0.4,0.6-0.5,1s0.3,0.7,0.2,0.9c-0.1,0.1-0.2,0.1-0.3,0.1c-0.1,0-0.1,0-0.2,0.1c-0.2,0.3-0.3,0.5-0.5,0.7
			s0.2,0.7,0,1l-1,1.4c-0.1,0.1-0.1,0.2,0,0.4s-0.1,0.3-0.3,0.5c-0.4,0.4-0.7,0.7-1,1.1c-0.2,0.3,0,0.7-0.4,0.9l-0.3,0.2
			c-0.2,0.1-0.3,0.1-0.7-0.3l-1.7-1.6c-0.8-0.7-1.7-1.2-2.7-1.6c-0.4-0.3-0.8-0.4-1.3-0.3c-0.3,0.1-1-0.8-1.2-1
			c-0.4-0.4-0.9-0.7-1.4-0.9c-0.3-0.2-0.6-0.1-1-0.3c-0.7-0.4-1.4-0.7-2.1-1.1c-0.3-0.2-0.7-0.5-1-0.3c-0.3-0.3-0.5-0.6-0.7-1
			c0.2,0.5,0.4,1,0.6,1.4c-0.7-0.2-1.4-0.5-2.1-0.9c0,0.6,1.1,0.9,1.5,1.2c0.9,0.6,1.9,1.1,2.8,1.6c0.6,0.3,0.9,0.9,1.5,1
			c0.2,0.1,0.8,0.1,1,0.3c0.4,0.4,0.7,0.7,1.1,1c0.2,0.2,0.5,0.6,0.8,0.7c0.4,0.1,0.8,0.1,1.1,0.3c0.7,0.4,1.4,0.9,2,1.4
			c0.2,0.1,0.7-0.2,0.9-0.1l1.1,0.4c0.6,0.2,1.6,0.2,1.5,1.1c0.4-0.1,1.3,0.4,1.6,0.2c0.8-0.9,1.5-1.7,2.2-2.6
			c0.1-0.2,0.3-0.3,0.4-0.5c0.1-0.1,0.3-0.1,0.4,0c0.3,0.5,0.6,1,0.7,1.5c0.3,0.9,0.6,1.9,0.7,2.9c0.2,0.8,0.3,1.5,0.3,2.3
			c-0.3,2-0.4,4-0.2,6c0,0.2,0,0.6,0.1,1.1l-16.2,9.9l-0.3-0.1l-1.9-0.7c-0.3-0.1-0.4-0.5-0.6-0.8c-0.4-0.6-0.8-1.2-1.2-1.9
			s-0.3-0.6-0.9-0.8s-0.7-0.3-0.9-0.1l-0.2,0.1c-0.2,0.1-0.4,0.4-0.6,0.5c-0.1,0.1-0.3,0.1-0.5,0.1l-1.7-0.5c-0.1,0-0.2,0-0.3,0.1
			c-0.6,0.4-1.2,0.9-1.6,1.4L233,247c-0.1,0.1-0.1,0.2-0.3,0.3s-0.4,0.2-0.6,0.2c-0.3,0.1-0.5,0.1-0.8,0.3c-0.1,0.1-0.2,0.2-0.3,0.3
			c-0.3,0.4-0.7,0.9-1,1.4c-0.3,0.2-0.7,0.1-0.9,0l-2.1-0.2c-0.7,0-1.5-0.2-2.1-0.5c-1.4-0.7-2.7-1.4-4.1-2.1
			c-0.4-0.2-0.9-0.4-1.3-0.7c-0.2-0.1-0.4-0.9-0.4-1c-0.1-0.3-0.2-1-0.5-1.3l-1.5-1.3c-0.5-0.3-0.9-0.7-1.2-1.1
			c-0.1-0.3-0.2-0.6-0.2-0.9c-0.3-1.4-0.5-2.7-0.8-4.1c-0.1-0.8,0-1.6,0.4-2.3c0.2-0.4,0.3-0.5,0-1s-0.7-1.2-1-1.8s0.7-1.6,0.5-2.3
			c-0.2-0.5-0.6-1.2-0.2-1.6c0.2,0,0.3,0,0.5,0.1s0.4,0.1,0.6,0c0.1-0.2,0.3-0.4,0.5-0.5l0.8-0.1c0.1-0.4,0.3-0.8,0.5-1.2
			c0.4-0.7,0.9-1.4,1.6-2c0.1-0.1,0.3-0.3,0.5-0.4c0.3,0,0.5-0.1,0.8-0.2c0.2-0.1,0.2-0.4,0.3-0.6s0.4-0.2,0.5-0.3s0.4-0.2,0.6-0.3
			c0.2-0.1,0.4-0.3,0.5-0.6c0-0.1,0.1-0.2,0.2-0.2c0.3-0.1,0.6-0.2,0.9-0.2c0.2,0.7,0.2,0.8,0.9,1.2c0.3,0.2,0.1,0.9,0.1,1.1
			c0.5,0.2,1,0.2,1.6,0.2l2.1-0.6c0.6-0.1,0.8,0.4,1.4,0.4s0.8-0.3,1.4-0.3c0.3,0.1,0.6,0,0.8-0.1s0.2-0.4,0.1-0.8
			c0-0.2-0.5-0.3-0.5-0.5s-0.2-0.6-0.1-0.7c0.2-0.3,0.4-0.5,0.7-0.7c0.2-0.1,0.4-0.2,0.6-0.2c0.1,0,0.2,0.3,0.4,0.2s0.6-0.2,0.9-0.3
			s0.3,0,0.6,0.2c0.1,0,0.1-0.1,0.1-0.1c0-0.1,0.1-0.1,0.1-0.2c0.5-0.1,1.1-0.3,1.6-0.4c0.2,0,0.4-0.1,0.5-0.2
			c0.2-0.1,0.3-0.3,0.4-0.5c0.2-0.3,0.2-0.5,0.4-0.6s0.4-0.1,0.5-0.1c0.3,0,0.5-0.1,0.8-0.2c0.5-0.3,0.7-0.8,0.5-1.4
			c-0.2-0.6-0.6-2.5-1.2-2.8c-0.4-0.2-0.5-1.1-0.7-1.2s-0.2,0.3-0.2,0.4c-0.1,0.1-0.2,0.1-0.3,0.1s-0.2,0-0.2,0
			c-0.1,0.1,0,0.6-0.1,0.8c-0.1,0.1-0.1,0.2-0.2,0.2c-0.1,0-0.2,0.1-0.3,0.2c-0.4,0.2-0.8-0.1-1.2,0.1c-0.1,0-0.3,0.1-0.4,0.1
			c-0.1,0-0.1,0.1-0.1,0.2c0.1,0.4,0.1,0.4-0.1,0.6c-0.4,0.1-0.9,0.2-1.3,0.1c-0.6,0-2.3-0.8-2.2-1.6l-0.4,0.3
			c-0.5-0.5,0.1-1,0.3-1.2c0.4-0.2,0.8-0.6,1-1h-0.6c-0.1-0.2,0.1-0.3,0.2-0.4c0.2-0.1,0.3-0.2,0.5-0.2c0.1,0,0.2-0.1,0.2-0.1
			c0.2-0.1,0.2-0.3,0.3-0.7s0.2-0.7,0.5-0.8s0.4-0.2,0.6-0.3c0.2-0.1,0.3-0.2,0.4-0.4c0,0.2,0.3,0.2,0.5,0.2
			c0.2-0.2,0.3-0.2,0.5-0.1s0.9-0.2,1.2-0.3c0.1,0,0.2,0,0.3-0.1s0.2-0.1,0.2-0.2c0.1-0.1,0.2-0.2,0.3-0.2l0.3-0.1
			c0.3-0.2,0.5-0.5,0.6-0.9s-0.4-0.8-0.8-0.9s-0.8,0-1.3-0.1s-1-0.3-1.5-0.1h-0.6l-0.7-0.1v-0.3l0.5-0.2c-0.5-0.4-0.3-0.7,0-0.9
			c-0.3,0-0.6-0.1-0.8-0.2c0.1-0.1,0.3-0.2,0.4-0.3c-0.4-0.3,0.2-0.3,0.1-0.6c0-0.1-0.1-0.1-0.2-0.1c0,0,0,0-0.1,0
			c-0.1,0.1-0.1,0.1-0.2,0.2c-0.3,0.3-0.7,0.5-0.7,1c-0.4,0.2-0.6,0.5-0.6,0.9V205c-0.4,0.2,0.2,0.6,0.5,0.7c0.2,0.1,0.4,0,0.5-0.1
			c0.2-0.1,0.3-0.2,0.5-0.4c0,0.3,0,0.4-0.2,0.5l-0.3,0.1c-0.1,0-0.1,0.1-0.1,0.1c-0.1,0.3-0.2,0.9-0.6,1c-0.1,0-0.2,0.1-0.2,0.1
			c-0.2-0.6-0.4-0.4-1-0.4c0.1-0.2,0.7-1,0-0.9c-0.1,0-0.2,0-0.2,0.1c-0.1,0.1-0.2,0.2-0.3,0.2s-0.5,0-0.6,0
			c0.1-0.1,0.3-0.1,0.4-0.2c0.1-0.1,0.2-0.2,0.1-0.3c0,0.1-0.1,0.1-0.1,0.1c-0.1,0.1-0.2,0.1-0.4,0.2c-0.1,0-0.2,0.1-0.4,0.1
			c-0.1,0-0.1,0.1-0.1,0.2c0,0.3-0.2,0.9,0,1.2c0.2,0.2,0.3,0.4,0.4,0.7c0,0.2-0.3,0.4-0.2,0.5c0.3,0.5,0.6,0.9,0.4,1.3
			s0.2,0.8,0.7,1.1s1.1,0.1,1.1,0.2c0,0.1,0,0.2-0.1,0.2s-0.2,0.1-0.2,0.1c-0.1,0-0.2,0.1-0.3,0.1l-0.1,0.1
			c-0.1,0.4-0.1,0.9-0.2,1.3c-0.3-0.3-0.1-0.5,0-0.7c-0.2,0-0.4,0.1-0.6,0.2s-0.5,0.2-0.8,0.3c-0.1,0.1-0.2,0.2-0.3,0.4
			c-0.1,0.1,0.2,0.2,0.2,0.3s-0.1,0.2-0.1,0.2c-0.1,0.1-0.3,0-0.6,0c0,0.4,0.4,0.5,0.7,0.6c0.5,0.2,0.4,0.2,0.4,0.6
			c0.6,0,1-0.1,1.3,0.5c-0.2,0-0.4-0.1-0.5,0s-0.1,0.1-0.1,0.3c0.3-0.1,0.5,0,0.4,0.3s0.1,0.3,0.4,0.6c-0.3,0.1-0.4,0.2-0.7,0
			c-0.1-0.1-0.2-0.1-0.2,0s-0.1,0.1-0.1,0.3c-0.7-0.5-0.9-0.5-0.7-1.2c-0.4,0.3-0.5,0.2-1.1-0.1c-0.3-0.2-0.7-0.4-1.1-0.5
			c-0.6-0.1-0.6-0.4-1-0.9s-0.5-0.4-1-0.5c-0.7-0.2-1.5-0.2-2.2,0c-0.4,0-0.7-0.1-1-0.3c-0.3-0.3-0.7-0.5-1.1-0.5
			c0.1,0.2,0.1,0.3,0,0.4s-0.3-0.1-0.5-0.2s-0.2-0.2-0.2-0.2s-0.1,0.1-0.2,0.2c-0.3,0.3-0.4,0.5,0.1,0.8c0.2,0.1,0.2,0.6,0.6,0.6
			c0.4,0,0.7,0,1.1,0.1c0.3,0.1,0.6,0.5,0.9,0.6s0.7,0.2,1,0s0.5-0.3,0.4,0.1c0.5,0.1,2.4-0.2,2.4,0.6c-0.2,0-0.9-0.2-1.1-0.1
			c-0.1,0.2-0.1,0.5,0.1,0.7c0.1,0.2,0.2,0.1,0.5,0.2c0.7,0.1,0,0.6,0.2,0.8s0.2,0.5,0,0.8c-0.1,0-0.2,0-0.3-0.1
			c-0.1,0.4,0.1,0.8,0.4,0.9c0.2,0.1,0.1,0.3-0.1,0.4c-0.1,0.1-0.2,0.1-0.3,0c-0.4-0.4-1.8,0.5-1.7-0.4c0.3-0.1,0.6-0.2,0.9-0.4
			c0.1,0,0.1-0.1,0.2-0.1c0.2-0.2,0.5-0.4,0.6-0.6s-0.2-0.3-0.1-0.5s-0.9-0.9-1-0.8s-0.4,0.2-0.5,0c-0.1-0.1-0.2-0.2-0.4-0.2l0,0
			c-0.3-0.1-0.7-0.2-1-0.1c-0.3,0.2-0.7,0-1.1-0.1c-0.7-0.2-1.3,0-1.8-0.5s-0.5-0.5-1.1-0.4c-0.2,0-0.3,0-0.5,0.1
			c-0.1,0.1-0.2,0.2-0.1,0.3c-0.1,0.6-0.3,1.2-0.6,1.7l-1.4,0.3c-0.2,0.1-0.2,0.6-0.2,0.9s0.6,0.6,0.6,0.8s-0.4,0.7-0.5,0.9
			c-0.2,0.7-0.2,1.4,0,2.1c0,0.2,0.6,0.1,0.6,0.6c0,0.3-0.1,0.8,0.2,1c-0.1,0.1-0.4,0.3-0.4,0.5s0.1,0.6,0,0.6
			c-0.1,0.1-0.3,0.2-0.4,0.3c-0.2,0.1-0.4,0.2-0.6,0.4s-0.2,0.7-0.4,1s-1-0.1-0.9-0.5c-0.1,0.1-0.3,0.2-0.4,0.1c-0.1,0-0.2,0-0.4,0
			c-0.1,0-0.1,0.1-0.1,0.1c0,0.1-0.1,0.2-0.2,0.2l-0.2,0.1l-0.1,0.1c-0.1,0-0.2,0.1-0.2,0.2c-0.1-0.3-0.3-0.5-0.4-0.7l-0.3-0.4
			c-0.7-0.1-0.6-0.3-0.8-0.8s-0.4-1.2-0.8-1.5c-0.4-0.3-0.7-0.6-0.9-1.1c-0.2,0.2-0.5,0-0.5-0.2s0.3-0.5,0.4-0.6
			c-0.1-0.2-0.1-0.3,0-0.4c0.1,0,0.2-0.1,0.3-0.1s0.2,0,0.3-0.1c0.2-0.2,0.3-0.3,0.5-0.5c0.2-0.1,0.4-0.2,0.6-0.2
			c0.1,0,0.2-0.1,0.3-0.1l0.2-0.1l0.2-0.1c0.1-0.1,0.2-0.1,0.2-0.1c0.2-0.1,0.5-0.1,0.7-0.3l0.2-0.1c0.5-0.5-0.5-1.6-0.9-2.1
			s-0.4-0.6-0.9-0.5c-0.3,0.1-0.7-0.4-0.7-0.5c-0.2,0.1-0.2,0-0.3,0s-0.4,0.1-0.4,0.1c-0.3,0-0.4-0.1-0.6,0c-0.2,0.1-0.4,0.1-0.5,0
			l0.1-0.2c-0.2,0-0.4-0.1-0.5-0.2c0.2-0.2,0.5-0.3,0.6-0.6c0-0.1,0.1-0.2,0.1-0.2s0.1,0,0.2,0.1s0.1,0.1,0.2,0.1s0.6-0.6,0.4-0.7
			c-0.2-0.2-0.5-0.4-0.8-0.6c0.2-0.1,0.4-0.2,0.4-0.1s0.2,0.2,0.4,0.1c0.1,0,0.2-0.1,0.3-0.1c0.2-0.1,0.3-0.3,0.4-0.4l-0.3,0.1
			C209.4,214.2,209.5,213.9,209.6,213.7z M238.3,202.1c0.1,0.2,0,0.5,0,0.8c0.4-0.2,0.8-0.1,1.1,0.2c0.3,0.4,0.7,0.8,1.2,1
			c0.3,0.2,0.7,0.1,1.1,0.3c0.4,0.3,0.9,0.4,1.3,0.4c-0.3,0.3-0.4,0.3-0.1,0.7c0.1,0.3,0.2,0.6,0.3,0.8c0.1,0.3,0.3,0.6,0.6,0.8
			c0.3,0.3,0.3,0.2,0.7,0.1s0.5,0.1,0.7,0l0.9-0.2c0.1,0,0.2-0.1,0.2-0.1c0.3-0.2,0.6-0.5,0.8-0.8c-0.4-0.4-0.7-0.8-1-1.2
			c-0.4-0.7-0.4-0.2-1-0.6l0.2-0.1l-0.4-0.3l-0.4,0.1c-0.3-0.1-0.4-0.4-0.5-0.6c0.3-0.1,0.6-0.2,0.9-0.4c0.1,0,0.2-0.1,0.2-0.2
			c-0.2-0.3-0.5-0.3-0.8-0.3s-0.4-0.3-0.6-0.3c-0.1,0-0.2,0-0.2,0.1c-0.3,0.2,0.1,0.8,0.3,1c-0.6-0.3-0.8-0.5-1-1.1
			c-0.3,0.1-0.7,0.1-1,0.1c-0.2-0.1-0.6-0.6-0.8-0.8c0,0-0.9,0.1-0.6-0.1h0.1c0.1,0,0.2-0.1,0.3-0.1s0.2,0,0.2,0
			c0.1,0,0.1-0.1,0.1-0.2c-0.3-0.1-0.5,0-0.6-0.3c0-0.2,0.1-0.3,0.2-0.4h0.1c0.4-0.2,0.8-0.4,1.2-0.5c-0.2,0.3-0.1,0.6,0.1,0.9
			c0-0.4-0.1-0.7,0.2-0.9c-0.3-0.2-0.4-0.2-0.5-0.2l-0.1,0.1l-0.1,0.1c-0.1,0-0.2,0.1-0.3,0.1c-0.1-0.3-0.2-0.7-0.5-0.8
			c-0.1-0.1-0.6-0.3-0.7-0.2s0,0.1,0,0.1c0,0.1,0,0.2-0.1,0.2c-0.2,0.1-0.4,0.1-0.6,0.1h-0.1c-0.2,0.1-0.2,0.5-0.4,0.6
			c0,0.1-0.1,0.1-0.2,0.1l-0.1,0.1l0,0c-0.1,0.1-0.1,0.1,0.1,0.5c0.1,0.2-0.3,0.6-0.4,0.8c-0.2,0.3-0.2,0.3,0.1,0.8"></path><path class="st7" d="M172.4,184.1c0.2-0.1,0.5-0.2,0.7-0.3c0.7-0.2,1.4-0.3,2.1-0.3c-0.2,0.6-0.5,1.1-0.7,1.7
			c-0.3,0.4-0.6,0.8-1,1.1l0.6,0.1c0,0.6-0.1,1.1-0.3,1.6s-0.4,1-0.4,1.5c0.1,0.5,0,1.4,0.5,1.8c0.6,0.3,1.2,0.5,1.8,0.4
			c-0.1,0.7-0.2,1.5-0.3,2.2l1.4,0.1c0.4,0,0.7,0.5,1,0.8c0.1,0.1,1,0.8,1,1c0,0.5-0.1,1.1-0.1,1.6c0.1,0.9,0.4,1.8,0.8,2.6
			c0.1,0.3,0.9,0.8,1.2,1c0.6,0.5,0.5,0.5,0.5,1.1c-0.4,0.9-0.7,1.8-1.1,2.8c-0.4,0.7-0.9,1.3-1.5,1.9c-0.4,0.4-0.7,0.8-1.1,1.2
			s-0.2,0.5-0.2,0.9c0.1,0.5,0.1,1,0,1.6c-0.2,0.4-0.4,0.7-0.7,1c-0.4,0.4-0.7,0.9-1.1,1.4s-0.2,0.4-0.1,0.9c0.3,0.9,0.7,1.9,1,2.8
			c0.5,1.2,0.9,2.3,1.4,3.5c0,0-0.1,0.2-0.3,0.3c-0.1,0.1-0.3,0.2-0.5,0.2l-1.9,0.3c-0.3,0.1-0.7,0.2-1.1,0.1l-20.2-26.2
			c0.9-0.2,1.7-0.4,2.6-0.6c-0.9-0.3-1.8-0.5-2.8-0.4c0.4-0.7,0.8-1.4,1.2-2.1c0.1-0.1,0.2-0.2,0.3-0.3c0.4-0.2,0.8-0.3,1.2-0.4
			l1.3-0.5c0.3-0.2-0.1-0.7,0.1-1c0.1-0.2,0.3-0.3,0.4-0.4l0.1-0.1c0.5-0.4,1-0.7,1.4-1.1c0.2-0.2,0.5-0.3,0.7-0.5
			c1.1-0.6,2.3-1.2,3.6-1.6c1.4-0.5,2.9-0.8,4.3-0.8c-0.4,0.6-0.8,1.2-1.2,1.7c0.4,0,0.7-0.1,1-0.3h0.1l0.3-0.2
			c0.5-0.3,0.7,1.3,0.7,1.4c0.2-0.4,0.5-1.3,0.9-1.5s0.8-0.3,1.2-0.4s0.2-0.6,0.2-0.9S172,184.3,172.4,184.1z"></path><path class="st7" d="M154.1,194.7l20.2,26.1l-2-0.9c-1.2-0.5-2.3-1-3.4-1.7l-2-1.4c-0.4-0.5-0.8-1-1-1.6l-0.3-0.6
			c0.2-0.3,0.4-0.6,0.5-0.9l0.3-0.5c-0.2-0.3-0.4-0.7-0.6-1l-0.9,1.1c-0.1,0.1-0.2,0.3-0.3,0.4c-0.2,0.1-0.3,0-0.8-0.1
			s-0.6-0.6-0.9-1.1s-0.8-0.5-1.4-0.7s-0.5-0.6-0.7-1.1s-0.3-0.6-0.9-0.9c-1-0.7-2-1.2-3.1-1.7c-0.3-0.1-1.2-0.6-1.5-0.5l-1.4,0.5
			c-0.7,0.2-1.3,0.5-1.9,0.8c-0.2,0.1-0.3,0.2-0.5,0.3c-0.4,0.3-0.8,0.6-1.1,1c-0.2,0.2-1.1,0-1.4,0h-1.7c-0.5-0.1-1-0.3-1.5-0.6
			c-0.1-0.1-0.7-0.2-0.8-0.3s-0.4-0.6-0.3-0.7l1.5-1.8c0.3-0.4,0.7-0.8,1.2-1.2c0.3-0.2,0.4-0.2,0.3-0.6s-0.3-0.8-0.4-1.2
			c-0.6,0.3-1.1,0.7-1.8,0.4c0.6-1.3,1.3-2.6,1.9-3.9c0.2-0.5,0.5-1.1,0.8-1.6s0.8-0.7,1.1-0.9l2.1-1.8c0.3-0.3,0.6-0.6,0.9-0.8
			l0.2-0.1C153.1,195,153.6,194.9,154.1,194.7z"></path><path class="st7" d="M177.8,236.3c-0.1,0.1-0.3,0.1-0.5,0.1c-0.2-0.2-0.4-0.5-0.5-0.8c0.1-0.7,0-1.4-0.1-2l0.6-0.4l0.1,0.1
			c0.1,0.1,0.3,0,0.4,0s0.3,0.3,0.4,0.4c0.2-0.3,0.4-0.5,0.6-0.7c0.1-0.1,0.2-0.1,0.3-0.1c0.4,0.1,0.4,0.1,0.6,0.5
			c0.1,0.1,0.5,0,0.7,0.2s1,0.8,1,1.2c0,0.2,0,0.3-0.1,0.3s-0.2,0.1-0.3,0.1c-0.4,0.1-0.4,0-0.6-0.4c-0.5,0.3-0.3,0.7-0.7,1.1
			c-0.1-0.2-0.1-0.4,0-0.6c-0.4,0-0.9,0.1-1.2,0.4c-0.2,0.1-0.3,0.2-0.5,0.4L177.8,236.3z"></path><path class="st7" d="M154.2,222.1c0.2-0.1,0.5,0,0.7,0.1c-0.1,0-0.9,0.6-0.9,0.2C154,222.3,154.1,222.2,154.2,222.1z"></path><path class="st7" d="M175.2,238.6c0.2,0.1,0.3,0.2,0.4,0.3l1.1-0.6c0,0.3,0,0.5-0.2,0.7c-0.1,0-0.2,0.1-0.2,0.1
			C175.9,239.1,175.3,239.3,175.2,238.6z"></path><path class="st7" d="M146.4,218.6c-0.3-0.1-0.1-0.3-0.5-0.3s-0.8-0.5-0.5-0.8c0.3,0,0.6-0.1,0.9-0.1l0.1-0.1l0.1-0.1l0.1-0.1
			c0.1,0,0.1-0.1,0.2-0.1c0.6-0.1,1.3,0,1.9,0.3c-0.2,0.1-0.5,0.2-0.7,0.4c-0.1,0-0.1,0.1-0.2,0.1c-0.2,0.3-0.4,0.6-0.7,0.8H147
			C146.8,218.6,146.6,218.6,146.4,218.6z"></path><path class="st7" d="M153,222.4c0.2-0.1,0.4-0.1,0.6,0c0.1,0.4,0.4,0.5,0.5,1c0,0.1,0,0.3-0.2,0.3c-0.3,0.1-0.6,0.2-0.9,0.1
			C152.4,223.7,152.5,222.8,153,222.4z"></path><path class="st7" d="M132.4,209.6c-0.2,0.3-0.4,0.6-0.6,0.9l-1.3,0.1c0.1-0.4,0.4-0.7,0.7-1c0.2-0.1,0.4-0.2,0.6-0.1
			c-0.1-0.4,0.1-0.8,0.5-1c0.2-0.1,0.3-0.2,0.5-0.2l0.5-0.3l0.1-0.1h-0.7l0.7-0.5l-0.5-0.3h0.1l0.1-0.1l0.2-0.1
			c0.1-0.1,0.3-0.1,0.4-0.1c0.4,0.1,0.9,0.1,1.3,0.1l2.4-0.7l-2.6,0.1c0-0.3,0-0.9,0.3-1l0.7-0.5c0.1-0.1,0-0.3,0.1-0.5l0.1-0.1
			c0.3-0.2,0.7-0.3,1-0.3l1.4-0.2c-0.5-0.1-1-0.2-1.5-0.2l1.5-0.9c0.4-0.2,1.1,0,1.5,0l-0.6-0.4c0.5-0.5,1.1-1,1.6-1.4
			c0.7-0.4,1.4-0.7,2.2-0.9l-0.6,1.2c0.4-0.4,0.8-0.8,1.2-1.2c0.1-0.1,0.3-0.1,0.4-0.2c0.8-0.3,1.7-0.6,2.5-0.7
			c-0.3,0.6-0.5,1.7-1.1,2.1c-0.8,0.6-1.5,1.1-2.2,1.7c0.4-0.2,0.8-0.3,1.2-0.5l-1.4,1.7l2.6-2.6c0.4,0.5-0.7,1.8-0.9,2.3
			c-0.1,0.5-0.3,0.9-0.5,1.4c-0.3,0.3-0.7,0.7-1,1l0.8-0.4c0,0.4-0.1,0.8-0.3,1.1c0,0.1-0.1,0.1-0.1,0.2c-0.2,0.1-0.5,0.2-0.7,0.2
			c0.1,0.1,0.3,0.2,0.4,0.3c-0.6,0.6-1.2,1.1-1.9,1.6l0.3-0.2l0.2-0.1c0.4-0.2,0.9-0.5,1.1-0.1l-1.1,0.7c0.3-0.1,1.2-0.6,1.5-0.1
			l-0.9,0.7h0.8c0.1,0.4,0,0.7-0.3,1c0,0,0,0.1-0.1,0.1c-0.1,0.1-0.2,0.1-0.4,0.1c-0.1,0-0.3,0-0.4,0.1c0,0,0,0,0,0.1
			c-0.1,0.2,0.6,0.1,0.5,0.6c0,0.2-0.3,1,0,1.1s0.2,0.1,0.3,0.1s0.1-0.1,0.1-0.2c0-0.1,0-0.1,0.1-0.1s0.2,0,0.4,0s0.4,0.3,0.5,0.4
			s-0.1,0.3-0.2,0.4l0,0c-0.1,0-0.1,0-0.2,0h-0.1c0,0.1,0.1,0.3,0,0.4c-0.3,0.3-0.5,0.6-0.8,0.9c-0.2-0.4-0.1-0.5-0.5-0.6h-0.1
			l-0.1,0.1l-0.1,0.1c-0.1,0-0.2,0-0.3,0c0.1,0.2,0.1,0.3,0,0.4c-0.2,0.1-0.5,0.1-0.7-0.1c0.2,0.2,0.2,0.3,0.1,0.3
			c-0.1,0-0.2,0.1-0.4,0.1h-0.1c-0.2,0.1-0.1,0.4-0.3,0.5c-0.3,0.1-0.5,0.3-0.8,0.4c-0.1,0-0.1,0.1-0.2,0.1l-0.1,0.1
			c-0.1,0.1-0.2,0.1-0.4-0.1c0.1,0.2,0,0.3-0.1,0.4c-0.3,0.1-0.6,0-0.8-0.2c0,0.2,0,0.5-0.1,0.5s-0.2,0-0.4,0
			c0.1-0.2-0.2-0.2-0.2-0.4s0.3-0.4,0.4-0.6c0.2-0.4,0.5-0.4,0.6-1c-0.5,0.2-0.5,0.2-1.1-0.1c0.1-0.2,0.3-0.3,0.4-0.4
			c0.2-0.1,0.3-0.2,0.5-0.2c0.3-0.1,0.7,0.3,1.1,0.2c0.1,0,0.3-0.1,0.4-0.2c0.5-0.3,0.5-0.9,0.4-1.7c0,0.4,0,1.2-0.4,1.4
			c-0.1,0.1-0.2,0.1-0.3,0.1c-1-0.1-0.7-0.7-1-1.4c0,0.4,0,0.9-0.3,1.1h-0.1c-0.6,0.2-1.1,0.4-1-0.4c0.1-0.5,0.4-0.9,0.8-1.1
			c0.4-0.2,0.9-0.4,1.4-0.4c-0.6-0.4-1.3-0.6-2-0.6c-0.7-0.1-1.4,0.5-1.7-0.6l1.5-0.8c0.7-0.1,1.4-0.1,2.1,0
			c-0.6-0.1-1.2-0.2-1.8-0.4c0.9-0.8,1.7-1.6,2.4-2.5l-0.6,0.1c0.1-0.4,0.1-0.8,0.2-1.2c-0.4,0.6-0.6,1.2-0.7,1.9
			c0,0.2-0.5,0.5-0.7,0.7l-0.8,0.8c0-0.3,0.1-0.6,0.2-0.9l-0.6,0.7v-0.3c-0.1,0.1-0.4,0.4-0.3,0.5s0.2,0.3,0,0.4l-0.2,0.1
			c-0.4,0.2-0.8,0.4-1.3,0.6c0.1-0.6,0.3-1.1,0.7-1.5c-0.5,0.3-0.8,0.8-1,1.3c-0.1,0.2-0.2,0.3-0.3,0.4c-0.4,0.2-0.8,0.3-1.2,0.3
			c0.3-0.4,0.6-0.7,1-1s0.7-0.7,0.9-1.2c-0.3,0.5-0.8,0.9-1.2,1.2c-0.3,0.2-0.6,0.5-0.8,0.7c-0.2,0.1-0.4,0.2-0.7,0.1L132.4,209.6z"></path><path class="st7" d="M137,216.9c0.2-0.1,0.5-0.1,0.4,0.1l0.3,0.2h-0.1c-0.2,0.1-0.8,0.1-0.7-0.2C136.9,217,136.9,217,137,216.9z"></path><path class="st7" d="M155.8,230c0.6-0.1,0.5,0.7,0.5,1c-0.3-0.1-0.4-0.1-0.6-0.3S155.6,230.2,155.8,230L155.8,230z"></path><path class="st7" d="M135.9,216c0.3-0.2,0.7-0.1,0.9,0.1c-0.1,0.1-0.2,0.3-0.3,0.4c-0.1,0-0.1,0-0.2,0.1c-0.1,0-0.7,0.1-0.6-0.2
			C135.7,216.2,135.8,216.1,135.9,216z"></path><path class="st7" d="M153,217.5c-0.1,0.2-0.4,0.8-0.2,0.9c0.1,0.1,0.2,0.1,0.3,0c0.2-0.2,0.2-0.4,0.1-0.6c0-0.1,0-0.1,0.1-0.2
			c0.6-0.2,1.3-0.2,1.9-0.2c0.2,0.4-0.3,0.7-0.5,0.9c0.2-0.1,0.4-0.3,0.6,0.1c0.1-0.2,0.4-0.5,0.2-0.9c0.3,0,0.8,0,1,0.3l-0.2,0.1
			c-0.2,0.1-0.4,0.4-0.4,0.6c0.2,0,0.4,0,0.6-0.1l0.1-0.1c0.1-0.1,0.1-0.1,0.2-0.2c0.1-0.1,0.2,0,0.5,0.2l-0.8,0.3
			c0.2,0.2,0.3,0.3,0.5,0.5l-0.4,0.4c0.8-0.1,1.6-0.2,2.4-0.3c0.3-0.1,0.7,0,1,0.1c0.4,0.1,0.7,0,1.1-0.1c0,0.2,0,0.4,0.1,0.5
			c0.2-0.1,0.4-0.3,0.6-0.5c0.1-0.1,0.2-0.1,0.3-0.1c0.5-0.1,0.6,0.3,0.9,0.7c-0.2,0-0.3,0.1-0.5,0.2c-0.1,0-0.1,0.1-0.1,0.2
			l0.6-0.1c-0.2,0.3-0.2,0.6-0.4,0.7c-0.1,0.1-0.3,0.1-0.5,0.1c0.3,0.3,0.6,0.6,0.8,1c-0.6,0.1-1.2,0-1.8-0.2
			c0.1-0.2,0.4-0.5,0.1-0.8c-0.1,0.1-0.2,0.5-0.4,0.6s-0.7-0.2-1-0.2c-0.1,0-0.2,0-0.3,0.1c-0.1,0-0.1,0.1-0.1,0.3
			c0,0.4,0.4,0.2,0.6,0.5l-0.5,0.2l0.5,0.4c0.1-0.1,0.1-0.2,0.2-0.3s0.1,0,0.3,0.1l0.8,0.6c-0.1-0.2-0.1-0.3,0-0.3s0.3-0.1,0.4-0.1
			c0.4,0,0.4,0.1,0.7,0.4s0.4,0,0.7,0.1s0.5,0.5,0.7,0.7l-0.6-0.2c0.1,0.4,0.6,0.2,0.7,0.6l-0.2,0.1l0.4,0.3c-0.1,0.1-0.8-0.1-1-0.1
			h-1.6l0.3,0.2L161,225l0.8,0.4c0.2,0.1,0.5-0.1,0.7-0.1s0.7,0,1,0.1s0.3,0.2,0.5,0.5c-0.7,0.2-1.4,0.4-2,0.6
			c-0.2,0.1-0.4-0.2-0.6-0.2l-1,0.3v-0.2c-0.3,0.1-0.6,0.2-0.9,0.2l0.3-0.5c-0.4,0-0.6,0.2-1,0.1s-0.7-0.4-0.9-0.3
			c-0.1,0.1-0.2,0.2-0.2,0.3c-0.1-0.2-0.3-0.2-0.5-0.1l0.1,0.3c-0.2,0-0.4,0.1-0.6,0.2c-0.1,0.1-0.2,0.1-0.2,0.2
			c-0.1,0.2-0.2,0.4-0.4,0.5l-0.1,0.1l-0.2,0.1c-0.2,0.1-0.8-0.1-0.8-0.3s0.2-0.6,0-0.9c0.4-0.1,0.7-0.3,1.1-0.4
			c0.1-0.1,0.2-0.2,0.3-0.2c0.1-0.1,0.6-0.6,0.6-0.7s-0.7-0.2-0.9-0.3c0.1-0.6,0.1-1.2,0.2-1.7c0-0.2,0.1-0.3-0.1-0.4l-1.1-0.6
			c-0.6-0.3-0.9,0.1-1.4-0.1c-0.2-0.1-0.3-0.2-0.4-0.1s-0.1,0.1-0.2,0.2l-0.4,0.6c-0.4-0.6-0.3-0.5,0.1-1c-0.4,0-1.2-0.3-1.5-0.2
			c-0.1,0-0.1,0.1-0.1,0.2l-0.4-0.4h-0.1l-0.1,0.1l-0.1,0.1c0,0,0,0-0.1,0c-0.3,0-0.6-0.3-0.7-0.2s-0.1,0.1-0.1,0.2
			c0.4-0.1,0.5,0,0.9,0.2c-0.1,0.2-0.3,0.3-0.5,0.4c-0.4,0.2-0.9,0.4-1.4,0.5l0.9,0.2l-0.1,0.1c-0.2,0.1-0.4-0.1-0.6,0l-0.1,0.3
			l-0.6,0.1c-0.3,0.1-0.5,0.2-0.7,0.3l-0.3,0.2l-0.2,0.1c-0.1,0-0.1,0.1-0.2,0.1c-0.2,0.1-0.5,0.2-0.8,0.2c-0.4-0.1-0.2-0.4-0.5-0.2
			l-0.1,0.1c-0.1,0.1-0.1,0.3-0.3,0.4c-0.1,0-0.2,0.1-0.2,0.1c-0.5,0-1-0.1-1.4-0.3l1.4-0.7c-0.8-0.2-1.1,0.1-1.8,0.4l-1-0.9
			c-0.2-0.3-0.3-0.7-0.4-1.1c-0.2-0.5-0.2-1.2,0.1-1.7c0.2-0.3,0.4-0.6,0.8-0.9c0.2-0.1,0.4-0.2,0.6-0.3l0.3,0.6
			c0.4-0.4,0.7-0.8,0.9-1.2c0-0.1,0.1-0.1,0.1-0.1c0.1-0.1,0.4-0.2,0.5-0.2s0.4,0.2,0.7,0.4s0.4,0,0.7,0.2s0.4,0.3,0.5,0.8
			c0.1,0.2,0.1,0.3,0.2,0.2c0.1-0.1,0.1-0.2,0.1-0.3c0-0.3,0-0.4,0.1-0.4s0.2,0,0.4,0s0.1-0.6,0.2-0.7s0.4-0.4,0.6-0.5h0.1
			c0.5-0.2,1-0.3,1.5-0.2c0.4,0.1,1.5,0.6,1.7,0.4c0.1-0.2,0.3-0.3,0.5-0.4C152.5,217.4,152.8,217.4,153,217.5z"></path><path class="st7" d="M129.8,214.6l1-0.5l0.3-0.1l-0.3-0.1l0.1-0.3c-0.1,0-0.1,0-0.2,0.1c-0.1,0-0.1,0.1-0.2,0.2
			c-0.1,0.1-0.1,0.1-0.2,0.2c-0.1,0-0.1,0.1-0.2,0.1l0.1-0.1c-0.3,0.1-0.4,0.2-0.8,0.3c0.1-0.1,0.2-0.3,0.3-0.4
			c-0.6-0.1,0.4-0.8,0.5-0.9c-0.3-0.1-0.6,0.2-0.8,0.2c-0.1-0.3,0-0.6,0.3-0.7l0,0l0.2-0.1l0.2-0.1c0.1-0.1,0.3-0.2,0.2-0.4
			c-0.3,0-0.5,0.3-0.9,0.3c0-0.2,0.1-0.4,0.2-0.4c0.2-0.1,0.4-0.2,0.6-0.2c0.6-0.1,1.1,0,1.7,0.3c0.3,0.1,0.6,0.1,0.9,0
			c0.1,0,0.1-0.1,0.2-0.2h0.1c0.2-0.1,0.3,0.3,0.4,0.3c0.2,0.1,0.4,0.1,0.6,0l0,0c-0.2-0.1-0.4-0.2-0.5-0.3c0-0.1,0.1-0.2,0.2-0.3
			c0.2-0.1,0.5-0.1,0.6,0.1c0.1,0.1,0.1,0.2,0.1,0.3c0.7-0.3,0.7,0,0.9,0.7c0.1-0.2,0.2-0.4,0.4-0.5c0.1-0.1,0.3-0.1,0.5,0.1
			l-0.1-0.4c0.3,0,0.6,0.1,0.9,0.3c-0.2,0.4-0.5,0.7-0.7,1h-0.1c0.4,0.2,0.2,0.5,0.1,0.8c-0.2-0.2-0.5-0.3-0.6-0.6
			c-0.4,0.5,0.7,0.8,0.4,0.9c-0.2,0.1-0.3,0.1-0.5,0.1c0.4,0.2,0.4,0.4,0.5,0.7l-1.3-0.3l0.9,0.5c-0.4,0-0.6-0.1-0.9,0.1h-0.1
			c0.2,0,0.3,0,0.4,0.1c-0.5,0.2-1.1,0.8-1.8,0.5l0.6-0.5c-0.4,0.1-0.9,0.6-1.4,0.4l0.4-0.3c-0.3,0.1-0.6,0.1-0.9,0.1
			c0.5-0.6,1.2-1.2,1.8-1.7c-0.2,0.1-0.4,0.3-0.6,0.4c-0.2,0.1-0.4,0.2-0.6,0.2c0.2-0.2,0.5-0.4,0.7-0.6c-0.2,0-0.5,0.1-0.7,0.2
			c-0.2,0.1-0.4,0.2-0.6,0.2c0.1,0.1,0.1,0.2,0.1,0.2h-0.1H132c-0.1,0.1-0.1,0.3-0.2,0.4h-0.1l-0.1-0.2h-0.1
			c-0.1,0.1-0.1,0.2-0.2,0.4c0,0,0,0.1-0.1,0.1s-0.1,0-0.2,0c-0.1,0-0.1,0-0.2,0l0,0c-0.1,0.1-0.4-0.1-0.2-0.2s0.4-0.3,0.4-0.6
			c-0.1,0.2-0.3,0.3-0.4,0.4C130.5,215,130,214.9,129.8,214.6z"></path><path class="st7" d="M153.4,231.5c-0.2-0.2-0.2-0.2-0.1-0.4c0.1-0.3,0.3-0.5,0.5-0.7c0.1,0,0.2-0.1,0.4-0.2
			c0.3,0.5,0.2,1.2-0.4,1.5l0,0L153.4,231.5z"></path><path class="st7" d="M134.1,217.5l-0.4,0.2c-0.4,0.2-0.7,0.4-1,0.2c0.1-0.3,0.4-0.6,0.7-0.8s0.7-0.3,1-0.4c0,0.2,0,0.4,0,0.6
			L134.1,217.5z"></path><path class="st7" d="M154.4,228.9c-0.1,0.2-0.1,0.4-0.2,0.6c-0.4,0.1-1.4,0.5-1.7-0.1c-0.2,0.3,0,0.6-0.2,0.9s-0.1,0.6-0.1,0.9
			l0,0c0,0-0.7-0.5-0.8-0.5s0,0,0,0s-0.6,0.6-0.7,0.6c0-0.3,0.1-0.7,0.1-1c-0.1-0.1-0.3-0.3-0.4-0.4c-0.1-0.2-0.2-0.4-0.3-0.6
			c-0.2-0.5-0.5-0.8-0.3-1.2l0.1-0.1c0.2-0.2,0.7,0.3,0.4,0.6l0.3,0.2c0-0.2,0-0.3,0.1-0.3s0.2,0,0.4,0.1s0.4-0.1,0.7-0.1
			s1.8-0.1,1.7,0.6c0.1-0.1,0.2-0.2,0.3-0.2C153.8,228.8,154,228.8,154.4,228.9z"></path><path class="st7" d="M138,220.2c-0.5-0.3-0.7-0.3-0.9-0.9c0.1-0.5-0.7-0.6-1-0.7c-0.2-0.1-0.4-0.1-0.5,0s-0.2,0.2-0.4,0.4
			c-0.1,0.1-0.3,0.2-0.4,0.3c-0.2,0.1-0.5,0.1-0.8,0.1c-0.6-0.2-1-0.3-0.6-0.8l0.2-0.2c0.3-0.2,0.7-0.3,1-0.4
			c0.4-0.1,0.8,0.1,1.1-0.1c0.1,0,0.1,0,0.2,0c0.1-0.1,0.2-0.1,0.2-0.2c0.1-0.1,0.2-0.2,0.3-0.2c0.1-0.1,0.2-0.1,0.3-0.1
			c0.3,0,0.3,0.2,0.6,0.1l0.7-0.2c0.1,0.2-0.1,0.3-0.3,0.4s-0.2,0.1-0.1,0.2h1.1h0.7l0.3-0.4l0.1-0.1c0.4-0.2,0.8-0.3,1.2-0.4h-0.3
			c0.3-0.3,0.5-0.5,0.7-0.8c0.1-0.1,0.1-0.1,0.2-0.2l0.2-0.1l0.2-0.1c0.1-0.1,0.2-0.1,0.2-0.2c0.1-0.1,0.2-0.3,0.4-0.3
			c0.6-0.3,1.3-0.4,2-0.2c-0.1,0.2-0.1,0.4-0.2,0.6c0.2-0.1,0.4-0.1,0.6-0.1c-0.2,0.3-0.4,0.3-0.2,0.7c0.1,0.2-0.6,0.6-0.7,0.7
			l-0.1,0.1c-0.2,0.1-0.4,0.2-0.6,0.2c-0.3,0.1-0.4-0.4-0.8-0.2c0.1,0.1,0.3,0.3,0.4,0.4c-0.1,0.2-0.3,0.3-0.5,0.5
			c-0.1,0.1-0.3,0.1-0.5,0c0.1,0.2,0,0.4-0.1,0.5l0,0c-0.2,0.1-0.4,0.1-0.6,0l0.2,0.2c-0.4,0.2-0.7,0.4-1.1,0.6s-0.3-0.4-0.7-0.3
			c0.1,0.1,0.1,0.3,0.2,0.4l-0.3-0.1c0.1,0.2,0.1,0.4,0,0.4s-0.2,0.1-0.3,0.1c-0.3,0.2-0.3,0.1-0.7-0.1c-0.1,0.1-0.1,0.4-0.3,0.5
			C138.3,220.4,138.1,220.4,138,220.2L138,220.2z"></path><path class="st7" d="M131.9,217.4c-0.5-0.1-0.7,0.4-1.3,0l0.1-0.1c-0.5-0.1-0.4-0.3-0.2-0.5c0.2-0.1,0.4-0.2,0.7-0.2
			c0.2,0,0.6,0.1,0.7,0s0.5-0.2,0.8-0.2c0,0.4,0.3,0.3,0.3,0.5s-0.3,0.4-0.4,0.6c-0.1,0.2-0.2,0.3-0.4,0.4l0,0
			c-0.1,0-0.5-0.1-0.7-0.1C131.6,217.7,131.8,217.6,131.9,217.4z"></path><path class="st7" d="M129,215.9c-0.3,0.1-0.5,0.1-0.8,0.2c-0.4-0.2-0.3-0.5,0-0.6c0.2-0.1,0.4-0.1,0.6,0
			C129.1,215.6,129.1,215.8,129,215.9z"></path><path class="st7" d="M136.9,220.4c0.6,0.6,0.1,0.8-0.2,1.1c-0.3,0-1.2,0.2-1.5,0c-0.6-0.4,0.3-1.2,0.4-1.4c0,0,0-0.1,0.1-0.1
			C136,219.9,136.6,220.1,136.9,220.4z"></path><path class="st7" d="M129.9,219.4c-0.2,0.1-0.2,0.3-0.4,0.4s-0.6,0-0.3-0.2c0.1-0.1,0.2-0.2,0.3-0.2c0.2-0.1,0.4-0.1,0.6,0
			C130,219.4,129.9,219.4,129.9,219.4z"></path><path class="st7" d="M126.6,219.3l-0.1-0.4l-0.5,0.3c-0.2-0.6,0.1-0.7,0.5-1.1l0.1-0.1c0.3-0.2,0.8,0,1.2,0.2
			c0.1-0.2,0.3-0.4,0.4-0.6c0.2-0.1,0.4-0.1,0.6,0.2c0.1-0.1,0.2-0.2,0.3-0.2c0.1-0.1,0.3-0.1,0.4,0c0.2,0,0.2,0,0.3,0.3
			s0.4,0.2,0.6,0.2c0.7,0.2,0.5,0.6,0.2,0.8c-0.1,0.1-0.3,0.2-0.5,0.1c-0.4-0.2-0.5-0.3-0.8-0.2s-0.6,0.4-1,0.3h-0.1
			c-0.1,0.1-0.2,0.2-0.3,0.3c-0.1,0.1-0.2,0.3-0.3,0.4c-0.2,0.1-0.4,0.1-0.7-0.2c0.1-0.1,0.1-0.2,0.2-0.2l0.2-0.1l0.2-0.1
			c0.2-0.1,0.3-0.2,0.1-0.4L127,219v-0.2c-0.1,0-0.2,0-0.2,0c-0.1,0.1-0.1,0.2-0.1,0.2C126.7,219.1,126.6,219.2,126.6,219.3
			L126.6,219.3z"></path><path class="st7" d="M132.1,220.4c0.1-0.1,0.2-0.1,0.2-0.2c0,0,0-0.1,0.1-0.1c0.2,0,0.4-0.1,0.6,0l0.6,0.3
			c0.1,0.1,0.2,0.4,0.3,0.5s0.4,0.2,0.5,0.4h-0.3c0.1,0.1,0.2,0.3,0.1,0.4h0.4c0,0.2-0.1,0.3-0.3,0.4c-0.2,0.1-0.4,0.2-0.6,0.3
			c-0.1,0-0.1,0.1-0.1,0.2c0,0.1,0,0.1-0.1,0.1l0,0c-0.3,0.1-0.4,0.2-0.7,0l0.2-0.2c-0.2,0-0.4,0.1-0.5,0.2c0-0.1,0-0.3,0.2-0.4h0.1
			h-0.1l0,0c0.1-0.1,0.2-0.2,0.1-0.4c-0.3,0.3-0.7,0.6-1,0.9c-0.1,0.1-0.1,0.1-0.2,0.2c-0.3,0.2-0.7,0.3-0.5-0.2l-0.5,0.3
			c0-0.2,0.1-0.3,0.2-0.4l0,0l0.3-0.1c0.1,0,0.2-0.1,0.2-0.1c0.1-0.1,0.2-0.1,0.1-0.3c0,0,0,0.1-0.1,0.1c-0.2,0.1-0.4-0.1-0.2-0.3
			l-0.4,0.2c-0.2-0.2-0.2-0.3-0.1-0.4c0.3-0.2,1.5,0.1,1.7,0.1l-0.8-0.3l0.3-0.2c-0.2-0.2-1,0.2-0.7-0.2c0.1-0.1,0.1-0.2,0.2-0.2
			c0.1-0.1,0.2-0.1,0.3-0.1C132,220.6,132.1,220.5,132.1,220.4z"></path><path class="st7" d="M129.4,221.9c0.1-0.1,0.2-0.1,0.3-0.1h0.6c0,0.2-0.1,0.3-0.3,0.4c-0.1,0.1-0.3,0.1-0.4,0.2
			c-0.2-0.2-0.2-0.1-0.4-0.3C129.2,222.1,129.3,222,129.4,221.9z"></path><path class="st7" d="M128.5,221.5c-0.2-0.1-0.6,0.1-0.8,0l-0.5-0.4l0.1-0.1c0.2-0.1,0.4,0,0.6,0s0.4,0.1,0.6,0.1
			c0.2,0.1,0.3,0.3,0.2,0.4C128.6,221.5,128.6,221.5,128.5,221.5z"></path><path class="st7" d="M139.2,229.8c-0.1-0.4,0.4-0.3,0.3-0.6l0.1-0.1c-0.4,0-0.3-0.4-0.3-0.6c0-0.1,0-0.1,0.1-0.2
			c0.1-0.1,0.4,0,0.6,0c0.6,0,1.2,0.1,1.7,0.2c-0.1,0.3-0.1,0.8-0.4,0.9h-0.1c-0.3,0.1-0.9,0.4-1.3,0.1l0.1,0.2
			c-0.1,0.1-0.3,0-0.4-0.1c0,0.1,0,0.1,0,0.2L139.2,229.8z"></path><path class="st7" d="M186.1,262.9c-0.2,0.1-0.3,0.1-0.5,0.1c-0.1-0.1-0.1-0.2,0.1-0.3c0.1-0.1,0.3-0.1,0.4-0.2
			c0.1-0.1,0.3-0.1,0.4-0.2c0.1-0.1,0.2-0.1,0.2-0.2c-0.6-0.2-0.6-0.4-1.2-0.4c0.1-0.1,0.2-0.3,0.3-0.3c0.1-0.1,0.3-0.1,0.6-0.3
			l0.3-0.3c0,0,0-0.1,0.1-0.1c0.2-0.1,0.3-0.1,0.5-0.1h0.1c0,0,0,0,0.1,0l0,0c0,0,0.1,0,0.2,0c0.4,0.2,0.4,0.2,0.7,0.1
			c0.1,0,0.5,0,0.6,0.1s0,0.2,0,0.2s-0.2,0-0.3,0.1c-0.3,0.2-0.5,0.4-0.8,0.6l0,0h-0.1h-0.1l-0.1,0.1c0,0.1,0.3,0.5,0.2,0.6
			s0,0,0,0.1s-0.4-0.3-0.5-0.2c-0.1,0-0.1,0-0.1,0l-0.1,0.1l-0.1,0.1h-0.1c-0.1,0-0.1,0.1-0.2,0.1c-0.1,0-0.1,0.1-0.2,0.1
			L186.1,262.9z"></path><path class="st7" d="M137.5,224.4l0.5,0.3c-0.1,0.1-0.2,0.2-0.2,0.3c0.8-0.1,0.5,0.9,0.1,1.2c0,0-0.1,0.1-0.2,0.1
			c0.2,0.1,0.2,0.4,0.1,0.6l-0.1,0.1h-0.1c-0.3,0.1-0.7-0.1-1-0.2c-0.7-0.2-1.5-0.2-2.2-0.2c-0.4-0.1-0.3-0.4-0.1-0.6l0,0
			c0.2-0.1,0.7,0.2,0.9,0.1h0.1c0.3-0.2,0-0.5-0.2-0.8s-0.8,0-1,0.1c0-0.2,0-0.6,0.1-0.7s0.3-0.2,0.4-0.3c0.1-0.1,0.2-0.1,0.4-0.1
			c0.1,0,0.2,0,0.4-0.1c0.1-0.1,0.3-0.3,0.3-0.4l0.1-0.1c0.2-0.1,0.5-0.1,0.7-0.1c0,0.2-0.1,0.3-0.2,0.5h0.4c-0.1,0.3-0.2,0.6-0.3,1
			c0.1,0,0.1-0.1,0.2-0.1l0.1-0.1c0.2-0.1,0.4-0.2,0.8,0.1V224.4z"></path><path class="st7" d="M130.8,224.2c-0.2,0.1-0.4,0.1-0.4-0.3c0.1-0.1,0.1-0.2,0.2-0.3c0.1-0.1,0.3-0.1,0.6,0.1
			C131.1,223.9,131,224.1,130.8,224.2z"></path><path class="st7" d="M183.7,264c0.3-0.1,0.6-0.2,0.9-0.2l0.3,0.1h-0.1c-0.1,0.1-0.1,0.1-0.2,0.2c0,0.1-0.1,0.1-0.1,0.1l0,0
			c-0.3,0.1-0.6,0.1-0.9,0C183.5,264.2,183.6,264.1,183.7,264z"></path><path class="st7" d="M124.8,221.9c0,0.4-0.2,0.5-0.5,0.7c0.2,0.1,0.5-0.2,0.6-0.1s0.2,0.2,0.1,0.4l-0.7,0.8l0,0
			c-0.2,0.1-0.6-0.1-0.8,0.1c-0.6-0.6-0.3-0.6,0.2-1c0.3-0.3,0.5-0.6,0.9-0.8C124.6,221.9,124.7,221.9,124.8,221.9z"></path><path class="st7" d="M122.9,223.6c-0.1,0.1-0.1,0.2-0.2,0.4h-0.8c0.1-0.1,0.2-0.2,0.3-0.3C122.3,223.5,122.5,223.5,122.9,223.6z"></path><path class="st7" d="M123.6,225.1l0.2-0.1h0.3c0,0.1-0.1,0.2-0.2,0.2c-0.2,0.1-0.4,0.2-0.6,0.2
			C123.3,225.2,123.4,225.1,123.6,225.1z"></path><path class="st7" d="M184.3,262.4l-0.2,0.1c-0.1,0.1-0.3,0.2-0.4,0.3l-0.4,0.2c-0.1,0.1-0.2,0.1-0.4,0.2l0.1-0.6
			c-0.2-0.2-0.5,0-0.6,0.1c-0.5,0-0.8-0.3-1.1-0.2s-0.9,0.1-1.2,0.3s-0.3,0-0.4,0.1c0,0-0.1,0-0.1,0.1c0,0,0,0.1-0.1,0.1
			c-0.1,0.1-0.3,0.1-0.5,0h0.1c0.1-0.1,0.1-0.1,0.1-0.2c-0.1-0.1-0.3-0.1-0.4,0c-0.2,0.2-0.3,0.5-0.4,0.7c0,0.3-0.2,0.5-0.4,0.7
			c-0.1,0-0.1,0.1-0.2,0.1c0.1-0.4,0-0.8,0.2-1.1c0.2-0.3,0.5-0.6,0.9-0.8l0.2-0.1c0.9-0.3,1.9-0.5,2.9-0.4v-0.1
			c0.4,0.2,0.8,0.1,1.2,0h0.1c0.1,0,0.4,0.2,0.5,0.1c0.3-0.1,0.5-0.1,0.8,0L184.3,262.4z"></path><path class="st7" d="M126.3,224.5c0.1-0.3,0.1-0.7,0.1-1c0-0.1,0.1-0.1,0.2-0.2c0.3-0.2,0.6,0.4,1,0.5c0.2,0,0.5,0.3,0.7,0.3
			c0.3-0.1,0.6,0,0.8,0.2c0-0.4-0.6-0.3-0.1-0.7l0.1-0.1c0.4-0.2,0.6,0.1,0.8,0.5s0.3,0.7,0.1,0.9l-0.6,0.4c-0.2,0.1,0,0.3-0.1,0.4
			l0,0c-0.1,0-0.2,0.1-0.3,0.1s-0.2,0-0.3,0.1c0,0-0.1,0-0.1,0.1l-0.9,1.2c-0.2,0.3-0.4,0.6-0.7,0.9c-0.3,0.2-0.7,0.2-1,0.2
			c0.4-0.6,1.2-1.1,1.2-1.9c-0.1,0.2-0.2,0.4-0.4,0.5c-0.1,0.1-0.3,0.1-0.4,0c0.1,0.2,0,0.3-0.2,0.5l-0.1,0.1l-0.2,0.1
			c-0.1-0.3-0.2-0.6-0.5-0.5c0.2,0.3,0.2,0.7,0,1c-0.1-0.1-0.3-0.2-0.4-0.1c-0.1,0-0.1,0.1,0.1,0.2c-0.2,0.1-0.3,0.1-0.5,0.1
			l-0.1-0.2c-0.1,0.1-0.2,0.2-0.3,0.2c-0.2,0.1-0.4,0.2-0.6,0.2c-0.1-0.6,0.9-0.9,1-1.5c-0.2,0.3-0.5,0.5-0.8,0.8
			c-0.1,0.1-0.3,0.1-0.3,0c-0.3-0.3,1-1,1.1-1.1c-0.2,0.1-0.4,0.3-0.6,0.4c-0.1,0.1-0.3,0.1-0.4,0.2L123,227
			c0.1-0.2,0.3-0.4,0.5-0.5s0.3-0.2,0.6-0.3c-0.2,0.1-0.7,0.3-0.8,0.1s0.3-0.5,0.5-0.6h0.1c0.5-0.1,0.5,0.1,0.8,0l0.2-0.1l0,0
			c0.3-0.2,0.8,0,1.1,0.1l-0.1,0.2l0.2-0.2c0.1-0.1,0.2,0,0.5,0.2c0.1,0.1,0.3,0,0.5-0.1s0.3-0.2,0.3-0.2s0.3-0.1,0.4-0.2
			s0.2-0.2,0.1-0.4s-0.7,0-0.9,0c0.1-0.1,0.2-0.3,0.3-0.4L126.3,224.5z"></path><path class="st7" d="M122.4,227.3c0.2,0.2,0.2,0.6,0.2,0.9c0,0.2-0.1,0.3-0.3,0.4c-0.1,0.1-0.2,0.1-0.3,0
			C121.7,228.3,122.3,227.4,122.4,227.3z"></path><path class="st7" d="M137,230.3h-0.3l-0.2,0.1c0.3,0.1,0.4,0.3,0.6,0.5c0-0.3,0.1-0.6,0.3-0.7l0.2-0.1c0,0.4,0.3,0.2,0.4,0.4
			s-0.2,0.6-0.3,0.7l-0.1,0.1c-0.4,0.2-1,0.3-1.4,0.5v-0.2c-0.3,0.1-0.6,0.2-0.9,0.3l-0.1-0.3h-0.1c-0.1,0.1,0,0.3-0.1,0.5
			c0,0.2-0.2,0.4-0.3,0.6c-0.3,0.3-0.3,0.7-0.6,0.9l-1.6,1.2h-0.1c-0.4,0.2-0.7,0-1.1-0.5c-0.8,0.4-1.7,1.2-2.8,0.3
			c0.4-0.5,0.8-0.9,1.2-1.3c0.1,0,0.1-0.1,0.2-0.1c0.4-0.1,0.7-0.3,1.1-0.5c0.1-0.1,0.7-0.6,0.2-0.5c-0.7,0.2-1.4,0.4-2,0.8
			l-1.2,0.8l0,0c-0.3,0.2-0.5,0.1-0.9,0c0.2-0.4,0.5-0.9,0.8-1.3l-1.2,0.8l-0.1-0.3l-0.6,0.4c-0.4-0.4-0.2-0.8-0.1-1.1h-0.4
			c0.2-0.7,0.5-1.4,0.9-2c0.1-0.2,0.2-0.4,0.3-0.4c0.1-0.1,0.2-0.1,0.3-0.1c0.6,0,0.5,0.5,0.4,0.9l0.5-0.4c0.1-0.1-0.1-0.5,0-0.6
			l0,0c0.4-0.1,0.9-0.1,1.3-0.1c0,0.1,0,0.3,0,0.5l0.1-0.1c0.2-0.1,0.2-0.2,0.2-0.5c0,0,0-0.1,0.1-0.1c0.2-0.1,0.4-0.1,0.6-0.2
			l-1-0.3c0.1-0.1,0.2-0.1,0.2-0.2c0.4-0.3,0.8-0.3,1.2-0.1l1.1,0.8c0.1,0.1,0.2,0.1,0.3,0.1s0.1-0.2,0.2-0.3l-1.2-0.8
			c-0.2-0.1-0.3-0.2-0.5-0.4s0-0.4-0.3-0.5c0.1,0,0.6,0,0.7-0.1 M131,227.4c0-0.1,0-0.1,0.1-0.2s0.4,0,0.6,0c0.7,0,1.6,0.8,2.2,1.2
			c0.3,0.2,0.3,0.6,0.5,0.7s1,0,1.2,0c0.5,0.1,1,0,1.5-0.2l0.1-0.1c0.2,0.2,0.5,0.6,0.4,0.7s-0.2,0-0.4-0.1l0.1,0.3
			c-0.2,0-0.3,0-0.5,0c0.1,0.2,0.1,0.3,0.3,0.6L131,227.4z"></path><path class="st7" d="M120.6,228.9l-0.7,0.3c-0.7-0.2-0.5-0.6-0.1-0.9s0.2-1,0.3-1.3s0.1-0.7,0.4-1c0.1-0.1,0.2-0.2,0.3-0.3h0.1
			c0.1,0,0.3,0,0.4-0.1c0.1,0,0.1-0.1,0.1-0.2h-0.3c0.1-0.1,0.1-0.2,0.2-0.2c0.3-0.1,0.6-0.1,0.9-0.1c-0.2,0.2-0.5,0.9,0.2,0.6
			l-0.2,0.2c0.7,0,0.4,0.9,0.2,1.1l-0.1,0.1c-0.3,0.2-0.9,0-0.8-0.5c-0.1,0-0.1,0-0.2,0s-0.1,0.1,0,0.2l0,0c0.3,0.3,0,0.3-0.1,0.5
			c0.2,0,0.3,0,0.4,0.2v0.1c0,0.1,0,0.1-0.1,0.2c-0.1,0-0.2,0-0.2,0c-0.1,0-0.2-0.1-0.2,0l0,0c-0.1,0.2,0.4,0.3,0.4,0.5
			s-0.2,0.4-0.3,0.5c-0.2-0.2-0.4-0.4-0.5-0.3l-0.1,0.1c0,0.1,0.3,0.3,0.1,0.4L120.6,228.9z"></path><path class="st7" d="M122.2,235.1l-0.2,0.2c-0.3-0.3-0.2-0.6-0.2-1s-0.5-0.3-0.1-0.7c-0.5-0.1-0.4-0.8-0.3-1.1s-0.8-0.5-1.1-0.6
			l1.5-1.3h0.1c0.2-0.1,0.5-0.2,0.8-0.1c0.3,0,0.5,0,0.8-0.1c0.1,0,0.1-0.1,0.1-0.1l0.1,0.2c0-0.2,0.1-0.5,0.3-0.6
			c0.3-0.1,0.6-0.2,0.9-0.2s0.6,0,0.9,0.1c0.4,0,0.6,0.1,0.5,0.5c-0.2,0.6-0.6,1.2-1,1.7c-0.1,0.2-0.2,0.3-0.1,0.6
			c0.1,0.2,0.1,0.5-0.1,0.6c-0.1,0-0.1,0.1-0.2,0.1l0.5,0.9c-0.1,0.2-0.2,0.4-0.3,0.6h-0.2l-0.1,0.3c-0.1,0.3-0.2,0.4-0.3,0.5
			s-0.3,0-0.7-0.1C123.1,235.1,122.7,235.1,122.2,235.1z"></path><path class="st7" d="M219.1,265.1c0.4,0.3,0.7,0.6,1.1,0.9c0.8,0.7,0.8,0.6,0.8,1.5c0.1,1.1,0.2,2.1,0.3,3.2c0,0.5,0.1,1,0.3,1.4
			l2.4,3.5c0.5,0.8,0.4,2,0.5,2.8c0,0.3,0.2,0.9,0,1l-0.6,0.4c-0.2,0.1-0.3,0.2-0.4,0.4c-0.3,0.9-0.6,1.8-0.9,2.7
			c-0.1,0.3,0.8,1.4,0.9,1.6s0.5,0.6,0.5,0.9c0,1.1,0,2.3,0.1,3.4s0.1,2.1,0.1,3.1c-0.8,0.3-1.7,0.5-2.6,0.6
			c0.3,0.7,1.3,0.2,1.8,0.6c0.4,0.2,0.7,0.5,1,0.9c0.1,0.3,0.1,0.7,0.1,1c0.1,0.8-0.4,1-0.8,1.5c-0.2,0.2-0.4,0.4-0.6,0.5
			c-0.2,0.1-0.5,0.2-0.7,0.3c0.4,0.3,0.6,0.4,0.7,0.8c0.1,0.3,0.5,0.6,0.4,0.7c-0.1,0.2-0.2,0.5-0.4,0.6c-0.3,0.2-0.7,0.2-1.1,0.2
			c0.2,0.4,0.5,0.7,0.8,1c0.2,0.2,0.8,0.4,0.9,0.6c0.1,0.5,0.3,1,0.4,1.5s0,0.5-0.3,0.8s-0.1,0.6,0,1.1c0.1,0.3,0.8,0.4,1,0.5
			s0.7-0.4,0.9,0.1c0.2,0.3,0.2,0.7,0.2,1c-0.1,0.4,0,0.8,0.1,1.2c0.2,0.6,0.1,0.7-0.1,1.1s1.2,1.5,1.6,1.9c0.2,0.1,0.5,0.5,0.7,0.6
			c0.5,0.1,1,0.2,1.5,0.3c0.5,0.1,1,0,1.4-0.2l0.5-0.3c-0.4,0.7-0.8,1.3-1.1,2c-0.1,0.1-0.2,0.3-0.3,0.4c-0.3,0.1-0.6,0.1-0.9,0.1
			c-1,0.1-2,0.2-2.9,0.2c-0.5,0-0.9-0.4-1.4-0.7c-1.2-0.7-2.5-1.3-3.3-2.5c-1.1-1.7-2.2-3.5-3.3-5.2s-2.2-3.4-3.1-5.1
			c-1.2-2.2-2.3-4.3-3.5-6.5l-2.1-4c-0.3-0.6-0.6-1.2-0.9-1.8c-0.4-0.4-0.8-0.9-1.2-1.3c-0.2-0.2-0.7-1-1.1-1.1
			c-0.4-0.1-0.9-0.1-1.4-0.1l-2-0.2c-0.6-0.1-1.2-0.3-1.8-0.7l-4.1-2.2l-3.3-1.8c-0.3-0.2-0.5-0.5-0.7-0.8c-0.3-0.5-0.4-1.1-0.6-1.5
			c-0.3-0.4-0.5-0.8-0.6-1.3c0-0.5,0-1,0-1.5c0-1.1,0.1-1.8-0.9-2.8c-0.2-0.2-0.4-0.3-0.4-0.5c-0.1-0.1-0.3-0.3-0.4-0.5
			c-0.2-0.4-1.1-0.2-1.3-0.6s-0.2-0.4-0.6-0.4c-0.2,0-0.2,0-0.3,0s-0.1,0.1-0.1,0.2c-0.1,0.2-0.1,0.4-0.1,0.7l0.5,0.3
			c-0.1,0.2-0.2,0.3-0.2,0.4s-0.2,0-0.6-0.2c-0.2,0.2-0.7,0.1-0.9,0.2c-0.3,0.2-0.6,0.2-0.9,0.2c-0.5,0-1.1,0-1.6-0.2
			c-0.4-0.2-0.6-0.6-1-0.7c-0.8-0.4-1.7-0.6-2.6-0.4c-0.7,0.2-1.6,0.7-2.4,0.5l-2.1-0.5c-0.1,0-0.2,0-0.3,0
			c-0.2,0.1-0.3,0.4-0.5,0.6c-0.1,0.1-0.2,0.2-0.3,0.3c-0.7,0.3-1.4,0.4-2.2,0.4l-2.1,0.3c-0.3,0.1-0.5,0.1-0.8,0.1l-1.9-0.5
			c-0.6-0.1-0.5-0.5-0.8-1c-0.2-0.4-1.2-0.6-1.5-0.8c-0.3-0.2-0.7-0.3-1.1-0.4l-2-0.4c-0.1,0-0.2-0.4-0.3-0.5s-0.4-0.2-0.6-0.2
			c-0.5-0.2-1-0.3-1.5-0.4c-0.4,0-0.9-0.1-1.2-0.3c-0.2-0.2-1.2-1.1-1.4-1.1l-1.4,0.1c0.5,0.5,1,0.9,1.6,1.2c0.7,0.2,1.4,0.5,2,0.9
			c0.3,0.2,0.6,0.3,1,0.4c0.3,0.1,0.6,0.3,0.9,0.5c0.3,0.2,0.6,0.4,0.8,0.7c0.2,0.2,0.2,0.2,0.3,0.2c0.4-0.1,0.8-0.1,1.1,0.2
			c0.1,0.2,0.1,0.4,0,0.4s-0.2,0-0.3,0c-0.6-0.3-1.2-0.4-1.9-0.4c-0.2,0-0.6-0.6-0.7-0.7s-0.6-0.2-0.9-0.2s-0.4,0.1-0.6,0l-1-0.2
			c0.2-0.2,0.7-0.5,0-0.8c-0.4-0.2-0.9-0.4-1.4-0.3c-0.4,0-0.8-0.4-1.1-0.6c-0.6-0.4-1.1-0.8-1.7-1.1c-0.7-0.4-1.5-0.5-2.2-0.3
			c-0.5,0.1-0.6,0.2-1.1,0l-1.6-1c-0.8-0.3-1.6-0.7-2.4-1.1c-0.8-0.7-1.6-1.5-2.2-2.4L143,260c-0.6-0.7-1.2-1.3-2-1.8
			c0.5-0.2,1.1-0.3,1.6-0.4c-0.5-0.7-0.6-0.8-1.3-1c-0.5-0.1-1.1-0.2-1.6-0.3l35.9-22.1c-0.1,0.2-0.3,0.4-0.5,0.5
			c-0.1,0.1-0.2,0.1-0.3,0.2c-0.4,0.2-0.8,0.4-1.1,0.6c-0.2,0.1-0.4,0.3-0.7,0.4c-0.1,0.1-0.2,0.1-0.3,0.2c-0.5,0.3-0.8,0.6-0.5,1.1
			c0.1,0.2-0.4,0.6-0.4,0.8c-0.1,0.4-0.1,0.7-0.1,1.1c0.1,0.6,0.1,1.2,0,1.8c0.4-0.8,0.2-1.8,0.6-2.6c0.2-0.6,0.6-1.1,1.1-1.5
			c0.3-0.2,0.7-0.2,1,0h-0.2c0.6,0,0.2,0.5,0.2,0.8c-0.5,0.4-0.1,0.6,0,0.6c0.1-0.1,0.2-0.2,0.3-0.2c0.3,0.1,0.4,0.4,0.3,0.6
			l0.3-0.2c0.2,0.4,0.7,0.6,1.1,0.4c0.3,0.1,0.6,0.1,0.9-0.1c0.1-0.1,0.3-0.2,0.3-0.4l0.2,0.2l0.2-0.2c-0.5-0.2-0.4-1-0.4-1.3
			c0.4-0.1,0.5,0.3,0.6,0.6c0.3-0.3,0.7-0.1,0.6,0.1c-0.1,0.3-0.3,0.5-0.5,0.7l0.2,0.2c-0.2,0.4-0.4,0.7-0.7,1
			c-0.1,0.1-0.2,0.3-0.2,0.4c-0.3,0.4-0.4,0.9-0.4,1.4c-0.1,0.1-0.3,0.2-0.5,0.2c-0.8-0.3-0.3-1.3-0.2-1.7c0.6-0.1,0.6-0.3,0.6-0.5
			c-0.1,0.1-0.3,0.1-0.4,0.2c-0.1,0.1-0.2,0.2-0.2,0.3c-0.1-0.2-0.1-0.3-0.1-0.5c-0.3,0.2-0.4,0.7-0.5,0.9c-0.4,0.5-0.5,0.5-0.6,0.6
			c0.6,0.5-0.5,0.8-0.4,1.2c-0.1,0.3-0.2,0.5-0.4,0.7c-0.1,0.2,0,0.3,0.1,0.6s0.4,1.6,1,1.2l0.2-0.1c0,0.1-0.1,0.2-0.2,0.2
			c-0.2,0.1-0.4,0.1-0.5,0.2c-0.1,0.1,0.2,0.4,0,0.5c-0.4,0.3-0.8,0.7-0.9,1.1c0.3-0.2,0.4-0.6,0.7-0.8h0.2
			c-0.1,0.3-0.2,0.5-0.4,0.6c-0.4,0.2-0.6,0.4-0.6,0.6c0.5-0.2,0.6,1.2,0.6,1.4c-0.1-0.3-0.5-0.2-0.8-0.4c0.3,0.3,0.9,0.5,1,0.8
			c0.1,0.4,0.1,0.8,0.2,1.2c-0.2-0.2-0.3-0.4-0.4-0.7c-0.2,0-0.3-0.2-0.5-0.1c-0.2-0.2-0.3-0.4-0.4-0.6c0,0-0.1-0.4-0.2-0.4
			c-0.2,0.6,0.1,0.8,0.6,1.3c-0.2,0-0.4,0-0.6,0c0.2,0.1,0.5,0,0.7,0.1s0.3,0.5,0.4,0.6s0.4-0.1,0.6,0.3s0,0.4-0.2,0.6
			c0.1,0,0.1-0.1,0.2-0.1c0.2-0.1,0.4-0.2,0.5,0.1s-0.3,0.4-0.4,0.5h0.3c-0.1,0.1-0.1,0.2-0.2,0.3c0.5,0,0.4,0.2,0.3,0.3l-0.4,0.1
			c0,0.3,0,0.6,0.1,0.8c0,0.2-0.3,0.3-0.3,0.5c0.1,0.2,0.1,0.5,0,0.7c-0.3,0.6-0.3,1.2,0,1.8c0.2,0.5,0.6,0.9,1,1.1
			c0.6,0.4,1.2,0.8,1.8,1.2c0.3,0.2,1,1,0.9,1.3c0,0.2,0,0.4-0.1,0.4s-0.1,0-0.3,0l-0.7-0.2c-0.2-0.2-0.5-0.3-0.7-0.5
			c-0.3-0.2-0.5-0.2-0.6-0.6c-0.4-0.1-0.5-0.8-1-0.8s-0.8-0.3-1.1-0.1s-0.3,0.4-0.4,0.5c-0.4,0-0.8,0-1,0c-0.1,0.1-0.3,0.1-0.4,0.3
			c-0.1,0.1-0.1,0.1-0.2,0.2c-0.1,0.1-0.3,0.1-0.5-0.1c0.2,0.3-0.2,0.5-0.5,0.7s-0.5,0.3-0.6,0.5c0.2-0.1,1.1-0.5,0.7,0.2h0.5
			c0.1,0.1,0.1,0.3,0,0.3c-0.1-0.2-0.5-0.1-0.7-0.1c0.1,0.1,0.1,0.2,0.2,0.4c-0.1-0.1-0.2-0.1-0.2,0c-0.6,0.1-0.8,0.1-1,0.2
			c-0.2,0.2-0.5,0.3-0.8,0.3c-0.4,0.2-0.6,0.7-0.7,1c-0.3,0.5-0.7,2-0.2,2.6c0.2,0.2,0.6,0.3,0.8,0.5c0.1,0.2,0.2,0.4,0.2,0.6
			c0.2,0.5,0.4,0.9,0.6,1.3c0.6,0.9,1.5,1.6,2.6,2.1c0.7,0.3,1,0.6,1.6,0.4c0.1,0,0.4,0.1,0.5,0.1c0.1-0.2,0.3-0.4,0.4-0.6
			c0.1-0.2,0.3-0.3,0.4-0.5c0.1,0,0.2,0,0.2,0l0.4-0.3l-0.2-0.2c0.1-0.2,0.1-0.5,0-0.7c-0.2-0.5-0.6-0.9-0.3-1.4
			c0.2-0.3,0.4-0.5,0.7-0.7c0.6-0.4,0.9-0.5,1.1,0c0.1,0.3,0.3,1,0.2,1.2c0.1,0,0.1,0.1,0.3,0v0.3c0.2,0.2,0.4,0.5,0.5,0.8
			c-0.2-0.1-0.4-0.2-0.5-0.4l0.1,0.4c0.3-0.2,0.5,0.7,0.8,0.9s0.2,0.8,0.2,1c0.3-0.1,0.5-0.2,0.7-0.3c0.2-0.2,0.5-0.3,0.7-0.4
			c0.1,0,0.2-0.1,0.2-0.2c0.1-0.1,0.1-0.2,0.2-0.2c0.2-0.1,0.5-0.3,0.8-0.3c0.6-0.1,1.1,0.1,1.4,0.6l0.6,1.1
			c0.1,0.2,0.1,0.5,0.2,0.6c0.5,0.9,2.3,1.6,3,1.2c0.1-0.1,0.1-0.1,0.2-0.2c0.2-0.4,0.3-0.7,0.6-0.8c0.1-0.1,0.2-0.1,0.4-0.1
			c0.6-0.1,1.1,0,1.7,0.2c-0.5-0.6-0.4-1.9-0.5-2.6c0-0.2,0.4-0.6,0.5-0.8l0.8-1.2c0.1-0.1,0.1-0.1,0.2-0.2c0.5-0.2,0.9-0.3,1.4-0.4
			l3.4-1c0.6-0.3,1.2-0.4,1.8-0.3l3.9,0.9c0.8,0.2,1.9-0.4,2.6-0.6s1.9,0.5,2.6,0.8l2.2,0.8c0.2,0.1,0.7,0.4,0.9,0.3l2,2.3l5.4-3.3
			c0.5,0.1,1,0.2,1.5,0.2C218.3,265.5,219,265,219.1,265.1z M167.5,248.4c0,0.4,0.1,0.7,0.1,1.1l0.5-0.1v0.2l0.1-0.1
			c0.4-0.3,0.5-0.6,0.7-1c0.3-0.4,0.5-0.9,0.6-1.4c-0.1-0.1-0.1-0.2-0.3-0.2c0.2,0.2-0.4,0.9-0.6,1l0,0l-0.1,0.1
			c-0.2,0.1-0.2,0.2-0.3,0.6c0,0.2,0,0.4-0.2,0.5c-0.1,0-0.1,0-0.2,0c-0.1-0.2-0.1-0.4,0.1-0.5C167.7,248.4,167.7,248.5,167.5,248.4
			 M168.8,246.3c0,0.5,0.1,0.6,0.2,0.5c0.1-0.1,0.2-0.2,0.3-0.3s0.2-0.2,0.4-0.3c0.1,0,0.1-0.1,0.2-0.1c0.1,0,0.3,0,0.4-0.1
			c0.4-0.2,0.5-1,0-1c0-0.2,0.1-0.4,0.1-0.6c-0.1,0.2-0.3,0.9-0.5,1c0,0,0,0-0.1,0s-0.2,0-0.3,0.1
			C169.2,245.9,168.9,246.1,168.8,246.3"></path><path class="st7" d="M118.1,259.4c-0.1-0.2-0.1-0.4,0-0.6l0.5-0.1v0.2h-0.2c0,0.2,0,0.3-0.2,0.5
			C118.2,259.4,118.2,259.4,118.1,259.4z"></path><path class="st7" d="M176.5,231.8c0,0.3-0.2,0.6-0.3,0.8c-0.2,0.2-0.4,0.3-0.6,0.6c-0.2,0.2-0.2,0.5-0.2,0.8
			c0,0.2-0.1,0.4-0.1,0.6l-35.9,22.1c-0.5,0-0.9,0.1-1.3,0.2c-0.6,0.2-1.2,0-1.6-0.4c-0.9-0.5-2.2-0.3-2.7-1.1s-0.5-0.7-1.4-0.7
			c0,0,0,0.2,0,0.4s0,0.4-0.1,0.4s-0.1,0-0.2,0c-0.4-0.2-1.3-0.8-1.6-0.7c-0.4,0.1-0.9,0-1.3-0.3c-0.6-0.3-1.1-0.6-1.8-0.8
			c-0.5-0.1-1-0.1-1.4-0.1c-1-0.1-2,0-3,0.2c-0.1,0-0.1,0-0.2,0.1s-0.2,0.2-0.3,0.3c-0.1,0.1-0.2,0.2-0.3,0.3
			c-0.5,0.1-1.1,0.1-1.7,0c-0.3-0.1-0.7,0-1,0.1l-0.2,0.1c-0.4,0.3-0.5,0.5,0.1,1c0.6,0.5-0.8,1.9-1.1,2.2c-0.2-0.1-0.2-0.3-0.2-0.4
			c0,0,0-0.1,0.1-0.1c-0.3,0.1-0.8-0.9-0.7-1.1c0.1-0.3,0.4-0.6,0.7-0.8l0.2-0.1l-0.6-0.1c0.1-0.2,0.1-0.3,0.2-0.5
			c-0.5,0.5-0.9,1.1-1,1.8c-0.1,0.7-0.1,1.5,0.1,2.2l0.6-0.2c0,0.9-0.1,1.8-0.4,2.7c-0.1,0.5-1,1.4-0.6,1.9s-0.8,1.6-1.1,2
			c-0.1,0.1-0.3,0.3-0.4,0.4c-0.2,0.1,0,0.2-0.1,0.4c-0.1,0.3-0.2,0.5-0.4,0.6c-0.1,0.1-0.2,0.1-0.3,0.1c0.1-0.5,0.3-0.9,0.5-1.3
			c0.1-0.3,0.2-1.2,0.6-1.4c0.1-0.1,0.2-0.1,0.3,0c-0.1-0.4,0-1.3,0.3-1.5c0.1,0,0.1-0.1,0.2,0c-0.4-0.3,0-0.9-0.2-1.3
			c-0.2-0.2-0.3-0.5-0.2-0.8c0-0.2,0.1-0.4-0.2-0.5c-0.2,0.4-0.3,0.9-0.7,1.1c-0.1,0.1-0.3,0.1-0.5,0.1s-0.7-0.2-0.9,0l-0.5,0.8
			l-1.4-1.3c-0.1,0.3-0.2,0.7-0.4,1c-0.5,0-0.9-0.1-1.4-0.2c-0.4-0.3-0.8-0.7-1.2-1.1c-0.3-0.2-0.2-0.6-0.3-0.9
			c-0.1-0.5-0.2-0.7,0.1-0.9l0.2-0.1c0.4-0.2,0.2-0.6,0.5-1c0.1-0.1,0.1-0.1,0.2-0.2c0.3-0.2,0.4-0.3,0.3-0.6s-0.4-0.4-0.8-0.5
			c0.1-0.1,0.1-0.3,0.2-0.4c-0.2-0.1-0.3-0.1-0.4-0.1s-0.2,0.5-0.3,0.7c0,0.1-0.1,0.2-0.2,0.2s-0.1,0.1-0.2,0.1s-0.2,0-0.2,0.1
			c-0.3,0.2-0.5,0.4-0.7,0.6c-0.5,0.3-1,0.3-1.5,0l0.1-0.3c-0.4,0.2-0.9,0.2-1.4,0.1c0.2-0.5,0.5-1,0.9-1.3l-0.2-0.1
			c0.2-0.4,0.4-0.8,0.8-1c0.4,0.6,0.7,0.2,1.2,0.1c0.1,0,0.1,0,0.2-0.1c0.2-0.1,0.2-0.3,0.3-0.7l-0.6,0.1l0.1-0.2
			c-0.2,0-0.4-0.2-0.3-0.4c-0.4,0.2-0.8,0.4-1.2,0.4c-0.4,0.1-0.8-0.4-1.1-0.4s-1.3,0.3-1.5,0.1c-0.1-0.2-0.2-0.5-0.3-0.7l0.2-0.2
			l0.2-0.1c0.4-0.2,0.6-0.4,0.6-0.7c-0.1-0.5-0.1-1,0-1.4c0.2-0.8,0.5-1.5,1.1-2c0.4-0.3,0.7-0.5,0.8-1s0.1-0.5,0.2-0.6
			c0.2-0.1,0.4-0.1,0.6-0.1c0.7,0,1.7-1.2,2.3-0.7c0.5,0.3,1.8-0.5,2.3-0.7c0.7-0.3,1.5-0.7,2.2-0.9l3.4-1.3
			c0.8-0.2,1.7-0.3,2.5-0.3c0.2-0.1,0.2-1.3,0.2-1.5c0.1-0.1,0.3-0.2,0.5-0.1c0.1,0,0.3,0,0.4,0c0.2-0.4,0.8-1.8,1.3-2.1
			c0.1-0.1,0.2-0.1,0.3,0c-0.3,0.7-0.7,1.3-1,2c0.1,0,0.2,0,0.2-0.1c0.3-0.2,0.5-0.5,0.6-0.9c0.1-0.3,0.3-0.6,0.6-0.8
			c0.1-0.1,0.2-0.1,0.3,0c0-0.3,0-0.6,0-1s-0.4-0.1-0.3-0.5c0.9,0.3,1.7,0.5,2.6,0.7c-0.2-0.4-0.3-0.9-0.2-1.4
			c0.4,0.1,0.1,0.5,0.5,0.4c0.2,0,0.2,0.4,0.2,0.5c0.1-0.2,0.5-0.4,0.6-0.6s-0.3-0.2-0.2-0.3s0.2-0.2,0.3-0.2
			c0.5-0.2,1.1-0.3,1.6-0.3c1-0.2,1.9-0.4,2.8-0.8l-0.2-0.1c0.5-0.2,1.1-0.3,1.6-0.2c0.5,0-0.2,1-0.2,1c0.4,0,0.8-0.1,1.1-0.3
			l1.6-1.2c0.1-0.1,0.2-0.2,0.4-0.2c0.2-0.1,0.5-0.2,0.7-0.1l1.7,0.7l-0.5-0.4c-0.1-0.1-0.1-0.3-0.2-0.3c-0.4-0.4-0.5-0.2-0.6-0.7
			c-0.1-0.4,1.1-1.1,0.5-1.4c-0.3,0.5-0.7,1-1.2,1.3c-0.3-0.6-0.1-0.7,0.2-1.1c0.1-0.2,0.2-0.3,0.4-0.4c0.2-0.1,0.4-0.1,0.6-0.1
			c0.2,0,0.5,0.2,0.6,0.3s0.3,0,0.6,0c0.4-0.1,0.8-0.2,1.3-0.3c0.6-0.2,1.1-0.4,1.6-0.7c0.3-0.2,0.4-0.3,0.4-0.4
			c-0.2-0.6-0.4-0.8,0.1-1.1c0.4-0.2,0.8-0.3,1.2-0.4c0.1,0.2,0.2,0.8,0.4,0.9s0.8,0,0.9,0.1c-0.6-0.4-1.1-0.8-0.6-1.3
			c0.2-0.2,0.2-0.5,0.2-0.9s-0.2-0.4-0.4-0.5l-0.3,0.6c-0.5-0.5-0.2-0.8,0.1-1.1c-0.1-0.2-0.3-0.2-0.4-0.1l-0.3,0.2
			c-0.4,0.1-1.2,0.4-1.4,0.2c-0.5-0.3-0.8-0.7-1.1-1.1c-0.3-0.3-0.3-0.5-0.1-0.6c0.1-0.1,0.2-0.1,0.3-0.1c0-0.1-0.2-0.2-0.3-0.2
			h-0.1c0.1-0.4,0.2-0.4-0.2-0.9c-0.2-0.3-0.5-0.6-0.9-0.8c-0.3-0.2-0.5-0.6-0.7-0.9c-0.1-0.1,0-0.2,0.1-0.3s0.3-0.1,0.4-0.2
			c-0.8-0.2-0.5-0.5-0.1-0.7c0.2-0.1,0.5-0.2,0.6-0.3c0.5-0.4,1.1-0.6,1.8-0.7c0.2,0.6,0.2,1.3,0.2,1.9c-0.1,0.2-0.2,0.3-0.4,0.4
			c-0.3,0.2-0.7,0.4-0.9,0.5c1.1-0.5,0.5,1,0.8,1.3c0.6-0.3,1.2-0.1,1.6,0.4c0.3,0.3,1.1,0.4,1.6,0.5c-0.1,0.3-0.2,0.7-0.4,1
			c0.2,0,0.4,0,0.6-0.1c0.1,0,0.1-0.1,0.1-0.2c0-0.1,0.1-0.1,0.1-0.2c0.2-0.1,0.4-0.1,0.7-0.1c0,0.2-0.1,0.3-0.1,0.5
			c0.4,0.1,0.5,0,0.7,0.4s0.2,0.5,0.6,0.5c0-0.3-0.1-0.6-0.3-0.9c-0.1-0.1-0.3-0.6-0.1-0.7s0.9-0.1,1.1,0s0.7,0.5,0.5,0.8l-0.2-0.2
			c-0.3,0.7,1.4,1.1,1.8,0.9c0.1-0.1,0.1-0.2,0-0.4s-0.3-0.4-0.3-0.6s0.1-0.4,0-0.6c-0.5-0.6-0.4-0.6-0.1-1.1
			c-0.4-0.2-0.7-0.2-1-0.7c-0.1-0.2-0.1-0.4,0-0.4c0.1-0.1,0.3-0.1,0.4-0.1c0.2-0.1,0.8-0.5,1.1-0.4c0.4,0.1,0.8,0.1,1.1,0
			c0.1,0.4,0.5,0.4,0.5,0.8c0,0.1-0.1,0.2-0.3,0.3c0.1,0.4,0.5,0.7,0.9,0.7c0.4,0.1,0.7,0.2,0.7,0.8c-0.1,0.4-0.2,0.8-0.4,1.1
			c-0.3,0.2-0.6,0.1-0.9,0l0.8,0.5h-0.6l0.2,0.2c-0.2,0-0.4,0.1-0.6,0.2c-0.1,0-0.3-0.3-0.4-0.2c-0.5,0.3-0.6,0.4-0.5,0.6h0.6
			c0.1,0.3,0.1,0.7,0,1c0,0.1-0.1,0.2-0.2,0.3c-0.2,0.1-0.4,0.1-0.8,0.1c-0.7,0.1-1.3,0.3-1.9,0.7l1.8-0.1c0.5-0.1,0.9-0.3,1.3-0.6
			c0.1,0.3,0.3,1.1,0.2,1.4s-0.2,0.4-0.3,0.5c-0.1,0-0.2,0.1-0.3,0.1s-0.1,0.1-0.2,0.2c-0.1,0.4-0.2,0.6-0.4,0.7
			c-0.2,0.1-0.3,0.1-0.5,0.2c-0.4,0.1-0.8,0.2-1.2,0.3l0.9-0.1v0.2c0.1-0.1,0.2-0.1,0.4-0.2c0.2-0.1,0.4-0.1,0.6-0.1
			c0.2,0,0.7,0.1,0.5,0.4c-0.1,0.2-0.3,0.4-0.5,0.5l-0.2,0.1c-0.1,0.1,0,0.6,0,0.7c0,0.7,0.1,1.4,0.3,2c0.4,0.7,0.7,1.4,1.1,2.1
			c0.3-0.1,0.8-0.4,1.1-0.3c0.5,0.2,0.9,0.6,1.3,0.9c0.3,0.2,0.4,0.2,0.5,0.2c0.1-0.1,0.3-0.3,0.4-0.4c0.3-0.2,0.6-0.2,0.9-0.2
			c0.8-0.2,1.7-0.2,2.5-0.1c0.3,0,1,0.2,1.2,0.1l1.1-0.5c0.1-0.1,0.8-0.5,0.9-0.3l1.1,1.5c0.5,0.7,1.6,0.8,2.3,1.1
			c0.1,0.1,0.3,0.1,0.4,0c0.4-0.4,0.4-1,0.1-1.5l-1.2-1.2c-0.3-0.2-0.6-0.4-1-0.5c0.2-0.6,0.7-1.3,0.7-2c-0.2-0.8-0.7-1.4-1.4-1.8
			c-0.4-0.1-0.8-0.2-1.2-0.3c-0.6-0.2-0.6-0.1-0.5-0.7s0.2-0.5-0.4-1c-0.3-0.2-0.7-0.5-0.8-0.8c-0.1-0.5-0.4-0.9-0.8-1.1
			c-0.3-0.3-0.2-0.5,0.1-0.7c0.2-0.1,0.5-0.2,0.8-0.3c0.2,0,0.5-0.1,0.7-0.2c0.1-0.1,0.2-0.2,0.3-0.3s0.2-0.2,0.3-0.2
			c0.2-0.1,0.4,0,0.8,0s0.8-0.1,1,0.1s0.6,0.4,0.9,0.2c0.3-0.2,0.6-0.3,1-0.3c0,0.4,0,0.5,0.3,0.8c0.3,0.2,0.5,0.5,0.7,0.8l0.2-0.1
			c0,0.3-0.1,0.8,0.2,0.9c-0.1-0.3-0.1-0.4,0.1-0.5c0.3-0.1,0.6-0.1,0.9-0.1c0.3,0.1,0.6,0,0.9-0.1c0.2-0.1,0.2-0.3,0-0.7h0.3
			c-0.1-0.4-0.1-0.9-0.5-1.2s-0.3-0.9,0-1c0.1,0.1,0.2,0.3,0.3,0.4c0.6-0.3,1.9,0.7,2.5,1c0.5,0.2,1,0.4,1.4,0.7
			c0.1,0.2,0,0.6,0.2,0.7l0.6,0.1c0.3,0,0.5,0,0.8,0.1c0.2,0.1,0.2,0.4,0.5,0.3c0.3-0.2,0.8-0.4,1.2-0.3c0.4,0,1,0,0.6,0.4
			c-0.3,0.2-0.5,0.5-0.7,0.8c0.2-0.1,0.4-0.3,0.5-0.5c0.1,0.3-0.4,0.6-0.5,0.8s0.2,0.5,0.3,0.5c0-0.2,0.1-0.4,0.2-0.5
			c0.1-0.1,0-0.2,0-0.3c0.1-0.2,0.3-0.5,0.5-0.6c-0.1,0-0.2,0-0.4,0c0.2-0.1,0.5-0.3,0.7-0.1s0,0.4,0.3,0.5c0-0.2,0-0.3,0.1-0.4
			c0.2-0.1,0.4-0.1,0.6-0.1c0.3,0,0.5,0.5,0.6,0.7C176.1,231.4,176.5,231.3,176.5,231.8z M131.6,239.8c-0.2-0.3,0.1-0.2,0-0.4
			s-0.1-0.3-0.1-0.5l-0.3,0.1v-0.3l0,0c-0.2,0.1-0.2,0.6-0.4,0.7c-0.1,0.1-0.2,0.2-0.3,0.3c-0.2,0.1-0.4,0.1-0.5,0.1
			c-0.1-0.3,0.2-0.7,0.4-0.9c-0.2,0-0.5,0.1-0.7,0.2c-0.2,0.1-0.3,0.3-0.4,0.4c-0.2,0.3-0.4,0.6-0.6,0.9c-0.2,0.3-0.5,0.6-0.8,0.9
			c-0.1,0.1-0.8,0.6,0,0.7v-0.2l-0.1-0.1c0.1-0.2,0.3-0.3,0.4-0.4c0.2-0.1,0.3-0.2,0.5-0.2l-0.1-0.1c0.1-0.1,0.2-0.1,0.2-0.2
			c0.3-0.2,0.6-0.2,0.9-0.2c0,0.1-0.1,0.3-0.2,0.3l-0.2,0.1c-0.1,0-0.2,0.1-0.2,0.1l-0.1,0.1c0.2,0,0.4,0.1,0.5,0.1
			c-0.1,0.1-0.2,0.3-0.2,0.4c0.4,0.1,0.1,0.4,0,0.5c0.4,0.1,0.5-0.2,0.9-0.3l0,0c0.2-0.1,0.1-0.6,0.1-0.8c0-0.1,0.1-0.2,0.2-0.2
			c0.2-0.1,0.4-0.1,0.3,0.2s0,0.3,0,0.4l-0.2,0.3c0.1,0,0.1,0,0.2,0c0.1-0.1,0.2-0.3,0.2-0.5s0.1-0.4,0.2-0.6h0.1
			c-0.2-0.1-0.4-0.2-0.5-0.1c0-0.2,0.1-0.3,0.2-0.4c0.1-0.1,0.2-0.1,0.3-0.1s0.2-0.1,0.3-0.1c0.1-0.1,0.2-0.2,0.1-0.3L131.6,239.8
			 M139.1,240.1v-0.3c-0.3,0-0.6,0.1-0.9,0.3c-0.2,0.1-0.4,0.3-0.4,0.5s0,0.5,0,0.6c0,0.2-0.1,0.5-0.3,0.6l-0.1,0.1
			c-0.2,0.2-0.6,0.2-0.9,0.1c-0.1-0.1-0.4,0.3-0.7,0.1l-0.6,0.1h0.7c0.1,0.4,1,0.2,0.7,0.6l-0.1,0.1h-0.1h-0.1c0,0-0.1,0.1-0.1,0.2
			s0.1,0.2,0,0.4h0.1c0,0.1,0,0.1-0.1,0.1c-0.1,0.1-0.3,0.1-0.4,0.1l0.1,0.1c-0.2,0.1-0.4,0.1-0.6,0.2l0,0c0.5,0.1,1.1,0,1.6-0.3
			h0.1c0.3-0.2,0.9-0.8,0.6-1c0.1-0.4,0.3-0.4,0.5-0.8c0.1-0.3,0.1-0.5,0.1-0.8l-0.1,0.1c0-0.2,0.1-0.5,0.2-0.7
			c0.1-0.2,0.4-0.2,0.4-0.4l-0.1,0.1c-0.1,0-0.1,0.1-0.2,0.1l0.3-0.4c0,0-0.1,0-0.1,0.1c-0.1,0.1-0.2,0.1-0.3,0.1
			c0.1-0.1,0.2-0.1,0.3-0.2c-0.1,0-0.2,0-0.2,0.1c-0.3,0.2-0.5,0.6-0.5,0.9c-0.1-0.3,0.2-0.8,0.5-1
			C138.7,239.9,138.9,239.9,139.1,240.1 M154.7,246.6h0.2c-0.3-0.2-0.3-0.5-0.5-0.6c-0.3-0.1-0.6-0.3-0.8-0.5
			c-0.4-0.2-1.9-1.2-1.8-1.5h-0.1c0,0.2,0,0.2-0.1,0.2c-0.1-0.1-0.1-0.3,0-0.4h-0.2c0.1,0.4,0.2,0.5,0.6,0.6c-0.2,0-0.4,0-0.6,0.1
			c-0.1,0.1-0.1,0.2-0.1,0.3l0,0c0.3,0.6,0.3,0.5,0.8,0.4c-0.4,0.4,0.6,0.6,0.9,0.8h0.2c-0.2-0.2-0.1-0.1,0-0.3l0.1,0.2v-0.1
			c0.2,0,0.4,0.2,0.5,0.4c0-0.1,0-0.2,0-0.3h0.1l0.2,0.4l0.1-0.2c-0.1,0.3,0.1,0.7,0.4,0.8c0.1,0,0.1,0.1,0.1,0
			S154.8,246.8,154.7,246.6"></path></g><path class="st7" d="M304.4,136.7c0.5-0.1,1-0.2,1.5-0.2c0.1,0.3,0.1,0.5-0.1,0.6s-0.4,0.1-0.6,0c-0.1,0-0.2,0-0.3,0l-0.2,0.2
		c-0.1,0.1-0.1,0.1-0.2,0.2c-0.1,0.1-0.2,0.1-0.4,0.1c-0.1,0-0.5-0.2-0.5-0.4l0.1-0.1C303.9,136.9,304.3,136.8,304.4,136.7z"></path><path class="st7" d="M236.9,213.6c0,0.3-0.2,0.6,0.2,0.8c-0.2,0.2-0.4,0.4-0.6,0.6c-0.2,0.1-0.5,0.2-0.6-0.2c0-0.1,0.1-0.2,0.2-0.3
		c0.1-0.1,0.2-0.1,0.4-0.2l0,0C236.6,214.2,236.7,213.8,236.9,213.6z"></path><path class="st7" d="M232.6,217l-0.3,0.2c-0.4,0.3-0.9,0.5-1.4,0.6l-0.1-0.4c0.3,0,0.6,0,0.8-0.1c0.1,0,0.1-0.1,0.2-0.1l0.1-0.1
		C232.1,216.9,232.5,216.8,232.6,217z"></path><g><path class="st7" d="M218.6,217.6c0.1-0.2,0.1-0.4,0.1-0.5c0-0.2-0.2-0.2-0.1-0.4c0.4,0.4,0.6,0.8,0.8,1.3l0,0
			C219.1,218.1,218.5,217.9,218.6,217.6z"></path><path class="st7" d="M219.7,219c-0.2-0.2-0.4,0.1-0.6-0.3h0.2c0.1-0.2,0.2-0.4,0.4-0.6c0.1-0.1,0.3-0.1,0.5,0.2l0.6,1
			c0.2,0.3-0.2,0.3,0,0.5s0.1,0.2,0,0.3c-0.1,0-0.2,0-0.3,0c-0.4-0.1-0.2-0.2-0.4-0.5l-0.3-0.1L219.7,219z"></path></g><path class="st7" d="M216.9,221.2c0.1-0.1,0.2,0,0.4,0.1c0,0.1-0.1,0.3-0.1,0.4l-0.6-0.1C216.8,221.4,216.8,221.3,216.9,221.2z"></path><path class="st7" d="M212.3,265.8l3-0.5c0.5-0.1,1,0,1.4,0l-5.4,3.3l-1.8-2.3C210.4,266.1,211.4,266,212.3,265.8z"></path><path class="st7" d="M176.6,233.4c-0.1-0.5-0.2-1.3,0.2-1.5c0.1,0,0.1-0.1,0.2-0.1c0.1,0.2,0.1,0.4,0.2,0.6
		c-0.1,0.4-0.1,0.5,0.1,0.8l-0.6,0.4C176.7,233.6,176.6,233.5,176.6,233.4z"></path><path class="st7" d="M141.2,257.9c-0.1,0.1-0.3,0.1-0.4,0.1c-1.1,0.1-2.1,0-3.2-0.3l1.2-0.8c0.2,0,0.4,0.1,0.6,0.2
		c0.2,0.1,0.4,0.2,0.6,0.2s0.4-0.1,0.6,0C141.1,257.6,141.4,257.7,141.2,257.9z"></path><path class="st7" d="M137.2,257.3c0.2-0.1,0.5-0.1,0.9-0.2c0.2-0.1,0.5-0.1,0.7-0.2l-1.2,0.8l-0.6-0.2
		C137,257.4,137.1,257.3,137.2,257.3z"></path><path class="st7" d="M133,255.9c0.3,0.4,0.7,0.8,1.1,1.2l0.5,0.1c0,0.1,0,0.1-0.1,0.1c-0.4,0.2-2.1-0.6-2.3-1.1
		c0,0,0.1-0.2,0.3-0.3S132.9,255.7,133,255.9z"></path><path class="st7" d="M109.5,261.6c0.1,0.2,0.2,0.1,0.3,0.2l0.1,0.1l-0.1,0.1c-0.1,0.1-0.2,0.1-0.2,0.3c-0.3,0.1-0.7,0.1-1,0
		l0.1-0.1c0.1-0.1,0.2-0.1,0.3-0.2c0.1-0.1,0.2-0.2,0.3-0.3C109.3,261.6,109.4,261.6,109.5,261.6z"></path><path class="st7" d="M235.8,150.2c-0.3,0.2-0.5,0.4-0.7,0.6l-0.8-0.1c-0.1-0.2-0.3-0.8-0.2-0.9s0.5-0.5,0.5-0.6
		c-0.2-0.4-0.3-0.5-0.1-0.8s0.4-0.5,0.6-0.8s-0.3-0.3,0.1-0.6l0,0c0.4-0.2,1.5,0.1,1.9,0.1c-0.4,0.4-0.4,0.4,0.1,0.9
		c0.3,0.2,0.8-0.1,1-0.2c0,0.3,0,0.5-0.1,0.8c0.2-0.3,0.3-0.6,0.5-0.7c0.1-0.1,0.3-0.1,0.5-0.1c0.3,0,0.3,0.4,0.4,0.6
		s0.5,0.4,0.7,0.6c-0.2,0.2-0.3,0.4-0.6,0.6c-0.2,0.1-0.3,0.2-0.5,0.2c-0.3,0-0.6,0.1-0.9,0.3c-0.2,0.1-0.3,0.2-0.5,0.4h-0.1
		c-0.4,0.2-0.9-0.1-1.5-0.3C236.1,150,235.9,150.1,235.8,150.2z"></path><path class="st7" d="M241,150.4c0-0.2,0-0.3,0.1-0.5c-0.1-0.6-0.2-1.2-0.2-1.7c0-0.3,0.1-0.5,0.4-0.7c0.2-0.1,0.4-0.2,0.6-0.2
		l-0.1,0.4c0.1-0.1,0.3-0.2,0.4-0.4c0.1,0,0.1-0.1,0.2-0.1c0.4,0.1,0.6,0.2,0.9,0.1c0.1-0.1,0.7,0.2,0.7,0.4s-0.1,0.5-0.3,0.6
		l-0.8,0.8l0,0c-0.1,0-0.2,0-0.3,0s-0.2,0-0.3,0l0,0c-0.2,0.3-0.4,0.9-0.8,1.1C241.4,150.4,241.2,150.4,241,150.4z"></path><g><path class="st7" d="M271.5,138.4c-0.2,0-1.3,0-1.5-0.1c-0.2-0.2-0.2-0.5,0-0.7l0,0c0.1-0.1,0.3-0.1,0.5,0.2
			c0-0.2,0.1-0.3,0.3-0.4c0.1-0.1,0.3-0.1,0.4-0.2l0.2,0.2c0.1-0.2,0.2-0.3,0.4-0.4c0.1-0.1,0.2-0.1,0.4-0.1l0.5-0.1l0.3,0.5
			c-0.3,0.4-0.7,0.8-1.2,1.1H271.5z"></path><path class="st7" d="M266.6,141.5c-0.2,0.1-0.6,0.1-0.9,0s-0.8-0.1-1-0.5s-0.2-0.9,0-1.3c0-0.1,0.1-0.2,0.2-0.2
			c0.4-0.3,1.5-0.1,1.9-0.1c-0.3-0.3-0.6-0.4-0.4-0.7l0.1-0.1c0.2-0.1,0.4-0.1,0.6-0.1l2.2-0.4c0,0.3,0,0.5-0.2,0.8
			c0,0.1-0.1,0.2-0.2,0.2c-0.2,0.1-0.3,0.1-0.5,0.1l0.5,0.3l-0.5,0.5c-0.1,0-0.2,0-0.4-0.1s-0.3-0.1-0.3-0.1l0,0
			c-0.2,0.3-0.3,0.7-0.5,0.8s-0.4,0.1-0.5,0C266.9,141.2,266.9,141.2,266.6,141.5L266.6,141.5z"></path></g><path class="st7" d="M268.9,142.2c-0.2,0.2-0.5,0.4-0.7,0.6c0.1-0.3,0.2-0.6,0.3-0.9c-0.3,0-1,0-0.8-0.5c0-0.1,0.1-0.2,0.2-0.2
		c0.2-0.1,0.5,0,0.7,0.2l1-0.1c0.4,0,0.8,0.1,1,0.4c-0.2,0.1-0.3,0.2-0.4,0.3c-0.2,0.2-0.5,0.2-0.8,0.1
		C269.2,142.1,269.1,142.1,268.9,142.2z"></path><path class="st7" d="M355.8,215.2c0,0.1,0.2,0.2,0.2,0.2h-0.1c-0.1,0-0.1,0-0.2,0.1s-0.2,0.2-0.1,0.3c0,0,0,0.1,0.1,0.1
		c0.3,0.5,0.4,1,0.5,1.6c0.1,0.3,0,0.4-0.1,0.5c-0.2,0.1-0.4,0.1-0.6,0.1c0-0.3,0-0.9-0.4-1.2l-0.5,0.1c-0.2,0-0.5-0.1-0.7-0.1
		c0.1-0.4,0.1-0.8-0.1-1.1c-0.1-0.4-0.6-0.6-0.7-1l0,0c-0.3,0.2-1.2-0.6-1.6-0.8v0.2c-0.3-0.2-0.6-0.4-1-0.6c0.3-0.1,0.6,0.1,0.9,0
		c0.6-0.1,0.3,0,0.8,0.4c0.1,0.1,0.3,0.2,0.5,0.2c0.2,0.1,0.2,0.3,0.4,0.4s0.3,0.1,0.4,0.1s0-0.3-0.1-0.5c0.5,0,0.7,0.7,1.1,0.6
		c0.2,0,0.4-0.1,0.6-0.2c0.2-0.1,0.3-0.3,0.4-0.6C355.6,214,355.8,214.9,355.8,215.2z"></path><path class="st7" d="M355,224.8c0.8,0.1,0.2,0.3,0.2,0.6C355.1,225.1,354.8,225,355,224.8z"></path><path class="st7" d="M354.7,218.8c0-0.2,0.1-0.4,0.1-0.6l0.8,0.6c0,0.4,0,0.9,0,1.4s0.1,0.5,0.5,0.7c-0.2,0.1-0.3,0-0.4-0.1
		c-0.2,0.5-0.2,1,0,1.5c0.2,0.6,0.3,1.1,0.3,1.7c0,0.2-0.1,0.3-0.2,0.4c-0.3,0.2-0.7,0.2-1,0.1c-0.2-0.1-1.1,0.6-1.1,0
		s-0.1-1.3-0.1-1.9c0-0.2,0.2-0.5,0.4-0.6c0.1-0.5,0.2-1,0.3-1.5c0-0.3-0.3-0.6-0.3-0.8s0.2-0.2,0-0.6s-0.1-0.4,0.1-0.8
		C354.2,218.4,354.4,218.6,354.7,218.8z"></path><path class="st7" d="M340.2,226.9c0.8-0.2,1.8,2.2,1.2,2.6h-0.1c-0.5,0.2-1.2,0.2-1.6-0.2c-0.5-0.4-1-0.9-1.4-1.4
		c0.4,0,0.8-0.1,1.2-0.1h0.1C339.9,227.6,340.1,227.1,340.2,226.9z"></path><path class="st7" d="M298.1,217.3c-0.2-0.1-0.3-0.1-0.4,0l-0.1,0.1l-0.1,0.1c-0.1,0-0.2,0-0.3,0c0.1,0.1,0.1,0.2,0.2,0.4
		c-0.8-0.2-1.6-0.4-2.4-0.6l-0.3-0.1c-0.4-0.1-0.9-0.2-1.3-0.5c-0.5-0.4-1.1-0.7-1.6-1c-0.2-0.1-0.3,0.1-0.5,0l-0.8-0.7
		c-0.5-0.4-0.9,0-1.3-0.4s-0.9-0.2-1.3-0.3c-0.2,0-1.4-0.4-1.4-0.7c0,0,0-0.1,0.1-0.1c0.3-0.1,0.7-0.2,1-0.3c0.5-0.2,0.6,0,1.2,0.2
		c0.5,0.1,0.9,0.2,1.4,0.3c0.5,0,1,0.1,1.4,0.2c0.2,0.1,0.4,0,0.6-0.1s0.2,0.1,0.5,0.1s0.3-0.2,0.5,0.1s0.5-0.1,0.7,0.2
		s0,0.4,0.3,0.6s0.5,0,0.6,0s0.5,0.4,0.6,0.5s0.4,0.1,0.4,0.4c0-0.1,0.1-0.2,0.2-0.3c0.3-0.2,0.8,0,0.9,0.3c0,0,0,0,0,0.1
		s0.1,0.2,0.1,0.2C297.4,216.3,297.8,216.8,298.1,217.3z"></path><path class="st7" d="M303.5,215.6c0.4-0.2,0.5,0.4,0.9,0.5l-0.9,0.1c-0.1,0.1-0.1,0.1-0.2,0.1c-0.2,0.1-0.4,0.1-0.7,0.3l-0.1,0.2
		l-0.4,0.2c-0.2,0.1-0.4,0.1-0.6,0.1s-0.5,0-0.7,0.1c-0.1,0.1-0.2,0.1-0.2,0.2c-0.1,0.1-0.1,0.1-0.2,0.2h-0.1
		c-0.4,0.1-0.9,0.1-1.3,0.3l-0.1-0.2c-0.4,0.1-0.9,0.4-0.8-0.3c0-0.2,0-0.3,0.1-0.3h0.1c0.1,0,0.2-0.1,0.3-0.1c0,0,0.1-0.1,0-0.2
		c0.2,0,0.9-0.2,1-0.1c0.5,0.3,0.8,0,1.2-0.2c0.1,0,0.1-0.1,0.2-0.1s0.1-0.1,0.1-0.1l0,0c-0.1-0.2-0.1-0.3,0-0.3s0.2,0,0.2,0
		c0.2,0,0.5,0,0.7-0.2c0.1-0.1,0.2-0.1,0.2-0.2c0.2,0.3,0.6,0.4,0.9,0.3l0,0c0,0,0.1,0,0.1-0.1C303.4,215.7,303.5,215.6,303.5,215.6
		z"></path><path class="st7" d="M298.2,200.3l0.3-0.2c0.4-0.1,0.8-0.1,1.1,0.1c0.2,0.1,0.3,0.7,0.5,1s0.4,0.4,0.3,0.5l0,0
		c-0.1,0.1-0.2-0.1-0.4-0.1c-0.5,0.1-0.4-0.6-0.4-0.9c-0.1,0.1-0.1,0.2-0.2,0.3C298.9,201.2,298.6,200.8,298.2,200.3z"></path><path class="st7" d="M301.8,200.4c0.1-0.1,0.3,0.1,0.4,0.2v0.2h0.2l0.2,0.2c0.3-0.1,0.6,0.7,0.7,0.9H303l0.3,0.4
		c-0.3-0.1-0.4-0.4-0.7-0.6c-0.1,0.4,0.2,0.5,0.5,0.8s0.2,0.4,0.1,0.5s-0.2,0-0.3-0.2l0,0c0,0.1,0,0.2,0,0.2
		c-0.3,0.1-0.6,0.1-0.8-0.1c-0.3-0.2-0.4-1-0.9-0.7l-0.1,0.1l0.2,0.3c-0.2,0-0.1,0-0.3-0.1c0,0.1-0.1,0.1,0,0.3
		c-0.1-0.1-0.2-0.2-0.3-0.2s0.1,0.7,0.1,0.8c-0.6-0.2-0.4-0.9-0.2-1.1s-0.3-0.4,0-0.6l0,0c0.2-0.1,0.5,0.1,0.5,0.4
		c0.1-0.2,0-0.6,0.2-0.7c0.1,0,0.1,0,0.2,0c-0.1-0.2-0.2-0.3-0.1-0.4h0.1c0-0.1,0-0.1,0-0.1l0.2-0.1l-0.5-0.5
		C301.4,200.2,301.6,200.3,301.8,200.4L301.8,200.4z"></path><path class="st7" d="M296.9,201.3l0.3,0.1c0.1,0.1,0.5,0.5,0.5,0.5s-0.2,0.6-0.1,0.7c0.4,0.6,0,1-0.2,1.5c-0.1-0.5-0.1-1,0-1.5
		C297.3,202.2,297.2,201.7,296.9,201.3z"></path><path class="st7" d="M288,200c-0.1,0.1,0.1,0.1,0,0.2l0,0c-0.1,0.1-0.2,0.1-0.4,0.1c-0.4,0-0.4-0.1-0.7-0.5c0.1-0.4,0.1-0.8,0.4-1
		c0.1-0.1,0.2-0.1,0.4-0.1l-0.1-0.1c0.2-0.1,0.4,0.1,0.5,0.3l0,0c-0.2,0.1,0,0.4,0.1,0.6S288.1,199.9,288,200z"></path><path class="st7" d="M210.8,205.8c0.1,0,0.2,0,0.3,0.1c0.2-0.1,0.5,0.2,0.3,0.4l0,0c-0.1,0.1-0.6-0.1-0.7-0.2
		C210.7,206,210.7,205.9,210.8,205.8z"></path><path class="st7" d="M189.8,260.7c-0.3-0.2-0.2-0.3,0-0.5s0.4-0.2,0.6-0.2h0.2c0,0.3-0.1,0.5-0.3,0.7
		C190.1,260.8,189.9,260.8,189.8,260.7z"></path><path class="st7" d="M173.2,236.3c0.6-0.4,1.3-0.5,2-0.3c0,0.1-0.1,0.2-0.2,0.3C174.4,236.5,173.8,236.5,173.2,236.3L173.2,236.3z"></path><path class="st7" d="M200,210.4c-0.3,0-0.3-0.3-0.4-0.4h-0.1l0.3-0.1C199.7,210.1,199.9,210.2,200,210.4z"></path><path class="st7" d="M203,190.6c0.3,0.1,0.5,0.2,0.4,0.5l-0.4,0.1C203,191,203,190.8,203,190.6z"></path><path class="st7" d="M205.2,187.6h-0.1l-0.2-0.1l0.2-0.2C205.3,187.4,205.3,187.5,205.2,187.6z"></path><path class="st7" d="M214.9,160.4c-0.1,0.5-0.4,0.9-0.8,1.2l-1.3,0.4c0-0.7,0.3-0.7,0.8-1.1l0,0C214,160.6,214.4,160.5,214.9,160.4
		z"></path><path class="st7" d="M214.6,159.6l-0.5,0.8l-1,0.4c0.2-0.4,0.3-0.9,0.4-1.3c0.1-0.2,0.2-0.4,0.4-0.5s0.4-0.2,0.6-0.3
		c-0.2,0.3-0.5,0.5-0.7,0.8L214.6,159.6z"></path><path class="st7" d="M217,161.1l-0.2,0.4h-0.4c0.1-0.1,0.2-0.3,0.3-0.3C216.8,161.1,216.9,161,217,161.1z"></path><path class="st7" d="M218.9,158.1c-0.3,0.3-0.6,0.6-0.9,0.9l-0.4-0.1c-0.1-0.2,0-0.3,0.1-0.4c0.1,0,0.1-0.1,0.2-0.1
		c0.1,0,0.1-0.1,0.2-0.1c0.1,0,0.1-0.1,0.1-0.1c0.1-0.1-0.1-0.4-0.1-0.6c0-0.1,0.1-0.1,0.2-0.2l0.1-0.1l0.2-0.1
		C218.9,157.7,219.1,157.8,218.9,158.1z"></path><path class="st7" d="M216.2,160.5c-0.2,0.1-0.4-0.1-0.6-0.3c0.2-0.4,0.5-0.8,0.8-1.2c0,0,0,0,0.1-0.1c0.3-0.2,1-0.1,1,0.3
		c0,0.4-0.1,0.7-0.4,0.9c-0.1,0-0.2,0-0.3,0c-0.1-0.1-0.2-0.1-0.3,0C216.4,160.3,216.4,160.4,216.2,160.5L216.2,160.5z"></path></g><g id="Magnifyng_Glass"><path class="st4" d="M263.5,219.4c-1.6,0-3.1-0.2-4.6-0.5c-7.1-1.5-13.1-6-16.6-12.4c-7.5-13.9-4-31.2,8.3-41.1
		c10.3-8.4,25.6-6.9,34,3.4c1,1.2,1.9,2.6,2.6,4c3.7,6.7,4.9,14.5,3.3,22C287.6,209.3,276,219.4,263.5,219.4z M266,165.2
		c-4.5,0.1-8.8,1.6-12.3,4.4c-10.3,8.3-13.2,22.7-7,34.4c2.7,5.1,7.5,8.7,13.1,9.9c11.4,2.3,22.9-6.6,25.6-20
		c1.4-6.3,0.4-12.8-2.7-18.5c-2.7-5.1-7.5-8.7-13.1-9.9C268.4,165.3,267.2,165.2,266,165.2L266,165.2z"></path><path class="st4" d="M289,200.2l41.5,20.5c0,0,1.7,5.4-2,6.8s-45.9-21.4-45.9-21.4"></path><g class="st8"><path d="M263.5,219.4c-1.6,0-3.1-0.2-4.6-0.5c-7.1-1.5-13.1-6-16.6-12.4c-7.5-13.9-4-31.2,8.3-41.1c10.3-8.4,25.6-6.9,34,3.4
			c1,1.2,1.9,2.6,2.6,4c3.7,6.7,4.9,14.5,3.3,22C287.6,209.3,276,219.4,263.5,219.4z M266,165.2c-4.5,0.1-8.8,1.6-12.3,4.4
			c-10.3,8.3-13.2,22.7-7,34.4c2.7,5.1,7.5,8.7,13.1,9.9c11.4,2.3,22.9-6.6,25.6-20c1.4-6.3,0.4-12.8-2.7-18.5
			c-2.7-5.1-7.5-8.7-13.1-9.9C268.4,165.3,267.2,165.2,266,165.2L266,165.2z"></path><path d="M289,200.2l41.5,20.5c0,0,1.7,5.4-2,6.8s-45.9-21.4-45.9-21.4"></path></g></g><g id="Character"><path class="st9" d="M311.7,212.3c-2.5-1.2-4.9-2.6-7.3-4c-0.4-0.9-0.9-1.8-1.4-2.7c-0.7-1.4-2.3-2.2-3.8-2c-0.7,0.1-1.2,0.8-1,1.5
		c0.1,0.6,0.6,1,1.1,1l0.2,0.2c-3,0.1-8.3,0.6-7.1,3.5c-0.1,0.1-0.2,0.2-0.3,0.3c-0.6,0.8-0.6,1.9,0.2,2.6c0.5,0.5,1.3,0.7,2,0.6
		c0.5,1,1.6,1.4,2.6,1l0.7-0.2c-0.1,0.6,0.4,1.2,1,1.3c0.1,0,0.3,0,0.4,0c0.8-0.2,1.6-0.3,2.5-0.5c5.6,1.8,8.3,2.4,10.4,3.8
		c0.9,0.6,0,0.8,0,0c0.4-0.5,0.3-1.2-0.2-1.6c0,0,0,0-0.1,0c-0.1-0.1-0.2-0.1-0.2-0.2c0.5-0.4,0.6-1.1,0.2-1.7c0,0,0,0,0-0.1
		l-0.3-0.3c0.7-0.1,1.3-0.7,1.2-1.4C312.4,212.9,312.1,212.5,311.7,212.3z"></path><path class="st10" d="M340.1,297.8l1.4,19.1l-2.4,2.1l-2.7-0.7c0,0,0.3-5.1-0.6-6.2s-2.5,4.4-3.4,4.4s-11.8-2.9-11.9-4.2
		c-0.2-1.8,2.2-3.8,6.8-2.7c5,1.2,5.9-4.4,6.6-9.8"></path><path class="st11" d="M332.4,301.6c0,0,4.7,2,12.9-3.2c0,0-2.8-25.4-2.6-29.8s5.1-35.9-0.9-42.9s-16.9,60-16.3,60.3"></path><path class="st11" d="M336.3,312.8l-0.5-0.7c0,0-1.3-1.2-2.6-0.6s-1.1,5.1-1.1,5.1l4.5-1.7C336.7,314.2,336.6,313.5,336.3,312.8z"></path><path class="st10" d="M325.4,307.1l-0.5,19.2l-2.6,1.8l-2.6-0.9c0,0,0.8-5,0-6.2s-2.9,4.1-3.8,4s-11.4-4-11.5-5.4
		c0-1.8,2.6-3.6,7-2c4.8,1.7,6.2-3.8,7.5-9.1"></path><path class="st11" d="M320.2,321.8l-0.4-0.8c-0.6-0.7-1.6-1.1-2.6-0.9c-1.4,0.5-1.6,5-1.6,5l4.6-1.2
		C320.4,323.2,320.3,322.5,320.2,321.8z"></path><path class="st11" d="M323.8,233.2c0,0-8,21.6-9.9,31c-1.9,9.3-1.9,44.5-1.2,45.5s8.5,2.6,13.7,2.5s4.5-41.5,4.5-41.5
		s14.3-36.3,10.5-40.3S323.8,233.2,323.8,233.2z"></path><path class="st12" d="M323.5,233.6c7.3,2.3,16.5-0.5,21-6.7c-0.8-10.2-2.6-27.2-5.2-29.7c-3.8-3.7-12,1.5-15,6.7
		c-1.5,2.6-4.4,12.1-4.4,12.1l-11.2-6.4l-3.4,8c0,0,7.7,14.5,18.1,11.2L323.5,233.6z"></path><path class="st7" d="M330.5,214.9c0-0.2-0.3-0.4-0.5-0.4s-0.3,0.2-0.4,0.4c0,3.3-0.1,6.7-1.7,9.7c-1.2,2.5-3.7,4.2-6.4,4.6
		c-0.5,0-0.5,0.9,0,0.9c3-0.3,5.6-2,7-4.7C330.4,222.1,330.5,218.4,330.5,214.9z"></path><path d="M326.6,178.6c-0.6,0.1-1.5,1.1-3,4.4s2,7.6,3.5,8.5s3.6,4.4,3.6,4.4s5.4,1.3,9.1-5.4S335.4,176.7,326.6,178.6z"></path><path class="st9" d="M325.1,182.3c0,0-2.7,11.1,1.3,13.7s9.5-4.2,10-6.9S334,180.6,325.1,182.3z"></path><path d="M325.1,182.3c0,0-0.7,7.3,3.1,8.9s3.9,3.9,3.9,3.9s6.9-3.7,7.6-6.9S330.3,179.4,325.1,182.3z"></path><path d="M337.7,191.1c-1.4,10.9,1.4,24.9-3.1,35.1c-0.3,0.6-0.9,3.5-1.4,3.5l11-6c4.4-2.7,7.6-4.5,6-11.4s-10.5-21.7-10.5-21.7
		L337.7,191.1z"></path><path class="st7" d="M321,210.5c-0.7,2.9-1.2,5.8-1.6,8.8c-0.1,0.6,0.8,0.5,0.9,0c0.4-2.9,0.9-5.7,1.6-8.5
		C321.9,210.2,321.1,210,321,210.5z"></path><path class="st12" d="M336.4,196l-1-2.2c-2,1-4.1,1.9-6.3,2.7c-2.6,0.8-1.9,3.8-1.9,3.8S333.3,200.3,336.4,196z"></path><path d="M341.1,235c-1.2,6.6-2.8,13.1-4.7,19.6c-1.8,6.1-4.2,12-5.6,18.1c-1.4,5.9-1.8,11.9-2.4,17.9l-2.1,20.2
		c-0.1,0.9,1.2,0.9,1.3,0c0.7-6.3,1.3-12.7,2-19c0.7-6.7,1.1-13.4,2.8-19.9c1.5-5.9,3.8-11.7,5.5-17.6c1.8-6.2,3.3-12.6,4.5-19
		C342.5,234.5,341.2,234.1,341.1,235z"></path></g><g id="Plant"><path class="st4" d="M412.3,225.8c-8.8-0.8-18.1-3.4-24.7-9.5v26.2c0,15,12.2,27.2,27.2,27.2l0,0c15,0,27.2-12.2,27.2-27.2v-26.6
		C432.8,219.7,422.2,226.7,412.3,225.8z"></path><ellipse class="st12" cx="414.8" cy="216.1" rx="27.2" ry="14.4"></ellipse><path class="st12" d="M414.8,218.6c0,0-18.5-2.7-23.4-32.6C391.5,186,407.2,194.7,414.8,218.6z"></path><path class="st12" d="M417.6,214.8c0,0-21.2-38.1,0-63.6C417.6,151.2,428.4,180.6,417.6,214.8z"></path><path class="st12" d="M414.8,190.9c0,0-18.5-2.7-23.4-32.6C391.5,158.3,407.2,167,414.8,190.9z"></path><path class="st12" d="M417.1,203.1c0,0-4.6-18.1,21.1-34.1C438.1,168.9,436.2,186.8,417.1,203.1z"></path><ellipse class="st6" cx="414.8" cy="216.1" rx="27.2" ry="14.4"></ellipse><path class="st12" d="M414.8,218.6c0,0-18.5-2.7-23.4-32.6C391.5,186,407.2,194.7,414.8,218.6z"></path><path class="st12" d="M417.6,214.8c0,0-21.2-38.1,0-63.6C417.6,151.2,428.4,180.6,417.6,214.8z"></path><path class="st12" d="M414.8,190.9c0,0-18.5-2.7-23.4-32.6C391.5,158.3,407.2,167,414.8,190.9z"></path><path class="st12" d="M417.1,203.1c0,0-4.6-18.1,21.1-34.1C438.1,168.9,436.2,186.8,417.1,203.1z"></path></g></svg>